/* XPM */
static char * chocolate1_xpm[] = {
"80 80 291 2",
"  	c #638E18",
". 	c #67971E",
"+ 	c #6B9B1E",
"@ 	c #5F8815",
"# 	c #5C8614",
"$ 	c #5D8816",
"% 	c #6E9C1D",
"& 	c #648E17",
"* 	c #64921A",
"= 	c #5E8917",
"- 	c #628E18",
"; 	c #68971E",
"> 	c #5F8B18",
", 	c #5C8515",
"' 	c #618D18",
") 	c #5C8514",
"! 	c #608B17",
"~ 	c #639019",
"{ 	c #69971C",
"] 	c #5B8514",
"^ 	c #5E8A17",
"/ 	c #659219",
"( 	c #6A981C",
"_ 	c #69961A",
": 	c #63911B",
"< 	c #66941C",
"[ 	c #6B9A1E",
"} 	c #618C17",
"| 	c #5F8A16",
"1 	c #618E19",
"2 	c #649119",
"3 	c #46180D",
"4 	c #682D1F",
"5 	c #6A3326",
"6 	c #608A16",
"7 	c #69961B",
"8 	c #709E1D",
"9 	c #68961B",
"0 	c #5E8916",
"a 	c #68971D",
"b 	c #679219",
"c 	c #6A971C",
"d 	c #669219",
"e 	c #67961C",
"f 	c #68951A",
"g 	c #813E2E",
"h 	c #99503F",
"i 	c #8A4636",
"j 	c #65931B",
"k 	c #5D8715",
"l 	c #638F19",
"m 	c #628E19",
"n 	c #669118",
"o 	c #67941B",
"p 	c #64921B",
"q 	c #5C8715",
"r 	c #844334",
"s 	c #A45B4A",
"t 	c #743A2C",
"u 	c #63901A",
"v 	c #638F18",
"w 	c #5F8C18",
"x 	c #618F1A",
"y 	c #5E8B18",
"z 	c #628F19",
"A 	c #6B2F20",
"B 	c #A45846",
"C 	c #7E483B",
"D 	c #935344",
"E 	c #9F5846",
"F 	c #7C3F30",
"G 	c #628F1A",
"H 	c #6B981C",
"I 	c #608C18",
"J 	c #5C8615",
"K 	c #618D19",
"L 	c #934D3C",
"M 	c #8A4F40",
"N 	c #7C4639",
"O 	c #834B3D",
"P 	c #794336",
"Q 	c #6B3629",
"R 	c #612E22",
"S 	c #4C1D13",
"T 	c #65921A",
"U 	c #5E8815",
"V 	c #62901A",
"W 	c #66941B",
"X 	c #618B17",
"Y 	c #7D3D2E",
"Z 	c #8E5142",
"` 	c #8C4A3A",
" .	c #5C2D22",
"..	c #628D18",
"+.	c #5F8915",
"@.	c #618A15",
"#.	c #68971C",
"$.	c #6C9A1D",
"%.	c #5E8714",
"&.	c #608C17",
"*.	c #9C5544",
"=.	c #723729",
"-.	c #633126",
";.	c #58261A",
">.	c #6A961A",
",.	c #68961C",
"'.	c #5F8A17",
").	c #618E1A",
"!.	c #6B9A1D",
"~.	c #68941A",
"{.	c #54251A",
"].	c #69981D",
"^.	c #638E17",
"/.	c #66931B",
"(.	c #854738",
"_.	c #9D5949",
":.	c #AA5D4B",
"<.	c #652C1F",
"[.	c #512117",
"}.	c #65931A",
"|.	c #608D18",
"1.	c #5A291E",
"2.	c #A05746",
"3.	c #6B392E",
"4.	c #764135",
"5.	c #AB604E",
"6.	c #57281E",
"7.	c #4F2016",
"8.	c #B2614E",
"9.	c #6E3C30",
"0.	c #B86652",
"a.	c #904837",
"b.	c #723E32",
"c.	c #5F3127",
"d.	c #572D23",
"e.	c #C9C8C8",
"f.	c #B5B4B3",
"g.	c #734D44",
"h.	c #623329",
"i.	c #A3A3A3",
"j.	c #D9D9D9",
"k.	c #D4D4D4",
"l.	c #C1BDBC",
"m.	c #978683",
"n.	c #72514A",
"o.	c #B66754",
"p.	c #ACACAC",
"q.	c #CDCDCD",
"r.	c #CECFD0",
"s.	c #DFE0E0",
"t.	c #E3E3E4",
"u.	c #7D615B",
"v.	c #5F3228",
"w.	c #C4C3C3",
"x.	c #D7D7D8",
"y.	c #E7E8E8",
"z.	c #6A443C",
"A.	c #826863",
"B.	c #983838",
"C.	c #B2ACA8",
"D.	c #93827E",
"E.	c #931414",
"F.	c #B23331",
"G.	c #A58989",
"H.	c #BEBFC0",
"I.	c #B42727",
"J.	c #A32424",
"K.	c #907E7A",
"L.	c #AA2424",
"M.	c #A52A29",
"N.	c #9A2222",
"O.	c #A99D9C",
"P.	c #8A7671",
"Q.	c #9B1B1B",
"R.	c #B42C2C",
"S.	c #982727",
"T.	c #A69493",
"U.	c #7F6863",
"V.	c #900F0F",
"W.	c #A27675",
"X.	c #ADA4A3",
"Y.	c #64382F",
"Z.	c #981F20",
"`.	c #9C5A5A",
" +	c #C3C0BF",
".+	c #A31E1E",
"++	c #AB2D2D",
"@+	c #C23535",
"#+	c #BAB7B6",
"$+	c #BCBCBB",
"%+	c #8B1313",
"&+	c #9C6868",
"*+	c #653B32",
"=+	c #9B8C89",
"-+	c #BB3434",
";+	c #9A4040",
">+	c #BAB2AB",
",+	c #AE322E",
"'+	c #8B7A76",
")+	c #9C9695",
"!+	c #6F4B43",
"~+	c #88726D",
"{+	c #B43B33",
"]+	c #DD8354",
"^+	c #C4593F",
"/+	c #A44E47",
"(+	c #664139",
"_+	c #775A53",
":+	c #DFDFE0",
"<+	c #D6794D",
"[+	c #FFD682",
"}+	c #FAC678",
"|+	c #D06D49",
"1+	c #D1936F",
"2+	c #C9BEA5",
"3+	c #C95E42",
"4+	c #FBC475",
"5+	c #FFE28B",
"6+	c #BD543B",
"7+	c #EEAA68",
"8+	c #F3CC78",
"9+	c #B2AA9F",
"0+	c #CB6345",
"a+	c #F7BC73",
"b+	c #FFDE89",
"c+	c #FFDA85",
"d+	c #ECA264",
"e+	c #DA8F5A",
"f+	c #DFC281",
"g+	c #CEB78D",
"h+	c #BFC1C1",
"i+	c #C3543E",
"j+	c #F3B36D",
"k+	c #F1AE6B",
"l+	c #BA4A37",
"m+	c #E5955D",
"n+	c #CC664A",
"o+	c #E6986B",
"p+	c #DA7D51",
"q+	c #A22C26",
"r+	c #EEAE83",
"s+	c #FFEBCB",
"t+	c #BE4C3A",
"u+	c #F3B986",
"v+	c #FFE59B",
"w+	c #E08957",
"x+	c #BBA997",
"y+	c #FFE5A5",
"z+	c #FAC88B",
"A+	c #C65B41",
"B+	c #EA9D61",
"C+	c #FDCC7B",
"D+	c #DD865A",
"E+	c #FBC56F",
"F+	c #FFD375",
"G+	c #F2AA66",
"H+	c #E79A5D",
"I+	c #FDCC75",
"J+	c #C35541",
"K+	c #D47856",
"L+	c #AC3C2E",
"M+	c #D3744C",
"N+	c #F6B568",
"O+	c #B77761",
"P+	c #C83C3C",
"Q+	c #FBD6A5",
"R+	c #FFD27F",
"S+	c #B94336",
"T+	c #CE6847",
"U+	c #A84236",
"V+	c #DF8B55",
"W+	c #9A4B4B",
"X+	c #FFE9A7",
"Y+	c #ECA87B",
"Z+	c #FFD993",
"`+	c #8A4C45",
" @	c #DA4343",
".@	c #941B1B",
"+@	c #E08E69",
"@@	c #8C1616",
"#@	c #B0342F",
"$@	c #830D0D",
"%@	c #E18D59",
"&@	c #B74035",
"*@	c #C43939",
"=@	c #F5BC71",
"-@	c #7E0808",
";@	c #7C0606",
">@	c #5F8814",
",@	c #62901B",
"'@	c #6D9C1E",
"  . + @ # $ % & * = - ; + @ # $ % & * = - ; + @ # $ % & * = - ; + @ # $ % & * = - ; + @ # $ % & * = - ; + @ # $ % & * = - ; + @ # $ % & * = - ; + @ # $ % & * > ",
", ' * = ) ! * ~ { = ] ' * = ) ! * ~ { = ] ' * = ) ! * ~ { = ] ' * = ) ! * ~ { = ] ' * = ) ! * ~ { = ] ' * = ) ! * ~ { = ] ' * = ) ! * ~ { = ] ' * = ) ! * ~ { ^ ",
"/ ( _ : < [ }   | 1 2 ( _ : < [ }   | 1 2 ( _ : < [ }   | 1 2 ( _ : < [ }   | 1 3 4 5 : < [ }   | 1 2 ( _ : < [ }   | 1 2 ( _ : < [ }   | 1 2 ( _ : < [ }   6 > ",
"7 8 9 0 a a b c d e f 8 9 0 a a b c d e f 8 9 0 a a b c d e f 8 9 0 a a b c d e g g h i a a b c d e f 8 9 0 a a b c d e f 8 9 0 a a b c d e f 8 9 0 a a b c d j ",
"k l m n k k o < p k q ~ m n k k o < p k q ~ m n k k o < p k q ~ m n k k o < p r s s h i i t o < p k q ~ m n k k o < p k q ~ m n k k o < p k q ~ m n k k o < p q ",
"u | e c v w x y ! z z | e c v w x y ! z z | e c v w x y ! z z | e c v w x y A B C C D E i F r A ! z z | e c v w x y ! z z | e c v w x y ! z z | e c v w x y ! z ",
"G H I I z w J K G 1 G H I I z w J K G 1 G H I I z w J K G 1 G H I I z w J K L M N C C O D D P Q R S G H I I z w J K G 1 G H I I z w J K G 1 G H I I z w J K G G ",
"# j T o U T V [ W X ] W T o U T V [ W X ] W T o U T V [ W X ] W T o U T V Y D C C C C C C O Z ` t 5  .W T o U T V [ W X ] W T o U T V [ W X ] W T o U T V [ W ..",
"+.X : ! @.#.p { $.} %.&.: ! @.#.p { $.} %.&.: ! @.#.p { $.} %.&.: ! @.#.A D O C C C C C C C C M *.L =.-.;.! @.#.p { $.} %.&.: ! @.#.p { $.} %.&.: ! @.#.p { $.&.",
">.,.0 @ m w '.).!.I ~.,.0 @ m w '.).!.I ~.,.0 @ m w '.).!.I ~.,.0 @ m w ` O C C C C C C C C C C C Z s L Q R {.w '.).!.I ~.,.0 @ m w '.).!.I ~.,.0 @ m w '.).!.> ",
"  . ].%.J $ $.^./.=   ; ].%.J $ $.^./.=   ; ].%.J $ $.^./.=   ; ].%.J Y Z C C C C C C C C C O (.N C O _.:.i 5 <.[.^./.=   ; ].%.J $ $.^./.=   ; ].%.J $ $.^.}.> ",
"] |.* = ) ! p ~ { = ] ' * = ) ! p ~ { = ] ' * = ) ! p ~ { = ] ' * = 5 ` C C C C C C C C C C ` Q N C O C O s B P 5 1.{ = ] ' * = ) ! p ~ { = ] ' * = ) ! p ~ { ^ ",
"/ ( _ : < [ }   | 1 2 ( _ : < [ }   | 1 2 ( _ : < [ }   | 1 2 ( _ : ` O O C C C N C C C C O t Q C C C C C C O s 2.t 5 ;.2 ( _ : < [ }   | 1 2 ( _ : < [ }   6 > ",
"7 8 9 0 a a b c d e f 8 9 0 a a b c d e f 8 9 0 a a b c d e f 8 9 g Z C C C C Z ` C C C C O R N C C C C C C C C Z s L Q R {.9 0 a a b c d e f 8 9 0 a a b c d j ",
"k l m n k k o < p k q ~ m n k k o < p k q ~ m n k k o < p k q ~ A D C C C C C t P ` O N ` Q 3.C N C C C C C O (.4.O D :.L 5 R [.k k o < p k q ~ m n k k o < p q ",
"u | e c v w x y ! z z | e c v w x y ! z z | e c v w x y ! z z | h M C C C C C P 5 5 (.Z (.-.C C C C C C C C D =.4.C C O _.:.r 5 [.S x y ! z z | e c v w x y ! z ",
"G H I I z w J K G 1 G H I I z w J K G 1 G H I I z w J K G 1 G i E N C C C C C C C t  .=.-.4.C C C C C C C ` ` Q C C C C N M 5.B t 6.S K G 1 G H I I z w J K G G ",
"# j T o U T V [ W X ] W T o U T V [ W X ] W T o U T V [ W X =.:.O C C C C C C C C C P {.7.5 N C C C C C C D Q P C C C C C C C Z 8.*.5 {.S X ] W T o U T V [ W ..",
"+.X : ! @.#.p { $.} %.&.: ! @.#.p { $.} %.&.: ! @.#.p { $.} :.D C C C C C C C C C C 3. .9. .1.9.C C C C O t 3.C C C C C C C C N C _.0.`  .{.S &.: ! @.#.p { $.&.",
">.,.0 @ m w '.).!.I ~.,.0 @ m w '.).!.I ~.,.0 @ m w '.).!.a.:.C C C C N C C C C C 4.1.4.C N Q 1.-.4.C C P -.C C C C C C C C C C C N M 5.8.g 1.[.S @ m w '.).!.> ",
"  . ].%.J $ $.^./.=   ; ].%.J $ $.^./.=   ; ].%.J $ $.^.A 5.O C C C C C C C C C C -.-.C C C C 4.-. .b.P N 4.C C C C C C C C C N C C C C Z 8.B =.6.S J $ $.^.}.> ",
"] |.* = ) ! p ~ { = ] ' * = ) ! p ~ { = ] ' * = ) ! p ~ L O C C C C C C C C C C 3.c.C C C C C C C N Q 1.Q N C C C C C C C Z ` 3.C C C C C C D 2.;.[.S ! p ~ { ^ ",
"/ ( _ : < [ }   | 1 2 ( _ : < [ }   | 1 2 ( _ : < [ } Y ` 3.C C C O C C C C C 4.1.4.C C C C C C C C b.Q -.1.P Z O N N C C s 5 4.C C C C C C C R d. .7.[ }   6 > ",
"7 8 9 0 a a b c d e f 8 9 0 a a b c d e f 8 9 0 e.f.g._.Q h.4.C 4.P *.O N C C 4.4.C C C C C C C C O 1.b.C 4.5 =.s 5.Z N _.L Q C C C C C C C 3.6.h.{.a a b c d j ",
"k l m n k k o < p k q ~ m n k k o < p k q ~ m i.j.k.l.f.m.n.t C N -.t s *.O _.O C C C C C C C N Z h h.C C C N 4.5 i 8.o.8.-.4.C C C C C C 4.;.c. .3 k k o < p q ",
"u | e c v w x y ! z z | e c v w x y ! z z | e p.q.r.j.s.t.e.u.b.C C 3.-.*.0.i N C C C C C C C O 5.Q 4.C C C N C N 9.5 L Y 3.C C C C C C C R d.v.7.c v w x y ! z ",
"G H I I z w J K G 1 G H I I z w J K G 1 G H p.w.x.r.k.x.j.y.l.z.4.N C N -.<.1.N C C C C C C N _.a.Q C C C C C C C C N 6.S -.P C C C C O 3.6.h.{.I I z w J K G G ",
"# j T o U T V [ W X ] W T o U T V [ W X ] W p.e.x.k.q.x.j.j.j.A.5 N C C 4.{.1.-.4.C N C C C O 5.-.N C C C C C C C C 4.6.3.-.1.4.C C C 4.;.-. .S T o U T V [ W ..",
"+.X : ! @.#.p { $.} %.&.: ! @.#.p { $.} %.B.C.e.x.x.q.k.x.x.y.D.v.3.N P 1.3.N Q 3.O D O N C B P 4.C C C C C C C C N  .5 C N 3.3.C C C  . .v.7.&.: ! @.#.p { $.&.",
">.,.0 @ m w '.).!.I ~.,.0 @ m w '.).!.I E.F.G.H.k.x.r.k.j.x.y.D.v.v.3.c.-.N C C C 4.r B ` Z h Q N C C C C C C C C 5 c.N C C C O C C Q 6.h.6.~.,.0 @ m w '.).!.> ",
"  . ].%.J $ $.^./.=   ; ].%.J $ $.^./.= I.J.B.G.l.x.k.q.k.j.y.K.c.v. .{.4.C C C C C 3.5 D 5.Q P C C C C C C C C 4.6.4.C C C C C C 4.6.v. .S   ; ].%.J $ $.^.}.> ",
"] |.* = ) ! p ~ { = ] ' * = ) ! p ~ { L.M.N.N.B.O.k.k.e.e.j.s.P.h.v.[.c.h.4.C C C C O 4.5 <.-.C C C C C C C C N 5 9.C C C C C C C  . .h.[.= ] ' * = ) ! p ~ { ^ ",
"/ ( _ : < [ }   | 1 2 ( _ : < [ }   Q.R.N.N.N.S.T.k.x.k.q.j.t.r.U.{.1.h.v.h.9.N N C C C 3.1.1.Q N C C C C C C C N C C C C C C C Q 6.h.6.| 1 2 ( _ : < [ }   6 > ",
"7 8 9 0 a a b c d e f 8 9 0 a a b V.R.N.N.N.N.N.W.q.j.j.q.k.j.t.X.d.v.h.h.h.c.Y.4.N C 4.1.4.N h.1.4.C N C C P Q C C C C C C C 4.6.h. .S d e f 8 9 0 a a b c d j ",
"k l m n k k o < p k q ~ m n k k o I.M.N.N.N.N.Z.`. +k.j.k.k.j.j. +z.h.h.h.v.h.v.h.Q 4.-.Q N C C 4.1.Q L O O Q h.C C C C C C N 1. .h.[.< p k q ~ m n k k o < p q ",
"u | e c v w x y ! z z | e c v w .+++Z.N.N.Z.N.N.B.O.k.j.q.k.j.s.w.z.c.h.h.h.h.h.h.h.c.{.4.N C C C 4.Q 3.B 5.-.4.C C C C C O -.1.h.d.x y ! z z | e c v w x y ! z ",
"G H I I z w J K G 1 G H I I z Q.@+N.N.N.N.N.N.N.N.`.#+r.j.r.j.j.$+z.v.h.h.h.h.v.h.v.{.c.Y.Q 4.P N C C 4.-.<.Q N C C C C C 4.{.h.v.S J K G 1 G H I I z w J K G G ",
"# j T o U T V [ W X ] W T o %+@+R.++M.M.N.N.N.N.N.N.&+#+k.q.k.j.X.*+h.v.v.h.h.h.h.h.v.h.v.v.v.Y.3.4.N C Q {.1.3.C C C C N 1.c.h.{.T V [ W X ] W T o U T V [ W ..",
"+.X : ! @.#.p { $.} %.&.: ! R.F.++++++++M.J.N.N.N.Z.a.f.x.k.q.j.=+h.h.h.v.h.h.h.v.6.v.h.v.h.h.h.v.h.Q Y.{.3.4.4.C C C C -.6.h.1.@.#.p { $.} %.&.: ! @.#.p { $.&.",
">.,.0 @ m w '.).!.I ~.,.0 L.-+++++++++++++++M.N.N.Z.;+>+k.j.k.k.i.n.c.h.h.h.h.v.1.{.h.v.h.h.h.h.h.v.v.6.1.Y.Q 4.4.4.4.4.{.v.v.7.m w '.).!.I ~.,.0 @ m w '.).!.> ",
"  . ].%.J $ $.^./.=   ; E.@+,+++++++++++++++++M.N.N.B.O.q.j.k.r.w.'+{.6.c.v.v.v.{.c.h.*+Y.h.-.c.c.c. .{.v.h.v.h.v.h.-.{. .h.{.%.J $ $.^./.=   ; ].%.J $ $.^.}.> ",
"] |.* = ) ! p ~ { = ] ' R.F.++++++++++++++++++++,+N.S.G.$+k.k.q.k.)+h.6.{.c.v.c. .c.!+O.P.g.U.~+m.m.U.~+=+O.=+A.z.v.{.1.h. .S = ) ! p ~ { = ] ' * = ) ! p ~ { ^ ",
"/ ( _ : < [ }   | 1 2 J.-+++++++++++++++++++++{+]+^+N./+C.l.e.k.k.)+Y.-.v.(+_+~+~+_+=+:+w.e.x.j.j.j.j.y.t.y.y.j.$+'+(+h.c.[._ : < [ }   | 1 2 ( _ : < [ }   6 > ",
"7 8 9 0 a a b c d e Q.-+++++++++++++++++++++++<+[+}+|+,+1+2+C.H.k.D.z.A.T.w.j.s.s.e.$+k.r.k.j.r.q.r.k.j.q.k.k.j.:+s.e.D.c.8 9 0 a a b c d e f 8 9 0 a a b c d j ",
"k l m n k k o < p k R.,+++++++++++++++++++++++3+4+5+[+]+6+7+8+9+f.)+f.j.s.:+j.j.j.k.r.r.q.k.j.r.x.k.k.j.k.q.j.j.j.j.y.j.'+~ m n k k o < p k q ~ m n k k o < p q ",
"u | e c v w x y ! L.F.++++++++++++++++++++++++++0+a+b+c+d+6+e+4+f+g+2+f.e.r.k.k.q.q.k.r.r.j.k.k.x.j.x.j.j.q.k.k.j.j.j.y.h+| e c v w x y ! z z | e c v w x y ! z ",
"G H I I z w J K Z.-+++++++++++++++++++++,+,+++++++i+j+b+5+k+^+l+<+m+e+1+&+T.$+q.x.x.j.x.k.x.r.q.r.k.j.x.k.q.q.q.k.k.j.j.f.H I I z w J K G 1 G H I I z w J K G G ",
"# j T o U T V [ R.,+++++++++++++++++++++n+o+{+++++++p+b+5+5+}+|+q+S.N.N.S.W.T.T.h+r.k.q.$+k.j.j.k.q.j.x.k.q.j.k.k.j.w.p.] W T o U T V [ W X ] W T o U T V [ W ..",
"+.X : ! @.#.p R.F.++++++++++++++++++++F.r+s+r+t+++{+u+v+[+c+5+[+w+,+N.N.N.B./+1+ +x+9+x+G.e.j.x.j.q.r.q.q.r.q.k.x.j.w.i.%.&.: ! @.#.p { $.} %.&.: ! @.#.p { $.&.",
">.,.0 @ m w J.-+++++++++++++++++++++++{+r+v+y+z+A+n+y+b+B+w+C+5+c+d+l+J.N.N.M.D+E+F+8+G+1+f.r.j.x.k.r.r.r.e.k.k.x.x.j.#+~.,.0 @ m w '.).!.I ~.,.0 @ m w '.).!.> ",
"  . ].%.J $ @+,+++++++++++++++++++++,+++t+B+c+v+z+z+v+}+^+++3+k+c+b+j+i+M.J.S.N.l+H+F+F+I+g+f.r.x.j.k.j.x.k.x.j.j.j.k.#+  ; ].%.J $ $.^./.=   ; ].%.J $ $.^.}.> ",
"] |.* = ) R.-+++++++++++++++++++++F.D+J+++{+p+C+v+y+5+d+F.++++{+]+C+k+{+++K+K+L+Q.q+M+E+F+N+O+G.f.#+l.k.x.j.x.k.e.$+f.i.] ' * = ) ! p ~ { = ] ' * = ) ! p ~ { ^ ",
"/ ( _ : J.P+++++++++++++++++++++,+K+s+Q+n+,+++0+j+b+5+R+m+S+++++,+T+3+M.{+u+y+u+]+U+N.6+j+V+q+S.B.W+&+C.r.j.r.#+p.)+| 1 2 ( _ : < [ }   | 1 2 ( _ : < [ }   6 > ",
"7 8 9 0 P+R.++++++++++++++++++++{+u+X+X+Y+{+M.++S+B+c+5+b+j+3+,+++++++++{+k+C+[+R+E+V+6+L+q+N.N.N.N.N.W+T.#+$+p.b c d e f 8 9 0 a a b c d e f 8 9 0 a a b c d j ",
"k l m @+P+++++++++++++++++++++++n+Z+5+R+T+++++++++F.p+}+5+5+}+M+F.++++++++0+C+c+C+I+F+<+N.N.N.Z.N.Z.N.N.S.`+k k o < p k q ~ m n k k o < p k q ~ m n k k o < p q ",
"u | e  @-+++++++++++++++++++++++D+5+5+a+S+++++++++S+S+0+j+b+5+}+^+++++++++F.H+b+N+^+0+L+N.N.N.J..+.@N.N.%+c v w x y ! z z | e c v w x y ! z z | e c v w x y ! z ",
"G H I @+P+++++++,+++++++++++++,+B+5+5+k+F.++++++F.B+j+]+3+B+[+d+F.J++@K+F.++i+4+[+3+++++M.N.N.R.@@N.N..@I I z w J K G 1 G H I I z w J K G 1 G H I I z w J K G G ",
"# j T E.@+-+++++++++++++++++++#@d+5+5+k+F.++++++{+j+5+c+B+S+p+T+J+z+y+Z+T+++++p+j+t+++++++N.R..+.@N.Z.$@T o U T V [ W X ] W T o U T V [ W X ] W T o U T V [ W ..",
"+.X : ! @.++-+,+++++++++++++++#@d+5+5+j+{+++++++i+C+5+5+m+++,+{+o+Z+}+[+G+B+T+{+J+++++++++R.I..@N.N.@@&.: ! @.#.p { $.} %.&.: ! @.#.p { $.} %.&.: ! @.#.p { $.&.",
">.,.0 @ m w .+R.R.++++++++++++++%@5+5+C+J+++M.F.m+5+5+c+|+++++{+j+5+c+C+[+b+a+&@++++++++,+*@Q.N.S.@@~.,.0 @ m w '.).!.I ~.,.0 @ m w '.).!.I ~.,.0 @ m w '.).!.> ",
"  . ].%.J $ $.^..+++++++++++++++T+c+5+b+7+i+t+%@[+5+5+=@&@++++,+p+C+5+b+4+R+j+{+++++++++*@J..@N..@$@  ; ].%.J $ $.^./.=   ; ].%.J $ $.^./.=   ; ].%.J $ $.^.}.> ",
"] |.* = ) ! p ~ { E.Z.++++++++++S+j+5+5+b+C+C+c+5+5+c+M+++++++++,+T+a+b+b+R+M+++++++++-+-+.@N.N.$@= ] ' * = ) ! p ~ { = ] ' * = ) ! p ~ { = ] ' * = ) ! p ~ { ^ ",
"/ ( _ : < [ }   | 1 2 $@.@M.++++++T+C+5+5+5+5+5+5+c+%@F.++++++++++++i+k+R+]+F.++++++,+*@.@Q.N.%+| 1 2 ( _ : < [ }   | 1 2 ( _ : < [ }   | 1 2 ( _ : < [ }   6 > ",
"7 8 9 0 a a b c d e f 8 9 %+N.++++++M+}+5+5+5+5+C+w+{+++++++++++++++++l+0+,+++++++++*@L..@N..@-@d e f 8 9 0 a a b c d e f 8 9 0 a a b c d e f 8 9 0 a a b c d j ",
"k l m n k k o < p k q ~ m n k %+J.++++^+m+k+j+m+3+,+++++++++++++++++++++++++++++++F.-+.@N.Z.-@< p k q ~ m n k k o < p k q ~ m n k k o < p k q ~ m n k k o < p q ",
"u | e c v w x y ! z z | e c v w $@.@M.++++F.{+++++++++++++++++++++++++++++++++++++*@Q.Z.N.%+x y ! z z | e c v w x y ! z z | e c v w x y ! z z | e c v w x y ! z ",
"G H I I z w J K G 1 G H I I z w J K %+.+++++++++++++++++++++++++++++++++++++++++-+++.@N.@@w J K G 1 G H I I z w J K G 1 G H I I z w J K G 1 G H I I z w J K G G ",
"# j T o U T V [ W X ] W T o U T V [ W -@.@++++++++++++++++++++++++,+++++++++++,+@+.@N..@$@T V [ W X ] W T o U T V [ W X ] W T o U T V [ W X ] W T o U T V [ W ..",
"+.X : ! @.#.p { $.} %.&.: ! @.#.p { $.} %.%+J.++++++++++++++++++++++++++++++++@+L..@N.$@@.#.p { $.} %.&.: ! @.#.p { $.} %.&.: ! @.#.p { $.} %.&.: ! @.#.p { $.&.",
">.,.0 @ m w '.).!.I ~.,.0 @ m w '.).!.I ~.,.$@.@++++++++++++,+++++++++++++++F.@+.@N..@@ m w '.).!.I ~.,.0 @ m w '.).!.I ~.,.0 @ m w '.).!.I ~.,.0 @ m w '.).!.> ",
"  . ].%.J $ $.^./.=   ; ].%.J $ $.^./.=   ; ].%.%+J.++++++++++++++++++++++++P+.+Z.Z.$@%.J $ $.^./.=   ; ].%.J $ $.^./.=   ; ].%.J $ $.^./.=   ; ].%.J $ $.^.}.> ",
"] |.* = ) ! p ~ { = ] ' * = ) ! p ~ { = ] ' * = ) $@.@++++++++++++++++++++++++.@N.%+* = ) ! p ~ { = ] ' * = ) ! p ~ { = ] ' * = ) ! p ~ { = ] ' * = ) ! p ~ { ^ ",
"/ ( _ : < [ }   | 1 2 ( _ : < [ }   | 1 2 ( _ : < [ } %+N.M.++++++++++++++++N.N..@$@_ : < [ }   | 1 2 ( _ : < [ }   | 1 2 ( _ : < [ }   | 1 2 ( _ : < [ }   6 > ",
"7 8 9 0 a a b c d e f 8 9 0 a a b c d e f 8 9 0 a a b c d @@M.++++++++++++M.N.N.$@8 9 0 a a b c d e f 8 9 0 a a b c d e f 8 9 0 a a b c d e f 8 9 0 a a b c d j ",
"k l m n k k o < p k q ~ m n k k o < p k q ~ m n k k o < p k $@N.++++++++++N.N.@@q ~ m n k k o < p k q ~ m n k k o < p k q ~ m n k k o < p k q ~ m n k k o < p q ",
"u | e c v w x y ! z z | e c v w x y ! z z | e c v w x y ! z z ;@@@M.M.++N.S..@-@z | e c v w x y ! z z | e c v w x y ! z z | e c v w x y ! z z | e c v w x y ! z ",
"G H I I z w J K G 1 G H I I z w J K G 1 G H I I z w J K G 1 G H I %+.@N.S..@$@1 G H I I z w J K G 1 G H I I z w J K G 1 G H I I z w J K G 1 G H I I z w J K G G ",
"# j T o U T V [ W X ] W T o U T V [ W X ] W T o U T V [ W X ] W T o $@@@.@%+W X ] W T o U T V [ W X ] W T o U T V [ W X ] W T o U T V [ W X ] W T o U T V [ W ..",
"+.&.: ! @.#.p { !.} >@&.: ! @.#.p { !.} >@&.: ! @.#.p { !.} >@&.: ! @.#.p { !.} >@&.: ! @.#.p { !.} >@&.: ! @.#.p { !.} >@&.: ! @.#.p { !.} >@&.: ! @.#.p { !.&.",
">.9 q @ z > $ ,@'@I ~.9 q @ z > $ ,@'@I ~.9 q @ z > $ ,@'@I ~.9 q @ z > $ ,@'@I ~.9 q @ z > $ ,@'@I ~.9 q @ z > $ ,@'@I ~.9 q @ z > $ ,@'@I ~.9 q @ z > $ ,@'@> "};
