/* XPM */
static char * exit_xpm[] = {
"80 80 269 2",
"  	c #638E18",
". 	c #67971E",
"+ 	c #6B9B1E",
"@ 	c #5F8815",
"# 	c #5C8614",
"$ 	c #5D8816",
"% 	c #6E9C1D",
"& 	c #648E17",
"* 	c #64921A",
"= 	c #5E8917",
"- 	c #628E18",
"; 	c #68971E",
"> 	c #5F8B18",
", 	c #5C8515",
"' 	c #618D18",
") 	c #5C8514",
"! 	c #608B17",
"~ 	c #639019",
"{ 	c #69971C",
"] 	c #5B8514",
"^ 	c #5E8A17",
"/ 	c #659219",
"( 	c #6A981C",
"_ 	c #69961A",
": 	c #63911B",
"< 	c #66941C",
"[ 	c #6B9A1E",
"} 	c #618C17",
"| 	c #5F8A16",
"1 	c #618E19",
"2 	c #649119",
"3 	c #608A16",
"4 	c #69961B",
"5 	c #709E1D",
"6 	c #68961B",
"7 	c #5E8916",
"8 	c #68971D",
"9 	c #679219",
"0 	c #6A971C",
"a 	c #669219",
"b 	c #67961C",
"c 	c #68951A",
"d 	c #65931B",
"e 	c #5D8715",
"f 	c #638F19",
"g 	c #628E19",
"h 	c #669118",
"i 	c #67941B",
"j 	c #64921B",
"k 	c #5C8715",
"l 	c #63901A",
"m 	c #638F18",
"n 	c #5F8C18",
"o 	c #618F1A",
"p 	c #5E8B18",
"q 	c #628F19",
"r 	c #628F1A",
"s 	c #6B981C",
"t 	c #608C18",
"u 	c #5C8615",
"v 	c #618D19",
"w 	c #65921A",
"x 	c #5E8815",
"y 	c #62901A",
"z 	c #66941B",
"A 	c #618B17",
"B 	c #628D18",
"C 	c #5F8915",
"D 	c #618A15",
"E 	c #68971C",
"F 	c #6C9A1D",
"G 	c #5E8714",
"H 	c #608C17",
"I 	c #6A961A",
"J 	c #68961C",
"K 	c #5F8A17",
"L 	c #618E1A",
"M 	c #6B9A1D",
"N 	c #68941A",
"O 	c #69981D",
"P 	c #638E17",
"Q 	c #66931B",
"R 	c #65931A",
"S 	c #608D18",
"T 	c #080708",
"U 	c #030204",
"V 	c #040609",
"W 	c #090506",
"X 	c #17080B",
"Y 	c #490C10",
"Z 	c #27070A",
"` 	c #550D13",
" .	c #E71E2B",
"..	c #721015",
"+.	c #430A0D",
"@.	c #A31620",
"#.	c #A01419",
"$.	c #05090D",
"%.	c #181719",
"&.	c #141314",
"*.	c #0A0A0B",
"=.	c #1B1B1C",
"-.	c #050E13",
";.	c #0D3446",
">.	c #061720",
",.	c #081F29",
"'.	c #0D3548",
").	c #35596A",
"!.	c #285569",
"~.	c #0E3D52",
"{.	c #526C78",
"].	c #0B2B3B",
"^.	c #1EA4DC",
"/.	c #22ACE4",
"(.	c #1FA7E1",
"_.	c #1FABE5",
":.	c #1EA8DF",
"<.	c #104C65",
"[.	c #176789",
"}.	c #20A4DA",
"|.	c #28AFE6",
"1.	c #1C93C5",
"2.	c #07141D",
"3.	c #0F445C",
"4.	c #19769E",
"5.	c #187BA4",
"6.	c #1777A0",
"7.	c #176A8F",
"8.	c #1FAEE9",
"9.	c #20AEEA",
"0.	c #187EAA",
"a.	c #08212E",
"b.	c #1E9DD3",
"c.	c #1A82AD",
"d.	c #135A78",
"e.	c #1FB0ED",
"f.	c #21B0EA",
"g.	c #1A8BBA",
"h.	c #125977",
"i.	c #1DA0D6",
"j.	c #484748",
"k.	c #4A4A4B",
"l.	c #2B2B2C",
"m.	c #196D92",
"n.	c #444C51",
"o.	c #44474A",
"p.	c #316379",
"q.	c #1D96C9",
"r.	c #1A84B2",
"s.	c #F4F4F4",
"t.	c #FEFEFE",
"u.	c #8F8F90",
"v.	c #2F2F30",
"w.	c #E7E8E8",
"x.	c #7B7B7C",
"y.	c #206D90",
"z.	c #929293",
"A.	c #277697",
"B.	c #6A6A6B",
"C.	c #BCBCBD",
"D.	c #B2B2B2",
"E.	c #DCDCDC",
"F.	c #A2A2A2",
"G.	c #1D99CC",
"H.	c #36B4E7",
"I.	c #48BBE8",
"J.	c #3BB6E9",
"K.	c #379DC8",
"L.	c #09151D",
"M.	c #229ED2",
"N.	c #1B89B6",
"O.	c #424243",
"P.	c #EBEBEB",
"Q.	c #061A25",
"R.	c #232224",
"S.	c #C3C3C3",
"T.	c #6F6F70",
"U.	c #167096",
"V.	c #62C5ED",
"W.	c #74C7EA",
"X.	c #6FCAEE",
"Y.	c #73CAEE",
"Z.	c #63ADCD",
"`.	c #176D91",
" +	c #3F4D54",
".+	c #5F6061",
"++	c #3D0A0D",
"@+	c #9D9D9D",
"#+	c #2F6F8B",
"$+	c #50BEEA",
"%+	c #223B47",
"&+	c #0A2532",
"*+	c #1B1E21",
"=+	c #D3D3D3",
"-+	c #CACACA",
";+	c #DE1B21",
">+	c #951318",
",+	c #5E5E60",
"'+	c #2EB3E9",
")+	c #0C2F41",
"!+	c #747474",
"~+	c #E41B21",
"{+	c #BEBFC1",
"]+	c #646464",
"^+	c #17759C",
"/+	c #2F3033",
"(+	c #E2E3E3",
"_+	c #8D8D8D",
":+	c #5C5C5D",
"<+	c #0F0905",
"[+	c #AC151A",
"}+	c #D11A1F",
"|+	c #163646",
"1+	c #4D565C",
"2+	c #676768",
"3+	c #5DC3EB",
"4+	c #61BDE3",
"5+	c #485D65",
"6+	c #363536",
"7+	c #201E1F",
"8+	c #981419",
"9+	c #BC181D",
"0+	c #5F1417",
"a+	c #74CEF1",
"b+	c #66767E",
"c+	c #4B0C0F",
"d+	c #0C0F11",
"e+	c #122F3D",
"f+	c #ACACAC",
"g+	c #34B4E8",
"h+	c #34ABDA",
"i+	c #3C3B3C",
"j+	c #565656",
"k+	c #154258",
"l+	c #082836",
"m+	c #35090B",
"n+	c #4B616C",
"o+	c #091B24",
"p+	c #3C2C15",
"q+	c #3B707F",
"r+	c #51A5C8",
"s+	c #2E4652",
"t+	c #2DB1E6",
"u+	c #8A6126",
"v+	c #EFAA3A",
"w+	c #654F2A",
"x+	c #1D2226",
"y+	c #165977",
"z+	c #FDB33C",
"A+	c #5C4218",
"B+	c #6A4B1F",
"C+	c #C28930",
"D+	c #473315",
"E+	c #201F21",
"F+	c #1A313C",
"G+	c #1C8FC0",
"H+	c #2D98C5",
"I+	c #5997B2",
"J+	c #555A5D",
"K+	c #25292C",
"L+	c #4098BD",
"M+	c #3996BD",
"N+	c #6793A5",
"O+	c #888787",
"P+	c #0C1318",
"Q+	c #838383",
"R+	c #5F8814",
"S+	c #62901B",
"T+	c #6D9C1E",
"  . + @ # $ % & * = - ; + @ # $ % & * = - ; + @ # $ % & * = - ; + @ # $ % & * = - ; + @ # $ % & * = - ; + @ # $ % & * = - ; + @ # $ % & * = - ; + @ # $ % & * > ",
", ' * = ) ! * ~ { = ] ' * = ) ! * ~ { = ] ' * = ) ! * ~ { = ] ' * = ) ! * ~ { = ] ' * = ) ! * ~ { = ] ' * = ) ! * ~ { = ] ' * = ) ! * ~ { = ] ' * = ) ! * ~ { ^ ",
"/ ( _ : < [ }   | 1 2 ( _ : < [ }   | 1 2 ( _ : < [ }   | 1 2 ( _ : < [ }   | 1 2 ( _ : < [ }   | 1 2 ( _ : < [ }   | 1 2 ( _ : < [ }   | 1 2 ( _ : < [ }   3 > ",
"4 5 6 7 8 8 9 0 a b c 5 6 7 8 8 9 0 a b c 5 6 7 8 8 9 0 a b c 5 6 7 8 8 9 0 a b c 5 6 7 8 8 9 0 a b c 5 6 7 8 8 9 0 a b c 5 6 7 8 8 9 0 a b c 5 6 7 8 8 9 0 a d ",
"e f g h e e i < j e k ~ g h e e i < j e k ~ g h e e i < j e k ~ g h e e i < j e k ~ g h e e i < j e k ~ g h e e i < j e k ~ g h e e i < j e k ~ g h e e i < j k ",
"l | b 0 m n o p ! q q | b 0 m n o p ! q q | b 0 m n o p ! q q | b 0 m n o p ! q q | b 0 m n o p ! q q | b 0 m n o p ! q q | b 0 m n o p ! q q | b 0 m n o p ! q ",
"r s t t q n u v r 1 r s t t q n u v r 1 r s t t q n u v r 1 r s t t q n u v r 1 r s t t q n u v r 1 r s t t q n u v r 1 r s t t q n u v r 1 r s t t q n u v r r ",
"# d w i x w y [ z A ] z w i x w y [ z A ] z w i x w y [ z A ] z w i x w y [ z A ] z w i x w y [ z A ] z w i x w y [ z A ] z w i x w y [ z A ] z w i x w y [ z B ",
"C A : ! D E j { F } G H : ! D E j { F } G H : ! D E j { F } G H : ! D E j { F } G H : ! D E j { F } G H : ! D E j { F } G H : ! D E j { F } G H : ! D E j { F H ",
"I J 7 @ g n K L M t N J 7 @ g n K L M t N J 7 @ g n K L M t N J 7 @ g n K L M t N J 7 @ g n K L M t N J 7 @ g n K L M t N J 7 @ g n K L M t N J 7 @ g n K L M > ",
"  . O G u $ F P Q =   ; O G u $ F P Q =   ; O G u $ F P Q =   ; O G u $ F P Q =   ; O G u $ F P Q =   ; O G u $ F P Q =   ; O G u $ F P Q =   ; O G u $ F P R > ",
"] S * = ) ! j ~ { = ] ' * = ) ! j ~ { = ] ' * = ) ! j ~ { = ] ' * = ) ! j ~ { = ] ' * = ) ! j ~ { = ] ' * = ) ! j ~ { = ] ' * = ) ! j ~ { = ] ' * = ) ! j ~ { ^ ",
"/ ( _ : < [ }   | 1 2 ( _ : < [ }   | 1 2 ( _ : < [ }   | 1 2 ( _ : < [ }   | 1 2 ( _ : < [ }   | 1 2 ( _ : < [ }   | 1 2 ( _ : < [ }   | 1 2 ( _ : < [ }   3 > ",
"4 5 6 7 8 8 9 0 a b c 5 6 7 8 8 9 0 a b c 5 6 7 8 8 9 0 a b c 5 6 7 8 8 9 0 a b c 5 6 7 8 8 9 0 a b c 5 6 7 8 8 9 0 a b c 5 6 7 8 8 9 0 a b c 5 6 7 8 8 9 0 a d ",
"e f g h e e i < j e k ~ g h e e i < j e k ~ g h e e i < j e k ~ g h e e i < j e k ~ g h e e i < j e k ~ g h e e i < j e k ~ g h e e i < j e k ~ g h e e i < j k ",
"l | b 0 m n o p ! q q | b 0 m n o p ! q q | b 0 m n o p ! q q | b 0 m n o p ! q q | b 0 m n o p ! q q | b 0 m n o p ! q q | b 0 m n o p ! q q | b 0 m n o p ! q ",
"r s t t q n u v r 1 r s t t q n u v r 1 r s t t q n u v r 1 r s t t q n u v r 1 r s t t q n u v r 1 r s t t q n u v r 1 r s t t q n u v r 1 r s t t q n u v r r ",
"# d w i x w y [ z A ] z w i x w y [ z A ] z w i x w y T U V U U V W x w y [ z A ] z w i x w y [ z A ] z w i x w y [ z A ] z w i x w y [ z A ] z w i x w y [ z B ",
"C A : ! D E j { F } G H : ! D E j { F } G H : ! D E j V X Y Y Y Z V D E j { F } G H : ! D E j { F } G H : ! D E j { F } G H : ! D E j { F } G H : ! D E j { F H ",
"I J 7 @ g n K L M t N J 7 @ g n K L M t N J 7 @ g n K V `  . . ...U g n K L M t N J 7 @ g n K L M t N J 7 @ g n K L M t N J 7 @ g n K L M t N J 7 @ g n K L M > ",
"  . O G u $ F P Q =   ; O G u $ F P Q =   ; O G u $ F U +.@.@.#.` U $.$ F P Q =   ; O G u $ F P Q =   ; O G u $ F P Q =   ; O G u $ F P Q =   ; O G u $ F P R > ",
"] S * = ) ! j ~ { = ] ' * = ) ! j ~ { = ] ' * T U U U U U U W U U U U W U U U %.&.U U U U U U U U U U U U U U U U *.=.U U U U U U U U U U U U U W = ) ! j ~ { ^ ",
"/ ( _ : < [ }   | 1 2 ( _ : < [ }   | 1 2 ( _ T -.;.;.;.;.;.;.;.;.;.>.U ,.'.;.).!.;.;.;.;.;.;.'.;.;.;.;.;.'.;.;.;.~.{.'.;.;.;.;.;.'.;.'.;.;.].$.V : < [ }   3 > ",
"4 5 6 7 8 8 9 0 a b c 5 6 7 8 8 9 0 a b c 5 6 U ].^./.(._._._._.(.:.<.U [./././.}.(.(.:.(.(.(.(._./._.(.(.(._._./.|./.(.(.:./.:.(.(.(.(.(.(.1.2.U 7 8 8 9 0 a d ",
"e f g h e e i < j e k ~ g h e e i < j e k ~ g ;.3.4.5.5.5.5.5.6.1._.<.U 7.8._._._._._.8._._.9.^.0.0.5.5.5.0.5.5.6.1.8.8._.8.(.8._._._._._.8.1.2.T h e e i < j k ",
"l | b 0 m n o p ! q q | b 0 m n o p ! q q W a.b.c.-.T U V U V V d.e.<.U 7./.8._._._._._._.8.f.g.-.U U U U U U U U h.f.8._._.(.8._._.8._.(.8.1.2.U 0 m n o p ! q ",
"r s t t q n u v r 1 r s t t q n u v r 1 r W a.i.0.-.%.j.k.k.l.U d.8.<.U 7.e._._._._._._._.:.0.m.n.k.o.j.k.k.o.j.j.p.5.q._._._._._._._._.8._.1.2.W t q n u v r r ",
"# d w i x w y [ z A ] z w i x w y [ z A ] U ,.^.r.U o.s.s.t.u.U d.e.<.U 7._._.(._.(._.(.8.1.2.v.w.t.t.t.t.t.t.t.t.x.U d.8._._._._.(._.(._._.1.2.U i x w y [ z B ",
"C A : ! D E j { F } G H : ! D E j { F } G ;.~.6.y.o.x.t.t.t.z.U d.8.<.U 7.8._._._._.8.(.r.A.n.B.s.s.C.C.C.C.D.E.t.F.o.p.0.G.8._.H.I.I.H.J.H.K.L.T ! D E j { F H ",
"I J 7 @ g n K L M t N J 7 @ g n K L M U >.M.N.2.O.P.t.t.t.t.D.&.d./.<.U 7.8._._._._.8.b.Q.R.E.t.t.S.&.V $.*.W B.t.t.t.T.U U.e._.V.W.X.X.Y.X.Z.L.U @ g n K L M > ",
"  . O G u $ F P Q =   ; O G u $ F P Q U >.M.g.-.O.s.t.t.t.t.F.*.d._.<.U `.8._._.8.(.N.6. +.+P.t.t.S.-.X ++Z U B.t.t.t.@+O.#+0.b.$+V.V.$+$+V.Z.>.U G u $ F P R > ",
"] S * = ) ! j ~ { = ] ' * = ) ! j ~ { U >.M.1.$.%+s.t.t.t.t.z.U d.e.<.U `.8._._.8.b.&+*+=+t.t.t.t.-+*.+.;+>+U B.t.t.t.t.s.,+V 6.9./.|././.'+K.2.T = ) ! j ~ { ^ ",
"/ ( _ : < [ }   | 1 2 ( _ : < [ }   | )+~.6.A.o.!+t.t.t.t.t.z.U d._.<.U 7.8._._.8.b.a.=.E.s.S.C.C.u.-.+.~+>+U k.{+C.C.E.t.]+U ^+8.8.8.(.8.8.1.2.U : < [ }   3 > ",
"4 5 6 7 8 8 9 0 a b c 5 6 7 8 8 9 *.L.1.1.>./+(+s.t.t.t.t.t.z.U d.8.<.U 7./._._.8.b.a.=.E.E.R.*.*.T U +.~+>+U V *.$.$._+t.:+U ^+/.8.(.8.(.8.1.>.U 7 8 8 9 0 a d ",
"e f g h e e i < j e k ~ g h e e i *.2.q.1.2.l.P.t.t.t.t.t.t.z.U d.8.<.U 7.9._._./.b.,.=.E.E.*+<+++++++..~+[++++.++Z U _+t.:+U ^+8._._.(.8.8.1.2.T h e e i < j k ",
"l | b 0 m n o p ! q q | b 0 m n o W 2.G.q.-.l.w.t.t.t.t.t.t.z.U d.8.<.U 7.f.'+/./.}.&+=.E.E.*+Z }+~+;+~+~+~+~+~+~+..U _+t.:+U ^+8._._._.(.8.1.2.U 0 m n o p ! q ",
"r s t t q n u v r 1 r s t t q n u |+'.4.A.1+2+s.t.t.t.t.t.t.z.U d.8.<.U #+V.X.3+3+4+5+6+E.E.7+Z 8+[+[+9+~+}+[+[+[+0+R.u.t..+U ^+8.(._._._.8.1.2.U t q n u v r r ",
"# d w i x w y [ z A ] z w i x T -.r.q.Q.l.(+t.t.t.t.t.t.t.t.z.U d./.<.U #+a+X.a+X.W.b+O.E.E.%.W W W W c+~+8+W U W d+6+u.t.,+U ^+9._.8._._./.1.2.U i x w y [ z B ",
"C A : ! D E j { F } G H : ! D e+'.1.G.>.=.f+S.S.{+{+S.C.{+S.B.U d.8.<.U y.g+g+g+H.h+5+i+E.(+j+%+O.6+W +.~+8+U =.O.O.o.f+t.:+U ^+8._.8._._.8.1.>.W ! D E j { F H ",
"I J 7 @ g n K L M t N J 7 T *.c.(.(.G.>.W *.W *.*.*.*.*.*.*.T U h.e.<.U `.8._.8./.}.a.=.E.t.t.s.s.C.*.Y ~+8+U 2+s.s.s.t.t.:+U ^+8.8.(._._._.1.2.U @ g n K L M > ",
"  . O G u $ F P Q =   ; O e+;.g.8._.b.k+l+].].].].].].].].].].].`.8.<.U 7.8._._.8.i.3.|+f+-+t.t.t.S.*.m+[+..U B.t.t.t.E.C.n+].c.8._._.8.(.8.1.>.U G u $ F P R > ",
"] S * = ) ! j ~ { = ] *.W 4.:._._._._.^.^.^.^.:.^.^.(.^.:.:.^.^.:._.<.U 7.f._._._._.^.M.o+v.w.t.t.-+*.U W U U B.t.t.t.x.*.7.(./._._._._.8.8.1.2.W = ) ! j ~ { ^ ",
"/ ( _ : < [ }   | 1 2 e+].c._._._././._._._._._.8._._._._._._._._._.<.U 7.8._._._._./.b.~.%+D.-+t.=+j.i+i+O.i+u.t.E.S.b+l+0./._.(._._._.(._.1.2.U : < [ }   3 > ",
"4 5 6 7 8 8 9 0 a U V `././._._.:._._./._._._._.(.8.(._._.(././._._.<.U 7._._._._._._.(./.g.>.6+s.t.t.s.t.s.s.t.t._+W d.:.(._._._._._././.8.1.2.W 7 8 8 9 0 a d ",
"e f g h e e i < j p+p+q+r+i.8._._.:._.8._._._._._._._._._._.$+g+(._.<.U 7._._._._._._.8.8.G.;.s+{+=+C.S.S.S.S.S.S.b+&+U.8._._._._._./.$+t+_.1.2.U h e e i < j k ",
"l | b 0 m n o p V u+v+w+x+^+8._._._._._._._._._._._._._._._.H.|._._.<.U 7._._._._._._._._._./.r.x+R.d+*.d+*.*.*.W y+(.(._._._._._._._.J./.8.1.2.V 0 m n o p ! q ",
"r s t t q n u v U u+z+A+V ^+8._._._._._._._._._.(.8._._._._._._._._.<.U 7.8._._._._._._._._.8.1.;.].].].].].].].].7.8.8._._.8._._._.8._./.8.1.>.U t q n u v r r ",
"# d w i x w y [ U u+z+A+V ^+8.8.8._.8.8.8._._._.8.8.(._._.8._._._.8.<.U 7.e._._._._._._._._.(.8.^.i.}.}.(.b.^.^.b./.8.8.8.8.8.8.8.8.(._._.8.1.2.W i x w y [ z B ",
"C A : ! D E j { V B+C+D+V ^+_.g.r.r.r.r.r.r.g.(.8.8._._._._._._._._.<.U `.8._._._._._._._._._._.(.(.8._._._._._.8.G.c.r.r.r.r.r.N.M.8._._.8.1.2.U ! D E j { F H ",
"I J 7 @ g n K L U W <+U V ^+(.;.V $.$.$.$.V &+b.8._._._._._._._._.(.<.U 7.e._._./._._._._._._._.8.8._._._._._._.e.d.T $.$.$.$.$.-.0.e.8._._.1.>.W @ g n K L M > ",
"  . O G u $ F P W >.].l+].[.c.%+7+R.*+R.*+E+F+0.G+(._._._._._._._._.<.U 7.8._._._._._._._._._._._._._.(._._._.M.H+y+7+R.R.R.*+*+R.7.g.^._.8.1.>.W G u $ F P R > ",
"] S * = ) ! j ~ U d.:.:.}.~.-.:+x.x.x.x.x._+B.&.;.:.8._.f._._.8._.e.<.U 7.f._.g+'+_._.e._._.f._._.f._._._._.'+I+J+x.F.F.@+_+x.x.!+K+2.g.8.8.1.>.U = ) ! j ~ { ^ ",
"/ ( _ : < [ }   W <.g.N.N.].T ]+x.B.B.2+!+@+T.d+&+c.N.N.N.N.N.N.g.g.k+U h.g.N.L+M+g.g.g.N.N.N.g.g.N.N.N.g.N.H+N+,+O+D.F.F.O+2+x.x.E+*.m.N.N.^+2.V : < [ }   3 > ",
"4 5 6 7 8 8 9 0 V $.-.-.-.W *.]+x.R.*.*.=.x.B.*.T -.-.-.-.-.-.-.-.-.V U $.-.-.-.-.-.-.-.-.-.-.-.-.-.-.-.-.-.P+*+%.j+_+k.%+6+<+:+x.7+U d+-.-.-.U T 7 8 8 9 0 a d ",
"e f g h e e i < $.*.*.T $.W *.]+x.=.U U &.!+B.d+V T *.*.$.T T T $.T T T *.W T T W T T T $.W W T T *.T *.$.*.T W U O.Q+i+U U W j+N+p+U *.*.*.*.*.*.h e e i < j k ",
"l | b 0 m n o p ! q q | b *.*.]+x.%.U U &.!+B.d+*.n o p ! q q | b 0 m n o p ! q q | b 0 m n o p ! q q | b 0 m n U O.Q+i+U U W j+x.R.U p ! q q | b 0 m n o p ! q ",
"r s t t q n u v r 1 r s t *.*.]+x.v.%.%.l.!+B.d+*.n u v r 1 r s t t q n u v r 1 r s t t q n u v r 1 r s t t q n U O.Q+k.%.%.=..+x.l.U v r 1 r s t t q n u v r r ",
"# d w i x w y [ z A ] z w *.$.]+Q+x.x.x.x.Q+B.*.*.w y [ z A ] z w i x w y [ z A ] z w i x w y [ z A ] z w i x w U O.Q+x.x.x.x.Q+x.R.U [ z A ] z w i x w y [ z B ",
"C A : ! D E j { F } G H : d+d+j+B.B.B.B.B.B.:+&.d+E j { F } G H : ! D E j { F } G H : ! D E j { F } G H : ! D E W  +]+2+B.B.2+2+2+l.*.{ F } G H : ! D E j { F H ",
"I J 7 @ g n K L M t N J 7 @ g &.*.*.*.*.*.*.&.@ g n K L M t N J 7 @ g n K L M t N J 7 @ g n K L M t N J 7 @ g n K &.<+*.*.*.*.*.d+n K L M t N J 7 @ g n K L M > ",
"  . O G u $ F P Q =   ; O G u *.*.*.T $.*.*.*.G u $ F P Q =   ; O G u $ F P Q =   ; O G u $ F P Q =   ; O G u $ F P $.*.*.*.*.T *.$ F P Q =   ; O G u $ F P R > ",
"] S * = ) ! j ~ { = ] ' * = ) ! j ~ { = ] ' * = ) ! j ~ { = ] ' * = ) ! j ~ { = ] ' * = ) ! j ~ { = ] ' * = ) ! j ~ { = ] ' * = ) ! j ~ { = ] ' * = ) ! j ~ { ^ ",
"/ ( _ : < [ }   | 1 2 ( _ : < [ }   | 1 2 ( _ : < [ }   | 1 2 ( _ : < [ }   | 1 2 ( _ : < [ }   | 1 2 ( _ : < [ }   | 1 2 ( _ : < [ }   | 1 2 ( _ : < [ }   3 > ",
"4 5 6 7 8 8 9 0 a b c 5 6 7 8 8 9 0 a b c 5 6 7 8 8 9 0 a b c 5 6 7 8 8 9 0 a b c 5 6 7 8 8 9 0 a b c 5 6 7 8 8 9 0 a b c 5 6 7 8 8 9 0 a b c 5 6 7 8 8 9 0 a d ",
"e f g h e e i < j e k ~ g h e e i < j e k ~ g h e e i < j e k ~ g h e e i < j e k ~ g h e e i < j e k ~ g h e e i < j e k ~ g h e e i < j e k ~ g h e e i < j k ",
"l | b 0 m n o p ! q q | b 0 m n o p ! q q | b 0 m n o p ! q q | b 0 m n o p ! q q | b 0 m n o p ! q q | b 0 m n o p ! q q | b 0 m n o p ! q q | b 0 m n o p ! q ",
"r s t t q n u v r 1 r s t t q n u v r 1 r s t t q n u v r 1 r s t t q n u v r 1 r s t t q n u v r 1 r s t t q n u v r 1 r s t t q n u v r 1 r s t t q n u v r r ",
"# d w i x w y [ z A ] z w i x w y [ z A ] z w i x w y [ z A ] z w i x w y [ z A ] z w i x w y [ z A ] z w i x w y [ z A ] z w i x w y [ z A ] z w i x w y [ z B ",
"C A : ! D E j { F } G H : ! D E j { F } G H : ! D E j { F } G H : ! D E j { F } G H : ! D E j { F } G H : ! D E j { F } G H : ! D E j { F } G H : ! D E j { F H ",
"I J 7 @ g n K L M t N J 7 @ g n K L M t N J 7 @ g n K L M t N J 7 @ g n K L M t N J 7 @ g n K L M t N J 7 @ g n K L M t N J 7 @ g n K L M t N J 7 @ g n K L M > ",
"  . O G u $ F P Q =   ; O G u $ F P Q =   ; O G u $ F P Q =   ; O G u $ F P Q =   ; O G u $ F P Q =   ; O G u $ F P Q =   ; O G u $ F P Q =   ; O G u $ F P R > ",
"] S * = ) ! j ~ { = ] ' * = ) ! j ~ { = ] ' * = ) ! j ~ { = ] ' * = ) ! j ~ { = ] ' * = ) ! j ~ { = ] ' * = ) ! j ~ { = ] ' * = ) ! j ~ { = ] ' * = ) ! j ~ { ^ ",
"/ ( _ : < [ }   | 1 2 ( _ : < [ }   | 1 2 ( _ : < [ }   | 1 2 ( _ : < [ }   | 1 2 ( _ : < [ }   | 1 2 ( _ : < [ }   | 1 2 ( _ : < [ }   | 1 2 ( _ : < [ }   3 > ",
"4 5 6 7 8 8 9 0 a b c 5 6 7 8 8 9 0 a b c 5 6 7 8 8 9 0 a b c 5 6 7 8 8 9 0 a b c 5 6 7 8 8 9 0 a b c 5 6 7 8 8 9 0 a b c 5 6 7 8 8 9 0 a b c 5 6 7 8 8 9 0 a d ",
"e f g h e e i < j e k ~ g h e e i < j e k ~ g h e e i < j e k ~ g h e e i < j e k ~ g h e e i < j e k ~ g h e e i < j e k ~ g h e e i < j e k ~ g h e e i < j k ",
"l | b 0 m n o p ! q q | b 0 m n o p ! q q | b 0 m n o p ! q q | b 0 m n o p ! q q | b 0 m n o p ! q q | b 0 m n o p ! q q | b 0 m n o p ! q q | b 0 m n o p ! q ",
"r s t t q n u v r 1 r s t t q n u v r 1 r s t t q n u v r 1 r s t t q n u v r 1 r s t t q n u v r 1 r s t t q n u v r 1 r s t t q n u v r 1 r s t t q n u v r r ",
"# d w i x w y [ z A ] z w i x w y [ z A ] z w i x w y [ z A ] z w i x w y [ z A ] z w i x w y [ z A ] z w i x w y [ z A ] z w i x w y [ z A ] z w i x w y [ z B ",
"C H : ! D E j { M } R+H : ! D E j { M } R+H : ! D E j { M } R+H : ! D E j { M } R+H : ! D E j { M } R+H : ! D E j { M } R+H : ! D E j { M } R+H : ! D E j { M H ",
"I 6 k @ q > $ S+T+t N 6 k @ q > $ S+T+t N 6 k @ q > $ S+T+t N 6 k @ q > $ S+T+t N 6 k @ q > $ S+T+t N 6 k @ q > $ S+T+t N 6 k @ q > $ S+T+t N 6 k @ q > $ S+T+> "};
