/* XPM */
static char * exit_open_xpm[] = {
"80 80 236 2",
"  	c #638E18",
". 	c #67971E",
"+ 	c #69981D",
"@ 	c #5E8714",
"# 	c #5C8615",
"$ 	c #5D8816",
"% 	c #6C9A1D",
"& 	c #638E17",
"* 	c #66931B",
"= 	c #5E8917",
"- 	c #68971E",
"; 	c #65931A",
"> 	c #5F8B18",
", 	c #5B8514",
"' 	c #608D18",
") 	c #64921A",
"! 	c #5C8514",
"~ 	c #608B17",
"{ 	c #64921B",
"] 	c #639019",
"^ 	c #69971C",
"/ 	c #618D18",
"( 	c #5E8A17",
"_ 	c #659219",
": 	c #6A981C",
"< 	c #69961A",
"[ 	c #63911B",
"} 	c #66941C",
"| 	c #6B9A1E",
"1 	c #618C17",
"2 	c #5F8A16",
"3 	c #618E19",
"4 	c #649119",
"5 	c #608A16",
"6 	c #69961B",
"7 	c #709E1D",
"8 	c #68961B",
"9 	c #5E8916",
"0 	c #68971D",
"a 	c #679219",
"b 	c #6A971C",
"c 	c #669219",
"d 	c #67961C",
"e 	c #68951A",
"f 	c #65931B",
"g 	c #5D8715",
"h 	c #638F19",
"i 	c #628E19",
"j 	c #669118",
"k 	c #67941B",
"l 	c #5C8715",
"m 	c #63901A",
"n 	c #638F18",
"o 	c #5F8C18",
"p 	c #618F1A",
"q 	c #5E8B18",
"r 	c #628F19",
"s 	c #628F1A",
"t 	c #6B981C",
"u 	c #608C18",
"v 	c #618D19",
"w 	c #5C8614",
"x 	c #66941B",
"y 	c #628D18",
"z 	c #5F8915",
"A 	c #608C17",
"B 	c #6A961A",
"C 	c #6B9A1D",
"D 	c #65921A",
"E 	c #5E8815",
"F 	c #62901A",
"G 	c #618B17",
"H 	c #618A15",
"I 	c #68971C",
"J 	c #68961C",
"K 	c #5F8815",
"L 	c #5F8A17",
"M 	c #618E1A",
"N 	c #68941A",
"O 	c #E6D719",
"P 	c #327790",
"Q 	c #3198C0",
"R 	c #2D6579",
"S 	c #2A728A",
"T 	c #1C2D32",
"U 	c #122025",
"V 	c #3C5157",
"W 	c #D3D4D4",
"X 	c #D8D7D7",
"Y 	c #D3D7D8",
"Z 	c #D8D7D8",
"` 	c #979999",
" .	c #848484",
"..	c #8B8B8B",
"+.	c #B4B4B4",
"@.	c #D9D9D8",
"#.	c #D2BDBD",
"$.	c #CA6B6B",
"%.	c #CB8384",
"&.	c #CC6F71",
"*.	c #C97271",
"=.	c #C85655",
"-.	c #C02625",
";.	c #C41F1D",
">.	c #C63736",
",.	c #D2AEAE",
"'.	c #C5211E",
").	c #BB1E1C",
"!.	c #C84D4B",
"~.	c #CB7977",
"{.	c #CD7E7E",
"].	c #DF976E",
"^.	c #CFD0D1",
"/.	c #D7D8D7",
"(.	c #D4CDCD",
"_.	c #CEBCBC",
":.	c #BFC1C0",
"<.	c #BBBCBC",
"[.	c #CED0CF",
"}.	c #B7B8B8",
"|.	c #9D8077",
"1.	c #8F9090",
"2.	c #CCCCCC",
"3.	c #9FA0A0",
"4.	c #AFB0B0",
"5.	c #ABABAB",
"6.	c #C3C4C4",
"7.	c #636363",
"8.	c #000000",
"9.	c #949494",
"0.	c #545454",
"a.	c #3D3D3D",
"b.	c #4F5050",
"c.	c #4B4B4B",
"d.	c #CC999A",
"e.	c #CF9897",
"f.	c #A4A4A4",
"g.	c #444444",
"h.	c #5C5C5C",
"i.	c #6C6C6C",
"j.	c #797979",
"k.	c #767676",
"l.	c #8C7574",
"m.	c #D2B2B2",
"n.	c #D4C1C1",
"o.	c #D09292",
"p.	c #CEA4A3",
"q.	c #BC2524",
"r.	c #C7C8C8",
"s.	c #C86362",
"t.	c #C32E2C",
"u.	c #B4B1AF",
"v.	c #B28E8F",
"w.	c #CCC5C6",
"x.	c #B1ACAC",
"y.	c #A6A8A8",
"z.	c #9B9B9B",
"A.	c #A6A7A8",
"B.	c #B39696",
"C.	c #969897",
"D.	c #AEAFB0",
"E.	c #DDC4A7",
"F.	c #D8D1C7",
"G.	c #D4BFC0",
"H.	c #F39D3C",
"I.	c #E1C39D",
"J.	c #F2A64D",
"K.	c #F7972B",
"L.	c #D3AFB0",
"M.	c #D2B0AF",
"N.	c #CEABAC",
"O.	c #AA8D8C",
"P.	c #705856",
"Q.	c #5E4342",
"R.	c #704F50",
"S.	c #654948",
"T.	c #715251",
"U.	c #6A4D4C",
"V.	c #67504F",
"W.	c #957D7D",
"X.	c #B79A9A",
"Y.	c #9F8484",
"Z.	c #C4A4A3",
"`.	c #A28787",
" +	c #BA9B9B",
".+	c #A58A89",
"++	c #C9A7A8",
"@+	c #AE9190",
"#+	c #F7820E",
"$+	c #CF4023",
"%+	c #B92D2C",
"&+	c #B32927",
"*+	c #BA2826",
"=+	c #AC2A29",
"-+	c #A42928",
";+	c #C1302E",
">+	c #BD302D",
",+	c #B72D2B",
"'+	c #C62C24",
")+	c #E05411",
"!+	c #E88118",
"~+	c #DE994A",
"{+	c #E3681F",
"]+	c #BA201D",
"^+	c #AD1B1A",
"/+	c #B31D1B",
"(+	c #9F5649",
"_+	c #E06521",
":+	c #AE3938",
"<+	c #DD763E",
"[+	c #C53A39",
"}+	c #B83738",
"|+	c #AD3333",
"1+	c #B23535",
"2+	c #A35D5F",
"3+	c #D5C7BF",
"4+	c #CBB5B5",
"5+	c #B8A7A8",
"6+	c #BCABAC",
"7+	c #C1B1B1",
"8+	c #2B2B2B",
"9+	c #131313",
"0+	c #1C1C1C",
"a+	c #010101",
"b+	c #0B0B0B",
"c+	c #232323",
"d+	c #333333",
"e+	c #D5CFC6",
"f+	c #C44C4C",
"g+	c #BB4948",
"h+	c #B14645",
"i+	c #AC4342",
"j+	c #C09F9F",
"k+	c #BFA1A1",
"l+	c #62901B",
"m+	c #6D9C1E",
"  . + @ # $ % & * =   - + @ # $ % & * =   - + @ # $ % & * =   - + @ # $ % & * =   - + @ # $ % & * =   - + @ # $ % & * =   - + @ # $ % & * =   - + @ # $ % & ; > ",
", ' ) = ! ~ { ] ^ = , / ) = ! ~ { ] ^ = , / ) = ! ~ { ] ^ = , / ) = ! ~ { ] ^ = , / ) = ! ~ { ] ^ = , / ) = ! ~ { ] ^ = , / ) = ! ~ { ] ^ = , / ) = ! ~ { ] ^ ( ",
"_ : < [ } | 1   2 3 4 : < [ } | 1   2 3 4 : < [ } | 1   2 3 4 : < [ } | 1   2 3 4 : < [ } | 1   2 3 4 : < [ } | 1   2 3 4 : < [ } | 1   2 3 4 : < [ } | 1   5 > ",
"6 7 8 9 0 0 a b c d e 7 8 9 0 0 a b c d e 7 8 9 0 0 a b c d e 7 8 9 0 0 a b c d e 7 8 9 0 0 a b c d e 7 8 9 0 0 a b c d e 7 8 9 0 0 a b c d e 7 8 9 0 0 a b c f ",
"g h i j g g k } { g l ] i j g g k } { g l ] i j g g k } { g l ] i j g g k } { g l ] i j g g k } { g l ] i j g g k } { g l ] i j g g k } { g l ] i j g g k } { l ",
"m 2 d b n o p q ~ r r 2 d b n o p q ~ r r 2 d b n o p q ~ r r 2 d b n o p q ~ r r 2 d b n o p q ~ r r 2 d b n o p q ~ r r 2 d b n o p q ~ r r 2 d b n o p q ~ r ",
"s t u u r o # v s 3 s t u u r o # v s 3 s t u u r o # v s 3 s t u u r o # v s 3 s t u u r o # v s 3 s t u u r o # v s 3 s t u u r o # v s 3 s t u u r o # v s s ",
"w : < [ } | 1   2 3 4 : < [ } | 1   2 3 4 : < [ } | 1   2 3 4 : < [ } | 1   2 3 4 : < [ } | 1   2 3 4 : < [ } | 1   2 3 4 : < [ } | 1   2 3 4 : < [ } | 1   x y ",
"z 7 8 9 0 0 a b c d e 7 8 9 0 0 a b c d e 7 8 9 0 0 a b c d e 7 8 9 0 0 a b c d e 7 8 9 0 0 a b c d e 7 8 9 0 0 a b c d e 7 8 9 0 0 a b c d e 7 8 9 0 0 a b % A ",
"B h i j g g k } { g l ] i j g g k } { g l ] i j g g k } { g l ] i j g g k } { g l ] i j g g k } { g l ] i j g g k } { g l ] i j g g k } { g l ] i j g g k } C > ",
"  2 d b n o p q ~ r r 2 d b n o p q ~ r r 2 d b n o p q ~ r r 2 d b n o p q ~ r r 2 d b n o p q ~ r r 2 d b n o p q ~ r r 2 d b n o p q ~ r r 2 d b n o p q ; > ",
", t u u r o # v s 3 s t u u r o # v s 3 s t u u r o # v s 3 s t u u r o # v s 3 s t u u r o # v s 3 s t u u r o # v s 3 s t u u r o # v s 3 s t u u r o # v ^ ( ",
"_ f D k E D F | x G , x D k E D F | x G , x D k E D F | x G , x D k E D F | x G , x D k E D F | x G , x D k E D F | x G , x D k E D F | x G , x D k E D F | 5 > ",
"6 G [ ~ H I { ^ % 1 @ A [ ~ H I { ^ % 1 @ A [ ~ H I { ^ % 1 @ A [ ~ H I { ^ % 1 @ A [ ~ H I { ^ % 1 @ A [ ~ H I { ^ % 1 @ A [ ~ H I { ^ % 1 @ A [ ~ H I { ^ c f ",
"g J 9 K i o L M C u N J 9 K i o L M C u N J 9 K i o L M C u N J 9 K i o L M C u N J 9 K i o L M C u N J 9 K i o L M C u N J 9 K i o L M C u N J 9 K i o L M { l ",
"m . + @ # $ % & * =   - + @ # $ % & * =   - + @ # $ % & * =   - + @ # $ % & * =   - + @ # $ % & * =   - + @ # $ % & * =   - + @ # $ % & * =   - + @ # $ % & ~ r ",
"s / ) = ! ~ ) ] ^ = , / ) = ! ~ ) ] ^ = , / ) = ! ~ ) ] ^ = , / ) = ! ~ ) ] ^ = , / ) = ! ~ ) ] ^ = , / ) = ! ~ ) ] ^ = , / ) = ! ~ ) ] ^ = , / ) = ! ~ # v s s ",
"w : < [ } | 1   2 3 4 : < [ } | 1   2 3 4 : < [ } | 1   2 3 4 : < [ } | 1   2 3 4 : < [ } | 1   2 3 4 : < [ } | 1   2 3 4 : < [ } | 1   2 3 4 : < [ } | F | x y ",
"z 7 8 9 0 0 a b c d e 7 8 9 0 0 a b c d e 7 8 9 0 0 a b c d e 7 8 9 0 0 a b c d e 7 8 9 0 O O b c d e 7 8 9 0 0 a b c d e 7 8 9 0 0 a b c d e 7 8 9 0 0 { ^ % A ",
"B h i j g g k } { g l ] i j g g k } { g l ] i j g g k } { g l ] i j g g k O O g l ] i j O O k } { g l ] i O O O k } { g l ] i j g g k } { g l ] i j g g L M C > ",
"  2 d b n o p q ~ r r 2 d b n o p q ~ r r 2 d b n o p q ~ r r 2 O O n o p q O r r 2 d b O o p q ~ r r 2 O O n o p q ~ r r 2 d b n o p q ~ r r 2 d b n o % & ; > ",
", t u u r o # v s 3 s t u u r o # v s 3 s t u u r o # v s 3 s t u O r o # v O 3 s t u O r o # v s 3 O O u u r o # v s 3 s t u u r o # v s 3 s t u u r o { ] ^ ( ",
"_ f D k E D F | x G , x D k E D F | x G , x D k E D O O x G , x D k O D F | O O , x D O E D F | x O , x D k E D F | x G , x D k E D F | x G , x D k E D 1   5 > ",
"6 G [ ~ H I { ^ % 1 @ A [ ~ H I { ^ % 1 @ A [ ~ H I { O O 1 @ A [ ~ H O { ^ % O @ A O O H I { ^ O 1 @ A [ ~ H I { ^ % 1 @ A [ ~ H I { ^ % 1 @ A [ ~ H I a b c f ",
"g J 9 K i o L M C u N J 9 K i o L M C u N J 9 K i o L M C O O J 9 K i O O M C O N J O K i o L O C u N J 9 K i o L O O O N J 9 K i o L M C u N J 9 K i o k } { l ",
"m . + @ # $ % & * =   - + @ # $ % & * =   - + @ # $ % & * = O O O @ # $ O O * O   O O @ # O O & * =   - + @ # O O & * =   - + @ # $ % & * =   - + @ # $ p q ~ r ",
"s ' ) = ! ~ { ] ^ = , / ) = ! ~ { ] ^ = , / ) = ! ~ { ] ^ = , / O O O ~ { O ^ O , O ) = O ~ { ] ^ = , / O O O ~ { ] ^ = , / ) = ! ~ { ] ^ = , / ) = ! ~ # v s s ",
"w : < [ } | 1   2 3 4 : < [ } | 1   2 3 4 : < [ } | 1   2 3 4 : < [ O O 1   2 3 4 : < [ } | 1   2 O O O O [ } | 1   2 3 4 : < [ } | 1   2 3 4 : < [ } | F | x y ",
"z 7 8 9 0 0 a b c d e 7 8 9 0 0 a b c d e 7 8 9 0 0 a b c d e 7 8 9 0 0 a b c d e 7 8 9 0 0 a O O O e 7 8 9 0 0 a b c d e 7 8 9 0 0 a b c d e 7 8 9 0 0 { ^ % A ",
"B h i j g g k } { g l ] i j g g k } { g l ] i j g g k } { g l ] i j g g k P Q Q Q Q Q j g g k O { g l ] i j g g k } { g l ] i j g g k } { g l ] i j g g L M C > ",
"  2 d b n o p q ~ r r 2 d b n o p q ~ r r 2 d b n o p q ~ r r 2 d b n o p R S S S S S b n o p q ~ r r 2 d b n o p q ~ r r 2 d b n o p q ~ r r 2 d b n o % & ; > ",
", t u u r o # v s 3 s t u u r o # v s 3 s t u u r o # v s 3 s t u u r o # v T U T V u u r o # v s 3 s t u u r o # v s 3 s t u u r o # v s 3 s t u u r o { ] ^ ( ",
"_ f D k E D F W W W W W W X W W W X W W X W W X W W Y Y Y Y W W W W W W W Z `  ...+.@.W Y W Y | x G , x D k E D F | x G , x D k E D F | x G , x D k E D 1   5 > ",
"6 G [ ~ H I W W W W W W W W W W W W W W W W W W W W W W W W W W W W W X W W W Z @.X W W Y W W W X 1 @ A [ ~ H I { ^ % 1 @ A [ ~ H I { ^ % 1 @ A [ ~ H I a b c f ",
"g J 9 K i o W W #.$.$.$.$.$.$.$.$.$.$.$.$.$.$.$.$.$.$.$.$.$.$.$.$.$.$.$.$.$.$.$.$.$.$.$.$.$.$.$.%.W @.J 9 K i o L M C u N J 9 K i o L M C u N J 9 K i o k } { l ",
"m . + @ # $ &.*.=.-.;.;.;.;.;.;.;.;.;.;.;.;.;.;.;.;.;.;.;.;.;.;.;.;.;.;.;.;.;.;.;.;.;.;.;.;.;.;.>.$.,.W + @ # $ % & * =   - + @ # $ % & * =   - + @ # $ p q ~ r ",
"s ' ) = ! ~ ;.;.;.;.;.;.;.;.;.'.;.;.;.;.;.;.;.;.;.).;.;.;.;.;.;.;.;.;.;.;.;.;.;.;.;.;.;.).).;.;.;.;.!.#.) = ! ~ { ] ^ = , / ) = ! ~ { ] ^ = , / ) = ! ~ # v s s ",
"w : < [ } | ~.{.{.{.{.%.{.{.{.{.{.{.{.{.{.{.{.{.].{.{.{.{.{.{.{.{.{.{.{.{.{.{.{.{.{.{.{.].{.{.%.{.{.{.#.W [ } | 1   2 3 4 : < [ } | 1   2 3 4 : < [ } | F | x y ",
"z 7 8 9 0 0 W W X W W W W W Y W W X W X W W X W W W W X W W W W W W W X W X W W X W W W W W W W W W X W W W W 0 a b c d e 7 8 9 0 0 a b c d e 7 8 9 0 0 { ^ % A ",
"B h i j g g W W W W W W ^.W W W W W W W ^.Y W W W W W W W W X X X W X W X W X W ^.Y Y W W ^.Y Y /.X W X X X W X k } { g l ] i j g g k } { g l ] i j g g L M C > ",
"  2 d b n o W W W W (.W ^._.:.<._.<.:.<.<._.:.<.:.<.:.[.W }. . . . . . . . . . . .|. .1.2.Y 3.|. . . . . . .+.W p q ~ r r 2 d b n o p q ~ r r 2 d b n o % & ; > ",
", t u u r o ^.W W W W ^.}.4.}.}.<.}.}.<.<.}.<.}.<.}.5.<.6.7.8.8.8.8.8.8.8.8.8.8.8.8.8.8.9.+.0.a.b.b.c.b.b.a.7.6.W v s 3 s t u u r o # v s 3 s t u u r o { ] ^ ( ",
"_ f D k E D W W W W W 2.4.6.W W W W W d.e.W W W W W 6.+.f.g.8.8.8.8.8.8.8.8.8.8.8.8.8.8.h...V i.j.k.k.j.j.i.V l.2.X x G , x D k E D F | x G , x D k E D 1   5 > ",
"6 G [ ~ H I W W W W W 2.+.W W W W m.,.!.!.,.m.W W W (.}.f.0.8.8.8.8.8.8.8.8.8.8.8.8.8.8.7...h.j.k.k.j.k.k.j.7.c.` W X 1 @ A [ ~ H I { ^ % 1 @ A [ ~ H I a b c f ",
"g J 9 K i o W W W W W 2.+.W W W W ,.~.>.>.~.,.W W W W }.f.0.8.8.8.8.8.8.8.8.8.8.8.8.8.8.7. .h.j.k.k.j.k.k.j.i.0.h.5.W u N J 9 K i o L M C u N J 9 K i o k } { l ",
"m . + @ # $ W W W W W 2.+.(.W W n.o.!.;.;.!.o.n.W W ^.<.f.0.8.8.8.8.8.8.8.8.8.8.8.8.8.8.7...0.j.j.k.k.k.j.k.k.i.7.7.<.W   - + @ # $ % & * =   - + @ # $ p q ~ r ",
"s ' ) = ! ~ W W W [.W 2.}.W W W p.q.-.-.-.;.-.p.W W W }.3.0.8.8.8.8.8.8.8.8.8.8.8.8.8.8.7. .h.j.k.k.k.j.k.k.k.j.i.b.j.r.W / ) = ! ~ { ] ^ = , / ) = ! ~ # v s s ",
"w : < [ } | W W W W W 2.+.^.W W #.s.>.;.;.>.s.m.W W W <.f.c.8.8.8.8.8.8.8.8.8.8.8.8.8.8.7...0.j.j.k.k.k.j.k.j.j.k.i.0.5.X X < [ } | 1   2 3 4 : < [ } | F | x y ",
"z 7 8 9 0 0 W W ^.W W 2.}.^.W W W m.&.t.t.*.#.W W W (.}.f.g.8.8.8.8.8.8.8.8.8.8.8.8.8.8.7...h.k.k.j.k.j.j.j.i.i.k.k.b.f.u.W W 9 0 0 a b c d e 7 8 9 0 0 { ^ % A ",
"B h i j g g W W W W W (.+.W W W W p.e.!.!.d.v.W W W W }.f.g.8.8.8.8.8.8.8.8.8.8.8.8.8.8.7. .0.h.i.j.j.i.i.i.h.0.i.i.g. .7.+.W j g g k } { g l ] i j g g L M C > ",
"  2 d b n o W W W W W 2.+.W W ^.W (.(.*.*.w.5.2.W W W <.f.g.8.8.8.8.8.8.8.8.8.8.8.8.8.8.7...g.c.h.i.i.h.0.0.0.h.k.7.g...b.k.W W n o p q ~ r r 2 d b n o % & ; > ",
", t u u r o W W W ^.W (.4.2.W W W W r.x.+.r.f.+.+.^.+.+.f.g.8.8.8.8.8.8.8.8.8.8.8.8.8.8.b.k.g.g.c.0.0.c.0.0.c.c.h.0.a.9.k.h._.^.W o # v s 3 s t u u r o { ] ^ ( ",
"_ f D k E D W W W W W [.+.+.w.r.r.6.f.y.5.}.z.5.f.5.9.A.A.a.8.8.8.8.8.8.8.8.8.8.8.8.8.8.7...a.a.a.c.a.a.c.c.V a.a.a.a.9.h.a.1.Y W W F | x G , x D k E D 1   5 > ",
"6 G [ ~ H I W W W W ^.W w.+.+.+.+.4.1.z.5.5.1.4.B.` 9.6.<.7.8.8.8.8.8.8.8.8.8.8.8.8.8.8.C.D.i.b.h.0.c.h.0.0.b.0.h.h.k...h.h.3.W W W W ^ % 1 @ A [ ~ H I a b c f ",
"g J 9 K i o E.F.^.W W W W W ^.^.(.^.6.5.y.:.4.[.:.+.4.r.<...8.8.8.8.8.8.8.8.8.8.8.8.8.8.9.1.9...f.6.<.2.<.5.5.G.2.2.f.9.A.r.W W W W W W Y F.N J 9 K i o k } { l ",
"m . + @ # $ H.E.Z W W W W W X W W W [.:.` 3.` +.A.z.` 5.A.1.8.8.8.8.8.8.8.8.8.8.8.8.8.8.f.` 7.b.i.[.W [.<.+.4.:.2.r.y.D.4.<.Y Y W W W W X I.J.- + @ # $ p q ~ r ",
"s ' ) = ! ~ K.].L.,.m.L.M.m.,.L.m.N.O.P.Q.R.S.T.U.S.U.S.V.W.8.8.8.8.8.8.8.8.8.8.8.8.8.8.W.W.O.X.Y.Z.M.B.`. + +.+.+ +O.B.++@+N.m.,.,.m.m.m.].#+K.K.= ! ~ # v s s ",
"w : < [ } | #+$+t.t.t.t.t.t.t.t.t.t.%+&+*+*+&+*+*+*+*+&+=+=+8.8.8.8.8.8.8.8.8.8.8.8.8.8.-+=+&+;+>+>+t.>+>+;+;+,+,+;+=+,+t.%+>+t.t.t.t.t.t.'+)+!+~+F.} | F | x y ",
"z 7 8 9 0 0 {+t.;.'.'.'.'.'.;.'.'.'.'.'.'.'.-.'.-.'.'.'.]+^+8.8.8.8.8.8.8.8.8.8.8.8.8.8.^+/+/+;.'.-.'.'.'.'.'.'.'.'./+).'.;.;.'.'.;.;.;.;.'.'.(+W.6.0 0 { ^ % A ",
"B h i j g g _+'+;.;.;.'.;.'.;.;.;.;.;.;.'.'.'.'.;.;.'.'.).^+8.8.8.8.8.8.8.8.8.8.8.8.8.8.^+/+/+;.'.'.'.'.;.;.'.'.;.;.^+).;.-.;.;.;.;.;.;.;.;.;.q.:+l.y.g L M C > ",
"  2 d b n o <+!.[+[+>.[+[+[+[+[+[+[+[+[+>.[+[+>.[+[+[+[+}+|+8.8.8.8.8.8.8.8.8.8.8.8.8.8.|+1+1+[+>.[+[+[+[+[+>.[+>.>.|+}+>.[+>.>.[+[+[+[+[+[+[+[+[+2++.o % & ; > ",
", t u u r o 3+#.n.n.n.G.G.G.#._.#.#.G.G.#.G.3+#.n.n.n.n.4+5+8.8.8.8.8.8.8.8.8.8.8.8.8.8.5+6+7+G.G.G.3+#.n.n.G.n.G.G.6+4+G.G.n.n.G.G.n.n.G.n.n.n.n.n.(.o { ] ^ ( ",
"_ f D k E D W W W W W W W W r.:.D.5.5.5.5.+.r.W W W W W r.<.8.8.8.8.8.8.8.8.8.8.8.8.8.8.}.<.:.Y W W W W W W W W W W <.r.W W W X W W W W W W W W W W W D 1   5 > ",
"6 G [ ~ H I W W W (.W ^.W 2.+.9.8+9+0+0+9+c.z.6.W W W W r.<.8.8.8.8.8.8.8.8.8.8.8.8.8.8.}.<.G.W W W W W W W W W W ^.}.A.5.5.5.5.5.+.2.W W W W W W W W I a b c f ",
"g J 9 K i o +.+.+.+.}.+.+.5.0.0+a+a+a+a+a+b+0+..W W W W r.}.8.8.8.8.8.8.8.8.8.8.8.8.8.8.}.<.:.W W W W W W W W W W <.9.a.0+0+0+c+0+0.}.(.^.W [.W W 2.6.o k } { l ",
"m . + @ # $ h.h.7.7.7.h.g.d+b+0+b+9+b+a+c+8+9+ .2.(.n.n.4+u.8.8.8.8.8.8.8.8.8.8.8.8.8.8.x.6+6+e+n.n.n.n.n.n.(.W r.i.8+9+b+9+a+0+0+b+7.+.+.+.+.+.}.+. .$ p q ~ r ",
"s ' ) = ! 8+0+9+d+c.c.a.c+a+a+b+b+0+9+b+9+0+b+k.}.d.f+f+g+h+8.8.8.8.8.8.8.8.8.8.8.8.8.8.i+h+h+!.f+f+!.!.f+f+d.[. .9+a+b+0+9+b+b+c+a+9+a.c.7.7.7.7.7.g.~ # v s s ",
"w : < [ } b+a+0+d+d+d+d+c+a+a+0+b+g. .c.b+0+9+c+1.6+M.M.++j+8.8.8.8.8.8.8.8.8.8.8.8.8.8. +k+k+m.m.m.m.m.m.m.n.A.c+a+0+b+8+ .h.9+9+0+a+b+8+d+d+d+d+d+0+| F | x y ",
"z 7 8 9 0 b+b+c+d+8+8+8+b+a+b+0+c+h.7.h.0.8+8+b+a.f.6.X r.<.^.W ^.W ^.^.W W ^.W W W ^.2.}.6.:.W W W W W W W :...9+a+0+0+0.i.h.0.d+8+b+a+8+d+8+8+8+c+b+0 { ^ % A ",
"B h i j g 9+9+8+8+8+8+9+a+a+9+c+i.h.k.i.7.g.0+b+8+z.f.y.f.A.5.y.5.5.5.5.f.A.A.f.A.A.A.A.5.}.f.A.A.A.A.A.A.5.f.a.a+9+0+h.7.i.k.h.0.0+9+b+8+c+b+b+9+0+g g L M C > ",
"  2 d b n b+b+c+c+9+b+b+a+a+a+9+7.k.j.j.i.0.b+a+b+U c+c+8+g.g.c.c.g.c.c.c.c.c.c.c.c.c.c.c.c.c.c.c.c.c.g.g.g.g.9+a+a+b+h.i. .j.i.i.b+a+a+c+a+a+a+a+9+n o % & ; > ",
", t u u r o a+a+a+a+a+a+a+a+9+9+0.i.j.i.h.a.9+b+a+a+a+a+a+b+b+c+8+8+c+8+8+8+8+8+c+8+8+8+8+8+8+c+8+8+8+c+b+b+b+a+a+9+9+g.i.k.k.h.c.9+b+a+b+a+a+t u u r o { ] ^ ( ",
"_ f D k E D F a+a+a+a+a+a+a+0+c+8+0.7.7.i.9+0+b+a+a+a+a+a+a+a+a+b+b+b+b+b+b+a+b+b+b+b+b+b+a+b+b+b+b+b+b+a+a+a+a+a+9+8+c+c.7.h.k.c+9+0+| x G , x D k E D 1   5 > ",
"6 G [ ~ H I { ^ a+a+a+a+a+a+b+b+a+a.j.h.c+9+c+9+a+a+a+a+a+a+a+a+a+a+a+a+a+a+a+a+a+a+a+a+a+a+a+a+a+a+a+a+a+a+a+a+a+b+b+a+8+k.7.d+9+c+0+^ % 1 @ A [ ~ H I a b c f ",
"g J 9 K i o L M C u a+a+a+a+a+b+a+9+8+0+a+a+9+a+a+a+a+a+a+a+a+a+a+a+a+a+a+a+a+a+a+a+a+a+a+a+a+a+a+a+a+a+a+a+a+a+a+a+a+a+b+8+c+a+a+9+L M C u N J 9 K i o k } { l ",
"m . + @ # $ % & * =   - + a+a+0+0+c+b+9+0+9+b+a+a+a+a+a+a+a+a+a+a+a+a+a+a+a+a+a+a+a+a+a+a+a+a+a+a+a+a+a+a+a+a+a+a+a+9+c+0+9+9+0+b+9+% & * =   - + @ # $ p q ~ r ",
"s ' ) = ! ~ { ] ^ = , / ) = ! b+9+9+b+9+c+b+a+a+! ~ { ] ^ = , / ) = ! ~ { ] ^ = , / ) = ! ~ { ] ^ = , / ) = ! ~ { ] b+9+9+b+b+c+9+~ { ] ^ = , / ) = ! ~ # v s s ",
"w : < [ } | 1   2 3 4 : < [ } | a+a+a+a+b+: < [ } | 1   2 3 4 : < [ } | 1   2 3 4 : < [ } | 1   2 3 4 : < [ } | 1   2 3 a+a+a+b+} | 1   2 3 4 : < [ } | F | x y ",
"z 7 8 9 0 0 a b c d e 7 8 9 0 0 a b c d e 7 8 9 0 0 a b c d e 7 8 9 0 0 a b c d e 7 8 9 0 0 a b c d e 7 8 9 0 0 a b c d e 7 8 9 0 0 a b c d e 7 8 9 0 0 { ^ C A ",
"B 8 l K r > $ l+m+u N 8 l K r > $ l+m+u N 8 l K r > $ l+m+u N 8 l K r > $ l+m+u N 8 l K r > $ l+m+u N 8 l K r > $ l+m+u N 8 l K r > $ l+m+u N 8 l K r > $ l+m+> "};
