/* XPM */
static char * exit_closed_xpm[] = {
"80 80 241 2",
"  	c #638E18",
". 	c #67971E",
"+ 	c #6B9B1E",
"@ 	c #5F8815",
"# 	c #5C8614",
"$ 	c #5D8816",
"% 	c #6E9C1D",
"& 	c #648E17",
"* 	c #64921A",
"= 	c #5E8917",
"- 	c #628E18",
"; 	c #68971E",
"> 	c #5F8B18",
", 	c #5C8515",
"' 	c #618D18",
") 	c #5C8514",
"! 	c #608B17",
"~ 	c #639019",
"{ 	c #69971C",
"] 	c #5B8514",
"^ 	c #5E8A17",
"/ 	c #659219",
"( 	c #6A981C",
"_ 	c #69961A",
": 	c #63911B",
"< 	c #66941C",
"[ 	c #6B9A1E",
"} 	c #618C17",
"| 	c #5F8A16",
"1 	c #618E19",
"2 	c #649119",
"3 	c #608A16",
"4 	c #69961B",
"5 	c #709E1D",
"6 	c #68961B",
"7 	c #5E8916",
"8 	c #68971D",
"9 	c #679219",
"0 	c #6A971C",
"a 	c #669219",
"b 	c #67961C",
"c 	c #68951A",
"d 	c #65931B",
"e 	c #5D8715",
"f 	c #638F19",
"g 	c #628E19",
"h 	c #669118",
"i 	c #67941B",
"j 	c #64921B",
"k 	c #5C8715",
"l 	c #63901A",
"m 	c #638F18",
"n 	c #5F8C18",
"o 	c #618F1A",
"p 	c #5E8B18",
"q 	c #628F19",
"r 	c #628F1A",
"s 	c #6B981C",
"t 	c #608C18",
"u 	c #5C8615",
"v 	c #618D19",
"w 	c #65921A",
"x 	c #5E8815",
"y 	c #62901A",
"z 	c #66941B",
"A 	c #618B17",
"B 	c #628D18",
"C 	c #5F8915",
"D 	c #618A15",
"E 	c #68971C",
"F 	c #6C9A1D",
"G 	c #5E8714",
"H 	c #608C17",
"I 	c #6A961A",
"J 	c #68961C",
"K 	c #5F8A17",
"L 	c #618E1A",
"M 	c #6B9A1D",
"N 	c #68941A",
"O 	c #69981D",
"P 	c #638E17",
"Q 	c #66931B",
"R 	c #65931A",
"S 	c #608D18",
"T 	c #327790",
"U 	c #3198C0",
"V 	c #2D6579",
"W 	c #2A728A",
"X 	c #1C2D32",
"Y 	c #122025",
"Z 	c #3C5157",
"` 	c #D3D4D4",
" .	c #D8D7D7",
"..	c #D3D7D8",
"+.	c #D8D7D8",
"@.	c #979999",
"#.	c #848484",
"$.	c #8B8B8B",
"%.	c #B4B4B4",
"&.	c #D9D9D8",
"*.	c #D2BDBD",
"=.	c #CA6B6B",
"-.	c #CB8384",
";.	c #CC6F71",
">.	c #C97271",
",.	c #C85655",
"'.	c #C02625",
").	c #C41F1D",
"!.	c #C63736",
"~.	c #D2AEAE",
"{.	c #C5211E",
"].	c #BB1E1C",
"^.	c #C84D4B",
"/.	c #CB7977",
"(.	c #CD7E7E",
"_.	c #DF976E",
":.	c #CFD0D1",
"<.	c #D7D8D7",
"[.	c #D4CDCD",
"}.	c #CEBCBC",
"|.	c #BFC1C0",
"1.	c #BBBCBC",
"2.	c #CED0CF",
"3.	c #B7B8B8",
"4.	c #9D8077",
"5.	c #8F9090",
"6.	c #CCCCCC",
"7.	c #9FA0A0",
"8.	c #AFB0B0",
"9.	c #ABABAB",
"0.	c #C3C4C4",
"a.	c #636363",
"b.	c #3D3D3D",
"c.	c #4F5050",
"d.	c #4B4B4B",
"e.	c #444444",
"f.	c #949494",
"g.	c #545454",
"h.	c #CC999A",
"i.	c #CF9897",
"j.	c #A4A4A4",
"k.	c #797979",
"l.	c #767676",
"m.	c #6C6C6C",
"n.	c #5C5C5C",
"o.	c #8C7574",
"p.	c #D2B2B2",
"q.	c #D4C1C1",
"r.	c #D09292",
"s.	c #CEA4A3",
"t.	c #BC2524",
"u.	c #C7C8C8",
"v.	c #C86362",
"w.	c #C32E2C",
"x.	c #B4B1AF",
"y.	c #B28E8F",
"z.	c #CCC5C6",
"A.	c #B1ACAC",
"B.	c #A6A8A8",
"C.	c #9B9B9B",
"D.	c #A6A7A8",
"E.	c #333333",
"F.	c #B39696",
"G.	c #969897",
"H.	c #AEAFB0",
"I.	c #DDC4A7",
"J.	c #D8D1C7",
"K.	c #D4BFC0",
"L.	c #F39D3C",
"M.	c #E1C39D",
"N.	c #F2A64D",
"O.	c #F7972B",
"P.	c #D3AFB0",
"Q.	c #D2B0AF",
"R.	c #CEABAC",
"S.	c #AA8D8C",
"T.	c #705856",
"U.	c #5E4342",
"V.	c #704F50",
"W.	c #654948",
"X.	c #715251",
"Y.	c #6A4D4C",
"Z.	c #67504F",
"`.	c #957D7D",
" +	c #AE9190",
".+	c #AC908F",
"++	c #C4A4A3",
"@+	c #A58A89",
"#+	c #BA9B9B",
"$+	c #C09F9F",
"%+	c #BFA1A1",
"&+	c #9F8484",
"*+	c #B79A9A",
"=+	c #A28787",
"-+	c #C9A7A8",
";+	c #F7820E",
">+	c #CF4023",
",+	c #B92D2C",
"'+	c #B32927",
")+	c #BA2826",
"!+	c #AC2A29",
"~+	c #BD302D",
"{+	c #C1302E",
"]+	c #B72D2B",
"^+	c #A42928",
"/+	c #C62C24",
"(+	c #E05411",
"_+	c #E88118",
":+	c #DE994A",
"<+	c #E3681F",
"[+	c #BA201D",
"}+	c #AD1B1A",
"|+	c #B31D1B",
"1+	c #9F5649",
"2+	c #E06521",
"3+	c #AE3938",
"4+	c #DD763E",
"5+	c #C53A39",
"6+	c #B83738",
"7+	c #AD3333",
"8+	c #BC3837",
"9+	c #B23535",
"0+	c #A35D5F",
"a+	c #D5C7BF",
"b+	c #CBB5B5",
"c+	c #B8A7A8",
"d+	c #BCABAC",
"e+	c #C1B1B1",
"f+	c #2B2B2B",
"g+	c #131313",
"h+	c #1C1C1C",
"i+	c #010101",
"j+	c #0B0B0B",
"k+	c #232323",
"l+	c #D5CFC6",
"m+	c #C44C4C",
"n+	c #BB4948",
"o+	c #B14645",
"p+	c #AC4342",
"q+	c #62901B",
"r+	c #6D9C1E",
"  . + @ # $ % & * = - ; + @ # $ % & * = - ; + @ # $ % & * = - ; + @ # $ % & * = - ; + @ # $ % & * = - ; + @ # $ % & * = - ; + @ # $ % & * = - ; + @ # $ % & * > ",
", ' * = ) ! * ~ { = ] ' * = ) ! * ~ { = ] ' * = ) ! * ~ { = ] ' * = ) ! * ~ { = ] ' * = ) ! * ~ { = ] ' * = ) ! * ~ { = ] ' * = ) ! * ~ { = ] ' * = ) ! * ~ { ^ ",
"/ ( _ : < [ }   | 1 2 ( _ : < [ }   | 1 2 ( _ : < [ }   | 1 2 ( _ : < [ }   | 1 2 ( _ : < [ }   | 1 2 ( _ : < [ }   | 1 2 ( _ : < [ }   | 1 2 ( _ : < [ }   3 > ",
"4 5 6 7 8 8 9 0 a b c 5 6 7 8 8 9 0 a b c 5 6 7 8 8 9 0 a b c 5 6 7 8 8 9 0 a b c 5 6 7 8 8 9 0 a b c 5 6 7 8 8 9 0 a b c 5 6 7 8 8 9 0 a b c 5 6 7 8 8 9 0 a d ",
"e f g h e e i < j e k ~ g h e e i < j e k ~ g h e e i < j e k ~ g h e e i < j e k ~ g h e e i < j e k ~ g h e e i < j e k ~ g h e e i < j e k ~ g h e e i < j k ",
"l | b 0 m n o p ! q q | b 0 m n o p ! q q | b 0 m n o p ! q q | b 0 m n o p ! q q | b 0 m n o p ! q q | b 0 m n o p ! q q | b 0 m n o p ! q q | b 0 m n o p ! q ",
"r s t t q n u v r 1 r s t t q n u v r 1 r s t t q n u v r 1 r s t t q n u v r 1 r s t t q n u v r 1 r s t t q n u v r 1 r s t t q n u v r 1 r s t t q n u v r r ",
"# d w i x w y [ z A ] z w i x w y [ z A ] z w i x w y [ z A ] z w i x w y [ z A ] z w i x w y [ z A ] z w i x w y [ z A ] z w i x w y [ z A ] z w i x w y [ z B ",
"C A : ! D E j { F } G H : ! D E j { F } G H : ! D E j { F } G H : ! D E j { F } G H : ! D E j { F } G H : ! D E j { F } G H : ! D E j { F } G H : ! D E j { F H ",
"I J 7 @ g n K L M t N J 7 @ g n K L M t N J 7 @ g n K L M t N J 7 @ g n K L M t N J 7 @ g n K L M t N J 7 @ g n K L M t N J 7 @ g n K L M t N J 7 @ g n K L M > ",
"  . O G u $ F P Q =   ; O G u $ F P Q =   ; O G u $ F P Q =   ; O G u $ F P Q =   ; O G u $ F P Q =   ; O G u $ F P Q =   ; O G u $ F P Q =   ; O G u $ F P R > ",
"] S * = ) ! j ~ { = ] ' * = ) ! j ~ { = ] ' * = ) ! j ~ { = ] ' * = ) ! j ~ { = ] ' * = ) ! j ~ { = ] ' * = ) ! j ~ { = ] ' * = ) ! j ~ { = ] ' * = ) ! j ~ { ^ ",
"/ ( _ : < [ }   | 1 2 ( _ : < [ }   | 1 2 ( _ : < [ }   | 1 2 ( _ : < [ }   | 1 2 ( _ : < [ }   | 1 2 ( _ : < [ }   | 1 2 ( _ : < [ }   | 1 2 ( _ : < [ }   3 > ",
"4 5 6 7 8 8 9 0 a b c 5 6 7 8 8 9 0 a b c 5 6 7 8 8 9 0 a b c 5 6 7 8 8 9 0 a b c 5 6 7 8 8 9 0 a b c 5 6 7 8 8 9 0 a b c 5 6 7 8 8 9 0 a b c 5 6 7 8 8 9 0 a d ",
"e f g h e e i < j e k ~ g h e e i < j e k ~ g h e e i < j e k ~ g h e e i < j e k ~ g h e e i < j e k ~ g h e e i < j e k ~ g h e e i < j e k ~ g h e e i < j k ",
"l | b 0 m n o p ! q q | b 0 m n o p ! q q | b 0 m n o p ! q q | b 0 m n o p ! q q | b 0 m n o p ! q q | b 0 m n o p ! q q | b 0 m n o p ! q q | b 0 m n o p ! q ",
"r s t t q n u v r 1 r s t t q n u v r 1 r s t t q n u v r 1 r s t t q n u v r 1 r s t t q n u v r 1 r s t t q n u v r 1 r s t t q n u v r 1 r s t t q n u v r r ",
"# ( _ : < [ }   | 1 2 ( _ : < [ }   | 1 2 ( _ : < [ }   | 1 2 ( _ : < [ }   | 1 2 ( _ : < [ }   | 1 2 ( _ : < [ }   | 1 2 ( _ : < [ }   | 1 2 ( _ : < [ }   z B ",
"C 5 6 7 8 8 9 0 a b c 5 6 7 8 8 9 0 a b c 5 6 7 8 8 9 0 a b c 5 6 7 8 8 9 0 a b c 5 6 7 8 8 9 0 a b c 5 6 7 8 8 9 0 a b c 5 6 7 8 8 9 0 a b c 5 6 7 8 8 9 0 F H ",
"I f g h e e i < j e k ~ g h e e i < j e k ~ g h e e i < j e k ~ g h e e i < j e k ~ g h e e i < j e k ~ g h e e i < j e k ~ g h e e i < j e k ~ g h e e i < M > ",
"  | b 0 m n o p ! q q | b 0 m n o p ! q q | b 0 m n o p ! q q | b 0 m n o p ! q q | b 0 m n o p ! q q | b 0 m n o p ! q q | b 0 m n o p ! q q | b 0 m n o p R > ",
"] s t t q n u v r 1 r s t t q n u v r 1 r s t t q n u v r 1 r s t t q n u v r 1 r s t t q n u v r 1 r s t t q n u v r 1 r s t t q n u v r 1 r s t t q n u v { ^ ",
"/ d w i x w y [ z A ] z w i x w y [ z A ] z w i x w y [ z A ] z w i x w y [ z A ] z w i x w y [ z A ] z w i x w y [ z A ] z w i x w y [ z A ] z w i x w y [ 3 > ",
"4 A : ! D E j { F } G H : ! D E j { F } G H : ! D E j { F } G H : ! D E j { F } G H : ! D E j { F } G H : ! D E j { F } G H : ! D E j { F } G H : ! D E j { a d ",
"e J 7 @ g n K L M t N J 7 @ g n K L M t N J 7 @ g n K L M t N J 7 @ g n K L M t N J 7 @ g n K L M t N J 7 @ g n K L M t N J 7 @ g n K L M t N J 7 @ g n K L j k ",
"l . O G u $ F P Q =   ; O G u $ F P Q =   ; O G u $ F P Q =   ; O G u $ F P Q =   ; O G u $ F P Q =   ; O G u $ F P Q =   ; O G u $ F P Q =   ; O G u $ F P ! q ",
"r S * = ) ! j ~ { = ] ' * = ) ! j ~ { = ] ' * = ) ! j ~ { = ] ' * = ) ! j ~ { = ] ' * = ) ! j ~ { = ] ' * = ) ! j ~ { = ] ' * = ) ! j ~ { = ] ' * = ) ! j ~ r r ",
"# ( _ : < [ }   | 1 2 ( _ : < [ }   | 1 2 ( _ : < [ }   | 1 2 ( _ : < [ }   | 1 2 ( _ : < [ }   | 1 2 ( _ : < [ }   | 1 2 ( _ : < [ }   | 1 2 ( _ : < [ }   z B ",
"C A : 7 8 8 9 0 a b c 5 6 7 8 8 9 0 a b c 5 6 7 8 8 9 0 a b c 5 6 7 8 8 9 0 a b c 5 6 7 8 8 9 0 a b c 5 6 7 8 8 9 0 a b c 5 6 7 8 8 9 0 a b c 5 6 7 8 8 j { F H ",
"I J 7 h e e i < j e k ~ g h e e i < j e k ~ g h e e i < j e k ~ g h e e i T U U U U U h e e i < j e k ~ g h e e i < j e k ~ g h e e i < j e k ~ g h e e K L M > ",
"  . O 0 m n o p ! q q | b 0 m n o p ! q q | b 0 m n o p ! q q | b 0 m n o V W W W W W 0 m n o p ! q q | b 0 m n o p ! q q | b 0 m n o p ! q q | b 0 m n F P R > ",
"] S * t q n u v r 1 r s t t q n u v r 1 r s t t q n u v r 1 r s t t q n u v X Y X Z t t q n u v r 1 r s t t q n u v r 1 r s t t q n u v r 1 r s t t q n j ~ { ^ ",
"/ ( _ i x w y ` ` ` ` ` `  .` ` `  .` `  .` `  .` ` ........` ` ` ` ` ` ` +.@.#.$.%.&.` ..` ..[ z A ] z w i x w y [ z A ] z w i x w y [ z A ] z w i x w }   3 > ",
"4 5 6 ! D E ` ` ` ` ` ` ` ` ` ` ` ` ` ` ` ` ` ` ` ` ` ` ` ` ` ` ` ` `  .` ` ` +.&. .` ` ..` ` `  .} G H : ! D E j { F } G H : ! D E j { F } G H : ! D E 9 0 a d ",
"e f g @ g n ` ` *.=.=.=.=.=.=.=.=.=.=.=.=.=.=.=.=.=.=.=.=.=.=.=.=.=.=.=.=.=.=.=.=.=.=.=.=.=.=.=.-.` &.J 7 @ g n K L M t N J 7 @ g n K L M t N J 7 @ g n i < j k ",
"l | b G u $ ;.>.,.'.).).).).).).).).).).).).).).).).).).).).).).).).).).).).).).).).).).).).).).!.=.~.` O G u $ F P Q =   ; O G u $ F P Q =   ; O G u $ o p ! q ",
"r s t = ) ! ).).).).).).).).).{.).).).).).).).).).].).).).).).).).).).).).).).).).).).).].].).).).).^.*.* = ) ! j ~ { = ] ' * = ) ! j ~ { = ] ' * = ) ! u v r r ",
"# d w : < [ /.(.(.(.(.-.(.(.(.(.(.(.(.(.(.(.(.(._.(.(.(.(.(.(.(.(.(.(.(.(.(.(.(.(.(.(.(._.(.(.-.(.(.(.*.` : < [ }   | 1 2 ( _ : < [ }   | 1 2 ( _ : < [ y [ z B ",
"C A : 7 8 8 ` `  .` ` ` ` ` ..` `  .`  .` `  .` ` ` `  .` ` ` ` ` ` `  .`  .` `  .` ` ` ` ` ` ` ` `  .` ` ` ` 8 9 0 a b c 5 6 7 8 8 9 0 a b c 5 6 7 8 8 j { F H ",
"I J 7 h e e ` ` ` ` ` ` :.` ` ` ` ` ` ` :...` ` ` ` ` ` ` `  . . .`  .`  .`  .` :.....` ` :.....<. .`  . . .`  .i < j e k ~ g h e e i < j e k ~ g h e e K L M > ",
"  . O 0 m n ` ` ` ` [.` :.}.|.1.}.1.|.1.1.}.|.1.|.1.|.2.` 3.#.#.#.#.#.#.#.#.#.#.#.4.#.5.6...7.4.#.#.#.#.#.#.%.` o p ! q q | b 0 m n o p ! q q | b 0 m n F P R > ",
"] S * t q n :.` ` ` ` :.3.8.3.3.1.3.3.1.1.3.1.3.1.3.9.1.0.a.b.c.c.d.c.c.c.c.c.e.b.e.c.b.f.%.g.b.c.c.d.c.c.b.a.0.` v r 1 r s t t q n u v r 1 r s t t q n j ~ { ^ ",
"/ ( _ i x w ` ` ` ` ` 6.8.0.` ` ` ` ` h.i.` ` ` ` ` 0.%.j.e.a.k.k.k.l.k.l.k.l.a.a.m.l.g.n.$.Z m.k.l.l.k.k.m.Z o.6. .z A ] z w i x w y [ z A ] z w i x w }   3 > ",
"4 5 6 ! D E ` ` ` ` ` 6.%.` ` ` ` p.~.^.^.~.p.` ` ` [.3.j.g.l.l.k.l.l.l.l.l.k.l.k.l.k.m.a.$.n.k.l.l.k.l.l.k.a.d.@.`  .} G H : ! D E j { F } G H : ! D E 9 0 a d ",
"e f g @ g n ` ` ` ` ` 6.%.` ` ` ` ~./.!.!./.~.` ` ` ` 3.j.g.k.l.l.l.k.k.l.l.k.l.l.l.l.m.a.#.n.k.l.l.k.l.l.k.m.g.n.9.` t N J 7 @ g n K L M t N J 7 @ g n i < j k ",
"l | b G u $ ` ` ` ` ` 6.%.[.` ` q.r.^.).).^.r.q.` ` :.1.j.g.l.l.l.k.l.l.l.k.l.l.l.k.k.m.a.$.g.k.k.l.l.l.k.l.l.m.a.a.1.`   ; O G u $ F P Q =   ; O G u $ o p ! q ",
"r s t = ) ! ` ` ` 2.` 6.3.` ` ` s.t.'.'.'.).'.s.` ` ` 3.7.g.l.l.l.l.l.k.l.l.l.k.l.k.k.m.a.#.n.k.l.l.l.k.l.l.l.k.m.c.k.u.` ' * = ) ! j ~ { = ] ' * = ) ! u v r r ",
"# d w : < [ ` ` ` ` ` 6.%.:.` ` *.v.!.).).!.v.p.` ` ` 1.j.d.l.l.m.k.k.k.l.l.k.l.l.l.l.m.a.$.g.k.k.l.l.l.k.l.k.k.l.m.g.9. . ._ : < [ }   | 1 2 ( _ : < [ y [ z B ",
"C A : 7 8 8 ` ` :.` ` 6.3.:.` ` ` p.;.w.w.>.*.` ` ` [.3.j.e.n.l.a.l.m.l.k.l.l.k.l.l.l.m.a.$.n.l.l.k.l.k.k.k.m.m.l.l.c.j.x.` ` 7 8 8 9 0 a b c 5 6 7 8 8 j { F H ",
"I J 7 h e e ` ` ` ` ` [.%.` ` ` ` s.i.^.^.h.y.` ` ` ` 3.j.e.g.a.n.m.n.a.m.l.m.l.m.n.l.m.a.#.g.n.m.k.k.m.m.m.n.g.m.m.e.#.a.%.` h e e i < j e k ~ g h e e K L M > ",
"  . O 0 m n ` ` ` ` ` 6.%.` ` :.` [.[.>.>.z.9.6.` ` ` 1.j.e.g.e.n.m.n.n.a.a.g.m.m.g.a.a.a.$.e.d.n.m.m.n.g.g.g.n.l.a.e.$.c.l.` ` m n o p ! q q | b 0 m n F P R > ",
"] S * t q n ` ` ` :.` [.8.6.` ` ` ` u.A.%.u.j.%.%.:.%.%.j.e.g.e.d.c.n.a.a.d.d.g.g.g.g.d.c.l.e.e.d.g.g.d.g.g.d.d.n.g.b.f.l.n.}.:.` n u v r 1 r s t t q n j ~ { ^ ",
"/ ( _ i x w ` ` ` ` ` 2.%.%.z.u.u.0.j.B.9.3.C.9.j.9.f.D.D.b.b.b.e.b.b.d.e.e.e.e.e.b.e.E.a.$.b.b.b.d.b.b.d.d.Z b.b.b.b.f.n.b.5...` ` y [ z A ] z w i x w }   3 > ",
"4 5 6 ! D E ` ` ` ` :.` z.%.%.%.%.8.5.C.9.9.5.8.F.@.f.0.1.a.n.d.n.g.c.n.d.c.c.d.g.g.n.g.G.H.m.c.n.g.d.n.g.g.c.g.n.n.l.$.n.n.7.` ` ` ` { F } G H : ! D E 9 0 a d ",
"e f g @ g n I.J.:.` ` ` ` ` :.:.[.:.0.9.B.|.8.2.|.%.8.u.1.$.|.D.6.%.8.[.j.j.D.x.8.j.j.G.f.5.f.$.j.0.1.6.1.9.9.K.6.6.j.f.D.u.` ` ` ` ` ` ..J.N J 7 @ g n i < j k ",
"l | b G u $ L.I.+.` ` ` ` `  .` ` ` 2.|.@.7.@.%.D.C.@.9.D.5.6.D.z.1.%.2.H.0.u.6.3.$.n.a.j.@.a.c.m.2.` 2.1.%.8.|.6.u.B.H.8.1.....` ` ` `  .M.N.; O G u $ o p ! q ",
"r s t = ) ! O._.P.~.p.P.Q.p.~.P.p.R.S.T.U.V.W.X.Y.W.Y.W.Z.`.R. +.+++@+#+#+S.@+$+#+#+%+&+`.`.S.*+&+++Q.F.=+#+#+@+@+#+S.F.-+ +R.p.~.~.p.p.p._.;+O.O.= ) ! u v r r ",
"# d w : < [ ;+>+w.w.w.w.w.w.w.w.w.w.,+'+)+)+'+)+)+)+)+'+!+!+w.w.~+{+~+~+w.,+~+,+~+{+{+]+^+!+'+{+~+~+w.~+~+{+{+]+]+{+!+]+w.,+~+w.w.w.w.w.w./+(+_+:+J.< [ y [ z B ",
"C A : 7 8 8 <+w.).{.{.{.{.{.).{.{.{.{.{.{.{.'.{.'.{.{.{.[+}+{.{.{.{.{.{.).'.).{.'.).).t.}+|+|+).{.'.{.{.{.{.{.{.{.{.|+].{.).).{.{.).).).).{.{.1+`.0.8 8 j { F H ",
"I J 7 h e e 2+/+).).).{.).{.).).).).).).{.{.{.{.).).{.{.].}+{.{.{.).).).).{.{.{.).).).{.}+|+|+).{.{.{.{.).).{.{.).).}+].).'.).).).).).).).).).t.3+o.B.e K L M > ",
"  . O 0 m n 4+^.5+5+!.5+5+5+5+5+5+5+5+5+!.5+5+!.5+5+5+5+6+7+5+5+5+5+5+5+5+5+5+5+!.!.5+8+7+9+9+5+!.5+5+5+5+5+!.5+!.!.7+6+!.5+!.!.5+5+5+5+5+5+5+5+5+0+%.n F P R > ",
"] S * t q n a+*.q.q.q.K.K.K.*.}.*.*.K.K.*.K.a+*.q.q.q.q.b+c+a+*.q.q.q.q.q.q.K.q.q.q.q.}.c+d+e+K.K.K.a+*.q.q.K.q.K.K.d+b+K.K.q.q.K.K.q.q.K.q.q.q.q.q.[.n j ~ { ^ ",
"/ ( _ i x w ` ` ` ` ` ` ` ` u.|.H.9.9.9.9.%.u.` ` ` ` ` u.1.` ` ` ` ` ` ` ` ` ` ` `  .2.3.1.|...` ` ` ` ` ` ` ` ` ` 1.u.` ` `  .` ` ` ` ` ` ` ` ` ` ` w }   3 > ",
"4 5 6 ! D E ` ` ` [.` :.` 6.%.f.f+g+h+h+g+d.C.0.` ` ` ` u.1.` ` ` ` ` ` ` ` ` ` ` ` ` 2.3.1.K.` ` ` ` ` ` ` ` ` ` :.3.D.9.9.9.9.9.%.6.` ` ` ` ` ` ` ` E 9 0 a d ",
"e f g @ g n %.%.%.%.3.%.%.9.g.h+i+i+i+i+i+j+h+$.` ` ` ` u.3.` ` ` ` ` ..` :.` ` :.` ..2.3.1.|.` ` ` ` ` ` ` ` ` ` 1.f.b.h+h+h+k+h+g.3.[.:.` 2.` ` 6.0.n i < j k ",
"l | b G u $ n.n.a.a.a.n.e.E.j+h+j+g+j+i+k+f+g+#.6.[.q.q.b+x.q.q.q.q.q.z.q.q.q.q.q.q.q.K.A.d+d+l+q.q.q.q.q.q.[.` u.m.f+g+j+g+i+h+h+j+a.%.%.%.%.%.3.%.#.$ o p ! q ",
"r s t = ) f+h+g+E.d.d.b.k+i+i+j+j+h+g+j+g+h+j+l.3.h.m+m+n+o+m+m+m+m+m+m+m+m+m+m+m+m+m+n+p+o+o+^.m+m+^.^.m+m+h.2.#.g+i+j+h+g+j+j+k+i+g+b.d.a.a.a.a.a.e.! u v r r ",
"# d w : < j+i+h+E.E.E.E.k+i+i+h+j+e.#.d.j+h+g+k+5.d+Q.Q.-+$+p.p.p.p.p.p.p.p.p.p.b+P.P.R.#+%+%+p.p.p.p.p.p.p.q.D.k+i+h+j+f+#.n.g+g+h+i+j+f+E.E.E.E.E.h+[ y [ z B ",
"C A : 7 8 j+j+k+E.f+f+f+j+i+j+h+k+n.a.n.g.f+f+j+b.j.0. .u.1.:.` :.` :.:.` ` :.` ` ` :.6.3.0.|.` ` ` ` ` ` ` |.$.g+i+h+h+g.m.n.g.E.f+j+i+f+E.f+f+f+k+j+8 j { F H ",
"I J 7 h e g+g+f+f+f+f+g+i+i+g+k+m.n.l.m.a.e.h+j+f+C.j.B.j.D.9.B.9.9.9.9.j.D.D.j.D.D.D.D.9.3.j.D.D.D.D.D.D.9.j.b.i+g+h+n.a.m.l.n.g.h+g+j+f+k+j+j+g+h+e e K L M > ",
"  . O 0 m j+j+k+k+g+j+j+i+i+i+g+a.l.k.k.m.g.j+i+j+Y k+k+f+e.e.d.d.e.d.d.d.d.d.d.d.d.d.d.d.d.d.d.d.d.d.e.e.e.e.g+i+i+j+n.m.#.k.m.m.j+i+i+k+i+i+i+i+g+m n F P R > ",
"] S * t q n i+i+i+i+i+i+i+i+g+g+g.m.k.m.n.b.g+j+i+i+i+i+i+j+j+k+f+f+k+f+f+f+f+f+k+f+f+f+f+f+f+k+f+f+f+k+j+j+j+i+i+g+g+e.m.l.l.n.d.g+j+i+j+i+i+s t t q n j ~ { ^ ",
"/ ( _ i x w y i+i+i+i+i+i+i+h+k+f+g.a.a.m.g+h+j+i+i+i+i+i+i+i+i+j+j+j+j+j+j+i+j+j+j+j+j+j+i+j+j+j+j+j+j+i+i+i+i+i+g+f+k+d.a.n.l.k+g+h+[ z A ] z w i x w }   3 > ",
"4 5 6 ! D E j { i+i+i+i+i+i+j+j+i+b.k.n.k+g+k+g+i+i+i+i+i+i+i+i+i+i+i+i+i+i+i+i+i+i+i+i+i+i+i+i+i+i+i+i+i+i+i+i+i+j+j+i+f+l.a.E.g+k+h+{ F } G H : ! D E 9 0 a d ",
"e f g @ g n K L M t i+i+i+i+i+j+i+g+f+h+i+i+g+i+i+i+i+i+i+i+i+i+i+i+i+i+i+i+i+i+i+i+i+i+i+i+i+i+i+i+i+i+i+i+i+i+i+i+i+i+j+f+k+i+i+g+K L M t N J 7 @ g n i < j k ",
"l | b G u $ F P Q =   ; O i+i+h+h+k+j+g+h+g+j+i+i+i+i+i+i+i+i+i+i+i+i+i+i+i+i+i+i+i+i+i+i+i+i+i+i+i+i+i+i+i+i+i+i+i+g+k+h+g+g+h+j+g+F P Q =   ; O G u $ o p ! q ",
"r s t = ) ! j ~ { = ] ' * = ) j+g+g+j+g+k+j+i+i+) ! j ~ { = ] ' * = ) ! j ~ { = ] ' * = ) ! j ~ { = ] ' * = ) ! j ~ j+g+g+j+j+k+g+! j ~ { = ] ' * = ) ! u v r r ",
"# d w : < [ }   | 1 2 ( _ : < [ i+i+i+i+j+( _ : < [ }   | 1 2 ( _ : < [ }   | 1 2 ( _ : < [ }   | 1 2 ( _ : < [ }   | 1 i+i+i+j+< [ }   | 1 2 ( _ : < [ y [ z B ",
"C H : 7 8 8 9 0 a b c 5 6 7 8 8 9 0 a b c 5 6 7 8 8 9 0 a b c 5 6 7 8 8 9 0 a b c 5 6 7 8 8 9 0 a b c 5 6 7 8 8 9 0 a b c 5 6 7 8 8 9 0 a b c 5 6 7 8 8 j { M H ",
"I 6 k @ q > $ q+r+t N 6 k @ q > $ q+r+t N 6 k @ q > $ q+r+t N 6 k @ q > $ q+r+t N 6 k @ q > $ q+r+t N 6 k @ q > $ q+r+t N 6 k @ q > $ q+r+t N 6 k @ q > $ q+r+> "};
