/* XPM */
static char * test0_xpm[] = {
"80 80 318 2",
"  	c #638E18",
". 	c #67971E",
"+ 	c #6B9B1E",
"@ 	c #5F8815",
"# 	c #5C8614",
"$ 	c #5D8816",
"% 	c #6E9C1D",
"& 	c #648E17",
"* 	c #64921A",
"= 	c #5E8917",
"- 	c #628E18",
"; 	c #68971E",
"> 	c #5F8B18",
", 	c #5C8515",
"' 	c #618D18",
") 	c #5C8514",
"! 	c #608B17",
"~ 	c #639019",
"{ 	c #69971C",
"] 	c #5B8514",
"^ 	c #5E8A17",
"/ 	c #659219",
"( 	c #6A981C",
"_ 	c #69961A",
": 	c #63911B",
"< 	c #66941C",
"[ 	c #6B9A1E",
"} 	c #618C17",
"| 	c #5F8A16",
"1 	c #618E19",
"2 	c #649119",
"3 	c #608A16",
"4 	c #69961B",
"5 	c #709E1D",
"6 	c #68961B",
"7 	c #5E8916",
"8 	c #68971D",
"9 	c #679219",
"0 	c #6A971C",
"a 	c #669219",
"b 	c #67961C",
"c 	c #68951A",
"d 	c #65931B",
"e 	c #5D8715",
"f 	c #638F19",
"g 	c #628E19",
"h 	c #669118",
"i 	c #67941B",
"j 	c #64921B",
"k 	c #5C8715",
"l 	c #63901A",
"m 	c #638F18",
"n 	c #5F8C18",
"o 	c #618F1A",
"p 	c #5E8B18",
"q 	c #628F19",
"r 	c #628F1A",
"s 	c #6B981C",
"t 	c #608C18",
"u 	c #5C8615",
"v 	c #618D19",
"w 	c #65921A",
"x 	c #5E8815",
"y 	c #62901A",
"z 	c #66941B",
"A 	c #618B17",
"B 	c #628D18",
"C 	c #5F8915",
"D 	c #618A15",
"E 	c #68971C",
"F 	c #6C9A1D",
"G 	c #5E8714",
"H 	c #608C17",
"I 	c #6A961A",
"J 	c #68961C",
"K 	c #5F8A17",
"L 	c #618E1A",
"M 	c #6B9A1D",
"N 	c #68941A",
"O 	c #69981D",
"P 	c #638E17",
"Q 	c #66931B",
"R 	c #65931A",
"S 	c #608D18",
"T 	c #231504",
"U 	c #241C05",
"V 	c #2A1A06",
"W 	c #2C1B0B",
"X 	c #35210C",
"Y 	c #321C0C",
"Z 	c #392812",
"` 	c #4C331C",
" .	c #553A1E",
"..	c #53341B",
"+.	c #523321",
"@.	c #442A18",
"#.	c #3C2514",
"$.	c #3A280E",
"%.	c #5B3C23",
"&.	c #6A4B2C",
"*.	c #6C442B",
"=.	c #7B5435",
"-.	c #744A32",
";.	c #4C2C1A",
">.	c #432B16",
",.	c #5D4124",
"'.	c #6A5633",
").	c #946243",
"!.	c #9B734D",
"~.	c #A47351",
"{.	c #AD7B56",
"].	c #BD8362",
"^.	c #BC825C",
"/.	c #AC724D",
"(.	c #B37455",
"_.	c #9D6D4B",
":.	c #7B4C34",
"<.	c #8D5D43",
"[.	c #8B5643",
"}.	c #8A5B3D",
"|.	c #B68759",
"1.	c #CB8A65",
"2.	c #D4976A",
"3.	c #D9996E",
"4.	c #D08E65",
"5.	c #C48B63",
"6.	c #BB7C54",
"7.	c #C48363",
"8.	c #C4825C",
"9.	c #B47954",
"0.	c #AD7352",
"a.	c #8C6243",
"b.	c #87643B",
"c.	c #BB8C64",
"d.	c #D5936C",
"e.	c #C98B5A",
"f.	c #C27E5D",
"g.	c #BB7C5C",
"h.	c #644927",
"i.	c #7C6639",
"j.	c #A9855C",
"k.	c #CAA06E",
"l.	c #CA8B5B",
"m.	c #BA926B",
"n.	c #876843",
"o.	c #58441F",
"p.	c #937B4B",
"q.	c #D5A37B",
"r.	c #DA9B74",
"s.	c #DC9D7B",
"t.	c #D99375",
"u.	c #D88E73",
"v.	c #CA8464",
"w.	c #C28653",
"x.	c #CA9C75",
"y.	c #A98862",
"z.	c #9D8555",
"A.	c #A38356",
"B.	c #CCA37D",
"C.	c #DBAB7D",
"D.	c #D59B73",
"E.	c #E0AB88",
"F.	c #D69273",
"G.	c #C39B75",
"H.	c #8C7444",
"I.	c #AC9264",
"J.	c #D4A883",
"K.	c #DBAC83",
"L.	c #D28D6D",
"M.	c #C69371",
"N.	c #D2AD89",
"O.	c #78683B",
"P.	c #B69369",
"Q.	c #DBB28B",
"R.	c #DAA27B",
"S.	c #CA9375",
"T.	c #D7B895",
"U.	c #CCAA84",
"V.	c #97804B",
"W.	c #BDA278",
"X.	c #CD8C6C",
"Y.	c #D1BA8F",
"Z.	c #DAB285",
"`.	c #DEA383",
" +	c #DD9D82",
".+	c #D9947B",
"++	c #D48D73",
"@+	c #D69278",
"#+	c #D28D79",
"$+	c #CD8C73",
"%+	c #D2B48D",
"&+	c #D49A7B",
"*+	c #C4856A",
"=+	c #BC7C62",
"-+	c #986A48",
";+	c #9C6444",
">+	c #AE7259",
",+	c #C47E63",
"'+	c #CC856B",
")+	c #A36453",
"!+	c #9E6751",
"~+	c #BB9972",
"{+	c #553521",
"]+	c #995C49",
"^+	c #B46C5A",
"/+	c #BB745B",
"(+	c #A46A4C",
"_+	c #84553B",
":+	c #DDC19B",
"<+	c #422512",
"[+	c #482616",
"}+	c #542C1A",
"|+	c #72452C",
"1+	c #935C43",
"2+	c #AB654C",
"3+	c #B26E53",
"4+	c #B97356",
"5+	c #653B26",
"6+	c #3F1F11",
"7+	c #C2A67F",
"8+	c #7A5B3C",
"9+	c #4C2B15",
"0+	c #62381F",
"a+	c #844D33",
"b+	c #A35E47",
"c+	c #A46444",
"d+	c #6B3C24",
"e+	c #774632",
"f+	c #7C4E3B",
"g+	c #9A7753",
"h+	c #B48E63",
"i+	c #99673C",
"j+	c #835335",
"k+	c #8C543B",
"l+	c #5B331E",
"m+	c #8A5436",
"n+	c #A96D47",
"o+	c #633C23",
"p+	c #AC7C4C",
"q+	c #B06B4A",
"r+	c #95583C",
"s+	c #DABA96",
"t+	c #957647",
"u+	c #D3A977",
"v+	c #BD8252",
"w+	c #AA6C4C",
"x+	c #D28572",
"y+	c #93543D",
"z+	c #874C39",
"A+	c #C68C5D",
"B+	c #A97648",
"C+	c #D1846C",
"D+	c #AC6D52",
"E+	c #B76C64",
"F+	c #B5765C",
"G+	c #C99567",
"H+	c #C77C68",
"I+	c #C48B6A",
"J+	c #CC987B",
"K+	c #C1725F",
"L+	c #C39B6C",
"M+	c #B66A58",
"N+	c #CD8472",
"O+	c #CEA777",
"P+	c #AB6956",
"Q+	c #C6915B",
"R+	c #B97B4D",
"S+	c #9B5D44",
"T+	c #7B5C40",
"U+	c #B58663",
"V+	c #C38A54",
"W+	c #B47B4B",
"X+	c #A46A45",
"Y+	c #B47B59",
"Z+	c #BC844E",
"`+	c #A5644B",
" @	c #B4804D",
".@	c #A57B57",
"+@	c #BE915D",
"@@	c #AC7445",
"#@	c #9C644C",
"$@	c #B17846",
"%@	c #A56E3E",
"&@	c #A37342",
"*@	c #6A6134",
"=@	c #44391D",
"-@	c #3D3719",
";@	c #4C4722",
">@	c #45411C",
",@	c #2A240D",
"'@	c #343214",
")@	c #2C2910",
"!@	c #875B33",
"~@	c #25220C",
"{@	c #221D0A",
"]@	c #1C1A09",
"^@	c #1A1605",
"/@	c #141205",
"(@	c #775229",
"_@	c #1C1906",
":@	c #292509",
"<@	c #110E03",
"[@	c #CC945C",
"}@	c #81552C",
"|@	c #65411D",
"1@	c #744B2A",
"2@	c #2C2606",
"3@	c #0D0B03",
"4@	c #5D3A18",
"5@	c #45260D",
"6@	c #392009",
"7@	c #351C07",
"8@	c #5B5528",
"9@	c #5A3821",
"0@	c #B1744D",
"a@	c #5F8814",
"b@	c #62901B",
"c@	c #6D9C1E",
"  . + @ # $ % & * = - ; + @ # $ % & * = - ; + @ # $ % & * = - ; + @ # $ % & * = - ; + @ # $ % & * = - ; + @ # $ % & * = - ; + @ # $ % & * = - ; + @ # $ % & * > ",
", ' * = ) ! * ~ { = ] ' * = ) ! * ~ { = ] ' * = ) ! * ~ { = ] ' * = ) ! * ~ { = ] ' * = ) ! * ~ { = ] ' * = ) ! * ~ { = ] ' * = ) ! * ~ { = ] ' * = ) ! * ~ { ^ ",
"/ ( _ : < [ }   | 1 2 ( _ : < [ }   | 1 2 ( _ : < [ }   | 1 2 ( _ : < [ }   | 1 2 ( _ : < [ }   | 1 2 ( _ : < [ }   | 1 2 ( _ : < [ }   | 1 2 ( _ : < [ }   3 > ",
"4 5 6 7 8 8 9 0 a b c 5 6 7 8 8 9 0 a b c 5 6 7 8 8 9 0 a b c 5 6 7 8 8 9 0 a b c 5 6 7 8 8 9 0 a b c 5 6 7 8 8 9 0 a b c 5 6 7 8 8 9 0 a b c 5 6 7 8 8 9 0 a d ",
"e f g h e e i < j e k ~ g h e e i < j e k ~ g h e e i < j e k ~ g h e e i < j e k ~ g h e e i < j e k ~ g h e e i < j e k ~ g h e e i < j e k ~ g h e e i < j k ",
"l | b 0 m n o p ! q q | b 0 m n o p ! q q | b 0 m n o p ! q q | b 0 m n o p ! q q | b 0 m n o p ! q q | b 0 m n o p ! q q | b 0 m n o p ! q q | b 0 m n o p ! q ",
"r s t t q n u v r 1 r s t t q n u v r 1 r s t t q n u v r 1 r s t t q n u v r 1 r s t t q n u v r 1 r s t t q n u v r 1 r s t t q n u v r 1 r s t t q n u v r r ",
"# d w i x w y [ z A ] z w i x w y [ z A ] z w i x w y [ z A ] z w i x w y [ z A ] z w i x w y [ z A ] z w i x w y [ z A ] z w i x w y [ z A ] z w i x w y [ z B ",
"C A : ! D E j { F } G H : ! D E j { F } G H : ! D E j { F } G H : ! D E j { F } G H : ! D E j { F } G H : ! D E j { F } G H : ! D E j { F } G H : ! D E j { F H ",
"I J 7 @ g n K L M t N J 7 @ g n K L M t N J 7 @ g n K L M t N J 7 @ g n K L M t N J 7 @ g n K L M t N J 7 @ g n K L M t N J 7 @ g n K L M t N J 7 @ g n K L M > ",
"  . O G u $ F P Q =   ; O G u $ F P Q =   ; O G u $ F P Q =   ; O G u $ F P Q =   ; O G u $ F P Q =   ; O G u $ F P Q =   ; O G u $ F P Q =   ; O G u $ F P R > ",
"] S * = ) ! j ~ { = ] ' * = ) ! j ~ { = ] ' * = ) ! j ~ { = ] ' * = ) ! j ~ { = ] ' * = ) ! j ~ { = ] ' * = ) ! j ~ { = ] ' * = ) ! j ~ { = ] ' * = ) ! j ~ { ^ ",
"/ ( _ : < [ }   | 1 2 ( _ : < [ }   | 1 2 ( _ : < [ }   | 1 2 ( _ : < [ }   | 1 2 ( _ : < [ }   | 1 2 ( _ : < [ }   | 1 2 ( _ : < [ }   | 1 2 ( _ : < [ }   3 > ",
"4 5 6 7 8 8 9 0 a b c 5 6 7 8 8 9 0 a b c 5 6 7 8 8 9 0 a b c 5 6 7 8 8 9 0 a b c 5 6 7 8 8 9 0 a b c 5 6 7 8 8 9 0 a b c 5 6 7 8 8 9 0 a b c 5 6 7 8 8 9 0 a d ",
"e f g h e e i < j e k ~ g h e e i < j e k ~ g h e e i < j e k ~ g h e e i < j e k ~ g h e e i < j e k ~ g h e e i < j e k ~ g h e e i < j e k ~ g h e e i < j k ",
"l | b 0 m n o p ! q q | b 0 m n o p ! q q | b 0 m n o p ! q q | b 0 m n o p ! q q | b 0 m n o p ! q q | b 0 m n o p ! q q | b 0 m n o p ! q q | b 0 m n o p ! q ",
"r s t t q n u v r 1 r s t t q n u v r 1 r s t t q n u v r 1 r s t t q n u v r 1 r s t t q n u v r 1 r s t t q n u v r 1 r s t t q n u v r 1 r s t t q n u v r r ",
"# d w i x w y [ z A ] z w i x w y [ z A ] z w i x w y [ z A ] z w i x w y [ z A ] z w i x w y [ z A ] z w i x w y [ z A ] z w i x w y [ z A ] z w i x w y [ z B ",
"C A : ! D E j { F } G H : ! D E j { F } G H : ! D E j { F } G H : ! D T U T T T T T : ! D E j { F } G H : ! D E j { F } G H : ! D E j { F } G H : ! D E j { F H ",
"I J 7 @ g n K L M t N J 7 @ g n K L M t N J 7 @ g n K L M t N J V U V W X W W W W U T U V n K L M t N J 7 @ g n K L M t N J 7 @ g n K L M t N J 7 @ g n K L M > ",
"  . O G u $ F P Q =   ; O G u $ F P Q =   ; O G u $ F P Q = X X Y X Z `  ...+.` @.#.Y W W X $.P Q =   ; O G u $ F P Q =   ; O G u $ F P Q =   ; O G u $ F P R > ",
"] S * = ) ! j ~ { = ] ' * = ) ! j ~ { = ] ' * = ) ! j ~ { ..%.%.%.%.&.*.*.=.-.%.;.@.@.@.#.#.>.$.{ = ] ' * = ) ! j ~ { = ] ' * = ) ! j ~ { = ] ' * = ) ! j ~ { ^ ",
"/ ( _ : < [ }   | 1 2 ( _ : < [ }   | 1 2 ( _ : < [ } ,.'.).!.~.~.{.].^./.(._.:.&.=.<.[.-.*.&.,. .1 2 ( _ : < [ }   | 1 2 ( _ : < [ }   | 1 2 ( _ : < [ }   3 > ",
"4 5 6 7 8 8 9 0 a b c 5 6 7 8 8 9 0 a b c 5 6 7 8 8 ,.}.|.1.2.2.3.3.3.3.3.4.5.6.7.5.1.1.8.9.0.~.a.&.c 5 6 7 8 8 9 0 a b c 5 6 7 8 8 9 0 a b c 5 6 7 8 8 9 0 a d ",
"e f g h e e i < j e k ~ g h e e i < j e k ~ g h e e b.c.2.d.2.2.3.3.3.3.3.d.d.d.d.d.4.4.e.f.f.g.].~.h.~ g h e e i < j e k ~ g h e e i < j e k ~ g h e e i < j k ",
"l | b 0 m n o p ! q q | b 0 m n o p ! q q | b 0 m i.j.k.2.2.3.3.3.3.3.3.d.d.d.4.d.d.d.4.l.8.f.6.].m.n.o.b 0 m n o p ! q q | b 0 m n o p ! q q | b 0 m n o p ! q ",
"r s t t q n u v r 1 r s t t q n u v r 1 r s t t q p.m.q.d.3.3.r.s.r.t.3.d.u.3.u.d.d.d.4.v.8.w.g.].x.y.'.t t q n u v r 1 r s t t q n u v r 1 r s t t q n u v r r ",
"# d w i x w y [ z A ] z w i x w y [ z A ] z w i z.A.B.C.D.r.r.s.E.s.s.t.3.u.d.d.t.F.u.4.1.1.8.g.7.G.G.H.&.i x w y [ z A ] z w i x w y [ z A ] z w i x w y [ z B ",
"C A : ! D E j { F } G H : ! D E j { F } G H : ! A.I.J.K.D.r.s.s.s.s.s.t.u.3.F.F.F.d.u.d.L.1.v.8.^.M.N.I.O.! D E j { F } G H : ! D E j { F } G H : ! D E j { F H ",
"I J 7 @ g n K L M t N J 7 @ g n K L M t N J 7 @ z.P.Q.Q.R.r.s.R.R.s.t.u.u.d.L.u.F.u.u.L.L.1.v.8.].S.T.U.V.@ g n K L M t N J 7 @ g n K L M t N J 7 @ g n K L M > ",
"  . O G u $ F P Q =   ; O G u $ F P Q =   ; O V.z.W.Q.K.q.D.s.s.R.s.t.u.L.L.L.u.F.t.u.L.X.X.v.].7.M.Y.Y.z.H.u $ F P Q =   ; O G u $ F P Q =   ; O G u $ F P R > ",
"] S * = ) ! j ~ { = ] ' * = ) ! j ~ { = ] ' * V.A.G.Z.K.R.s.s.s.`. +.+u.u.++L.u.u.t.@+#+$+$+5.7.7.M.N.%+I.p.) ! j ~ { = ] ' * = ) ! j ~ { = ] ' * = ) ! j ~ { ^ ",
"/ ( _ : < [ }   | 1 2 ( _ : < [ }   | 1 2 ( _ V.j.B.q.q.R.r.D.F.&+@+u.t.@+@+#+#+t.#+#+@+$+*+].=+].S.N.%+I.p.< [ }   | 1 2 ( _ : < [ }   | 1 2 ( _ : < [ }   3 > ",
"4 5 6 7 8 8 9 0 a b c 5 6 7 8 8 9 0 a b c 5 6 p.I.K.R.q.5.j.~.-+a.;+>+,+'+++++$+'+*+=+)+!+a.<.a.!.~+N.T.P.p.8 8 9 0 a b c 5 6 7 8 8 9 0 a b c 5 6 7 8 8 9 0 a d ",
"e f g h e e i < j e k ~ g h e e i < j e k ~ g b.~+Q.q.j.b.-.%.@.>.{+-.]+^+,+,+7./+(+_+%.#.Z #.+.%.<.U.:+W.p.e e i < j e k ~ g h e e i < j e k ~ g h e e i < j k ",
"l | b 0 m n o p ! q q | b 0 m n o p ! q q | b i.~+Q.m.b.h.{+` >.<+[+}+|+1+2+3+4+2+_+5+[+6+<+;.;.+.%.z.T.7+H.m n o p ! q q | b 0 m n o p ! q q | b 0 m n o p ! q ",
"r s t t q n u v r 1 r s t t q n u v r 1 r s t O.P.Q.|.8+-.*.|+|+5+;.9+0+a+b+(.4+c+a+d+}+%.e+f+d+5+-.g+T.W.H.q n u v r 1 r s t t q n u v r 1 r s t t q n u v r r ",
"# d w i x w y [ z A ] z w i x w y [ z A ] z w i.y.Q.h+i+j+j+k+=.&.%.}+l+m+3+'+7.n+a+o+o+l+5+:.[.[.[.g+T.W.H.x w y [ z A ] z w i x w y [ z A ] z w i x w y [ z B ",
"C A : ! D E j { F } G H : ! D E j { F } G H j.i.j.T.k.p+i+=.%.>.+.,.o+a+q+f.F.'+q+r+d+}+[+Y #.{+-.).|.s+W.p.y.E j { F } G H : ! D E j { F } G H : ! D E j { F H ",
"I J 7 @ g n K L M t N J 7 @ g n K L M t N J 5.t+A.Q.u+v+i+}.}._+[.1+1+w+f.1.u.x+4+2+y+:.z+z+f+-.-.-+c.:+W.g+>+n K L M t N J 7 @ g n K L M t N J 7 @ g n K L M > ",
"  . O G u $ F P Q =   ; O G u $ F P Q =   ; /+h+j.K.C.A+9.B+).y+1+]+(.f.8.L.@+C+/+4+D+]+_+z+k+]+)+(.M.:+7+m.E+$ F P Q =   ; O G u $ F P Q =   ; O G u $ F P R > ",
"] S * = ) ! j ~ { = ] ' * = ) ! j ~ { = ] ' 7.5.h+Z.C.q.1.6.w+D+/+,+C+C+L..+@+C+f./+,+,+,+2+(+D+F+].B.:+U.G.*+! j ~ { = ] ' * = ) ! j ~ { = ] ' * = ) ! j ~ { ^ ",
"/ ( _ : < [ }   | 1 2 ( _ : < [ }   | 1 2 ( ++G+c.K.K.R.D..+.+@+++++L.L.t.s.u.C+,+,+,+H+x+x+x+'+'+I+J+:+%+M.$+[ }   | 1 2 ( _ : < [ }   | 1 2 ( _ : < [ }   3 > ",
"4 5 6 7 8 8 9 0 a b c 5 6 7 8 8 9 0 a b c 5 @+X.~+K.Z.K.`.`. + +.+x+H+4.s. +u.C+H+f.K+H+u.#+#+#+$+M. +s+%+m.#+'+9 0 a b c 5 6 7 8 8 9 0 a b c 5 6 7 8 8 9 0 a d ",
"e f g h e e i < j e k ~ g h e e i < j e k ~ L.1.L+u+C.C.E.E.s..+x+H+4+f.r. +.+x+v./+4+M+H+H+#+#+S. +U.T.%+S.'+N+i < j e k ~ g h e e i < j e k ~ g h e e i < j k ",
"l | b 0 m n o p ! q q | b 0 m n o p ! q q | v.f.x.O+C.R.K.s.u.H+,+b+2+d.s..+@+#+'+=+K+b+b+M+H+H+*+J+ +N.U.*+H+n o p ! q q | b 0 m n o p ! q q | b 0 m n o p ! q ",
"r s t t q n u v r 1 r s t t q n u v r 1 r s t.1.G+k.u+3.r.1.H+K+2+y+2+,+/+M+/+M+^+^+M+b+b+]+P+/+=+].J+U.U.H+N+n u v r 1 r s t t q n u v r 1 r s t t q n u v r r ",
"# d w i x w y [ z A ] z w i x w y [ z A ] z w D.5.L+k.2.4.8.K+q+y+y+b+y+d+d+a+z+d+e+]+)+b+[.y+b+M+F+I+U.U.S.N.w y [ z A ] z w i x w y [ z A ] z w i x w y [ z B ",
"C A : ! D E j { F } G H : ! D E j { F } G H : D.8.c.k.Q+e.R+q+r+a+y+b+S+|+9+[+l+5+T+]+]+]+[.d+]+2+(.U+G.m.S.D E j { F } G H : ! D E j { F } G H : ! D E j { F H ",
"I J 7 @ g n K L M t N J 7 @ g n K L M t N J 7 D.w.|.k.V+V+W+c+a+a+c+c+2+X+[.z+[.]+!+)+)+)+[.e+j+w+(.Y+m.c.J+g n K L M t N J 7 @ g n K L M t N J 7 @ g n K L M > ",
"  . O G u $ F P Q =   ; O G u $ F P Q =   ; O G /.c.k.Z+Z+W+c+m+m+r+S+c+`+D+P+)+!+]+]+[.[.T+:.k+q+Y+{.c.m.G u $ F P Q =   ; O G u $ F P Q =   ; O G u $ F P R > ",
"] S * = ) ! j ~ { = ] ' * = ) ! j ~ { = ] ' * = ) ! k.Z+ @Z+6.r+|+l+d+m+X+~.>+.@y.=+{.i+5++.j+i+9.0..@c.* = ) ! j ~ { = ] ' * = ) ! j ~ { = ] ' * = ) ! j ~ { ^ ",
"/ ( _ : < [ }   | 1 2 ( _ : < [ }   | 1 2 ( _ : < [ +@Z+ @Z+8.6.D+z+k+|.k.u+Z.C.Q.U.k.U+[.[.(+/.(._.{.m._ : < [ }   | 1 2 ( _ : < [ }   | 1 2 ( _ : < [ }   3 > ",
"4 5 6 7 8 8 9 0 a b c 5 6 7 8 8 9 0 a b c 5 6 7 8 8 +@ @@@W+A+1.1.,+g.=+=+*+*+*+].=+>+#@)+(.9.9.0.-+j.m.6 7 8 8 9 0 a b c 5 6 7 8 8 9 0 a b c 5 6 7 8 8 9 0 a d ",
"e f g h e e i < j e k ~ g h e e i < j e k ~ g h e e |.$@@@$@w.1.L.L.1.,+/+M+^+E+E+E+P+E+F+g.^.9.~.~.y.~ g h e e i < j e k ~ g h e e i < j e k ~ g h e e i < j k ",
"l | b 0 m n o p ! q q | b 0 m n o p ! q q | b 0 m n o B+%@@@6.l.d.F.X.g.D+P+)+)+P+P+(.F+=+^.^.{.~.!..@| b 0 m n o p ! q q | b 0 m n o p ! q q | b 0 m n o p ! q ",
"r s t t q n u v r 1 r s t t q n u v r 1 r s t t q n u &@t+$@W+A+2.F.d.v.6.`+1+[.#@>+F+=+=+7.{.(+!+!..@s t t q n u v r 1 r s t t q n u v r 1 r s t t q n u v r r ",
"# d w i x w y [ z A ] z w i x w y [ z A ] z w i x w y [ t+$@W+v+2.D.d.L.v.g.P+P+F+=+*+7.v.g.0.~._.g+g+T+O.O.*@*@y [ z A ] z w i x w y [ z A ] z w i x w y [ z B ",
"C A : ! D E j { F } G H : ! D E j { F } G H : ! D E j { |.%@$@|.G+D.d.F.@+'+'+*+*+*+1.1.7.{.g+~._.g+z.=@-@;@;@=@>@=@F } G H : ! D E j { F } G H : ! D E j { F H ",
"I J 7 @ g n K L M t N J 7 @ g n K L M t N J 7 @ g n K L k. @i+t+ @Q+G+d.F.$+L.'+S.X.7.g..@!.-+_.-+.@y.@.,@'@'@,@)@)@'@t N J 7 @ g n K L M t N J 7 @ g n K L M > ",
"  . O G u $ F P Q =   ; O G u $ F P Q =   ; O G u $ F P k.Q+i+!@b.i+ @{.g.].g.4+g.*+Y+~.a.<.n.n.-+Y+U+=@~@)@)@{@]@~@~@'@  ; O G u $ F P Q =   ; O G u $ F P R > ",
"] S * = ) ! j ~ { = ] ' * = ) ! j ~ { = ] ' U ^@/@^@^@,@A.2. @!@(@(@!@!@;+D+(+;+;+#@1+8+&.h.=.n.~.^.=+=@]@~@)@~@]@/@_@~@;@' * = ) ! j ~ { = ] ' * = ) ! j ~ { ^ ",
"/ ( _ : < [ }   | 1 2 ( _ : < [ }   | 1 2 :@~@^@<@/@]@~@p.[@V+%@}@|@ . .%.1@*.o+d+o+..>.@.%._+-+Y+g.>+@./@{@]@{@/@<@/@]@-@( _ : < [ }   | 1 2 ( _ : < [ }   3 > ",
"4 5 6 7 8 8 9 0 a b c 5 6 7 8 8 9 0 a b 2@U ^@/@3@^@/@<@n.2.w.Z+i+}@4@5@6@6@6@7@W W W Y ..=.-+0.g.g./.;./@]@]@~@/@3@/@_@)@8@6 7 8 8 9 0 a b c 5 6 7 8 8 9 0 a d ",
"e f g h e e i < j e k ~ g h e e i < j 2@_@_@/@3@/@/@3@3@8+[@V+w.%@i+(@0+5@6@7@7@7@7@<+%.j+-+/.6.].6.w+9@/@]@]@]@/@3@/@_@~@;@g h e e i < j e k ~ g h e e i < j k ",
"l | b 0 m n o p ! q q | b 0 m n o p ! 2@_@/@/@3@/@3@3@/@b.[@e.w.$@R+%@}@|@9+5@5@5@9+*.}.(+(.Y+g.g.6.(+ ./@]@]@]@/@3@/@_@~@-@b 0 m n o p ! q q | b 0 m n o p ! q ",
"r s t t q n u v r 1 r s t t q n u v =@2@^@^@/@/@3@/@T ^@=.[@e.w.w.w.[@Z+i+1@0+o+*.j+;+0.Y+Y+g.g.6.(.;+>.]@]@]@]@/@3@_@_@r s t t q n u v r 1 r s t t q n u v r r ",
"# d w i x w y [ z A ] z w i x w y [ z 2@T ^@^@/@<@_@^@<@=.[@[@w.Z+w.l.V+W+;+S+;+#@(+0.0.Y+F+4+g.Y+w+j+X ^@_@]@_@<@/@/@A ] z w i x w y [ z A ] z w i x w y [ z B ",
"C A : ! D E j { F } G H : ! D E j { F } {@_@^@_@^@^@^@V ).Q+e.w.f.Z+v+W+W+(.9.(.(.(.0.w+0.0.(.(.(.c+0+T _@_@_@_@/@3@F } G H : ! D E j { F } G H : ! D E j { F H ",
"I J 7 @ g n K L M t N J 7 @ g n K L M t N _@^@^@_@_@^@=@ @Z+V+w.w.6.R+@@X+/.g.9.Y+w+(+(+D+w+0.0.0.=.X _@_@_@_@/@K L M t N J 7 @ g n K L M t N J 7 @ g n K L M > ",
"  . O G u $ F P Q =   ; O G u $ F P Q =   ; O ^@_@_@^@ .t+Z+Z+Z+w.w.6.$@n+X+w+0@0.(+(+(+(+0.0.w+1+..^@_@_@_@_@$ F P Q =   ; O G u $ F P Q =   ; O G u $ F P R > ",
"] S * = ) ! j ~ { = ] ' * = ) ! j ~ { = ] ' * = ) _@^@$.!@$@R+Z+v+v+6.9.@@c+i+r+r+;+_.(+(+(+(+;+5+U ^@_@_@= ) ! j ~ { = ] ' * = ) ! j ~ { = ] ' * = ) ! j ~ { ^ ",
"/ ( _ : < [ }   | 1 2 ( _ : < [ }   | 1 2 ( _ : < [ } 6@(@%@@@W+W+R+6.6.0@n+i+y+k+).;+`+(+(+).|+X _@2 ( _ : < [ }   | 1 2 ( _ : < [ }   | 1 2 ( _ : < [ }   3 > ",
"4 5 6 7 8 8 9 0 a b c 5 6 7 8 8 9 0 a b c 5 6 7 8 8 9 0 a b c @@@@$@W+W+6.0@n+c+;+(+(+(+;+;+j+0 a b c 5 6 7 8 8 9 0 a b c 5 6 7 8 8 9 0 a b c 5 6 7 8 8 9 0 a d ",
"e f g h e e i < j e k ~ g h e e i < j e k ~ g h e e i < j e k ~ g h e e 9.6.q+w+w+w+g h e e i < j e k ~ g h e e i < j e k ~ g h e e i < j e k ~ g h e e i < j k ",
"l | b 0 m n o p ! q q | b 0 m n o p ! q q | b 0 m n o p ! q q | b 0 m n o p ! q q | b 0 m n o p ! q q | b 0 m n o p ! q q | b 0 m n o p ! q q | b 0 m n o p ! q ",
"r s t t q n u v r 1 r s t t q n u v r 1 r s t t q n u v r 1 r s t t q n u v r 1 r s t t q n u v r 1 r s t t q n u v r 1 r s t t q n u v r 1 r s t t q n u v r r ",
"# d w i x w y [ z A ] z w i x w y [ z A ] z w i x w y [ z A ] z w i x w y [ z A ] z w i x w y [ z A ] z w i x w y [ z A ] z w i x w y [ z A ] z w i x w y [ z B ",
"C H : ! D E j { M } a@H : ! D E j { M } a@H : ! D E j { M } a@H : ! D E j { M } a@H : ! D E j { M } a@H : ! D E j { M } a@H : ! D E j { M } a@H : ! D E j { M H ",
"I 6 k @ q > $ b@c@t N 6 k @ q > $ b@c@t N 6 k @ q > $ b@c@t N 6 k @ q > $ b@c@t N 6 k @ q > $ b@c@t N 6 k @ q > $ b@c@t N 6 k @ q > $ b@c@t N 6 k @ q > $ b@c@> "};
