/* XPM */
static char * test2_xpm[] = {
"80 80 318 2",
"  	c #638E18",
". 	c #67971E",
"+ 	c #6B9B1E",
"@ 	c #5F8815",
"# 	c #5C8614",
"$ 	c #5D8816",
"% 	c #6E9C1D",
"& 	c #648E17",
"* 	c #64921A",
"= 	c #5E8917",
"- 	c #628E18",
"; 	c #68971E",
"> 	c #5F8B18",
", 	c #5C8515",
"' 	c #618D18",
") 	c #5C8514",
"! 	c #608B17",
"~ 	c #639019",
"{ 	c #69971C",
"] 	c #5B8514",
"^ 	c #5E8A17",
"/ 	c #659219",
"( 	c #6A981C",
"_ 	c #69961A",
": 	c #63911B",
"< 	c #66941C",
"[ 	c #6B9A1E",
"} 	c #618C17",
"| 	c #5F8A16",
"1 	c #618E19",
"2 	c #649119",
"3 	c #231504",
"4 	c #241C05",
"5 	c #608A16",
"6 	c #69961B",
"7 	c #709E1D",
"8 	c #68961B",
"9 	c #5E8916",
"0 	c #68971D",
"a 	c #679219",
"b 	c #6A971C",
"c 	c #669219",
"d 	c #67961C",
"e 	c #68951A",
"f 	c #2A1A06",
"g 	c #2C1B0B",
"h 	c #35210C",
"i 	c #65931B",
"j 	c #5D8715",
"k 	c #638F19",
"l 	c #628E19",
"m 	c #669118",
"n 	c #67941B",
"o 	c #64921B",
"p 	c #5C8715",
"q 	c #321C0C",
"r 	c #392812",
"s 	c #4C331C",
"t 	c #553A1E",
"u 	c #53341B",
"v 	c #523321",
"w 	c #442A18",
"x 	c #3C2514",
"y 	c #3A280E",
"z 	c #63901A",
"A 	c #638F18",
"B 	c #5F8C18",
"C 	c #618F1A",
"D 	c #5E8B18",
"E 	c #628F19",
"F 	c #5B3C23",
"G 	c #6A4B2C",
"H 	c #6C442B",
"I 	c #7B5435",
"J 	c #744A32",
"K 	c #4C2C1A",
"L 	c #432B16",
"M 	c #628F1A",
"N 	c #6B981C",
"O 	c #608C18",
"P 	c #5C8615",
"Q 	c #618D19",
"R 	c #5D4124",
"S 	c #6A5633",
"T 	c #946243",
"U 	c #9B734D",
"V 	c #A47351",
"W 	c #AD7B56",
"X 	c #BD8362",
"Y 	c #BC825C",
"Z 	c #AC724D",
"` 	c #B37455",
" .	c #9D6D4B",
"..	c #7B4C34",
"+.	c #8D5D43",
"@.	c #8B5643",
"#.	c #65921A",
"$.	c #5E8815",
"%.	c #62901A",
"&.	c #66941B",
"*.	c #618B17",
"=.	c #8A5B3D",
"-.	c #B68759",
";.	c #CB8A65",
">.	c #D4976A",
",.	c #D9996E",
"'.	c #D08E65",
").	c #C48B63",
"!.	c #BB7C54",
"~.	c #C48363",
"{.	c #C4825C",
"].	c #B47954",
"^.	c #AD7352",
"/.	c #8C6243",
"(.	c #628D18",
"_.	c #5F8915",
":.	c #618A15",
"<.	c #68971C",
"[.	c #6C9A1D",
"}.	c #5E8714",
"|.	c #608C17",
"1.	c #87643B",
"2.	c #BB8C64",
"3.	c #D5936C",
"4.	c #C98B5A",
"5.	c #C27E5D",
"6.	c #BB7C5C",
"7.	c #644927",
"8.	c #6A961A",
"9.	c #68961C",
"0.	c #5F8A17",
"a.	c #618E1A",
"b.	c #6B9A1D",
"c.	c #68941A",
"d.	c #7C6639",
"e.	c #A9855C",
"f.	c #CAA06E",
"g.	c #CA8B5B",
"h.	c #BA926B",
"i.	c #876843",
"j.	c #58441F",
"k.	c #69981D",
"l.	c #638E17",
"m.	c #66931B",
"n.	c #937B4B",
"o.	c #D5A37B",
"p.	c #DA9B74",
"q.	c #DC9D7B",
"r.	c #D99375",
"s.	c #D88E73",
"t.	c #CA8464",
"u.	c #C28653",
"v.	c #CA9C75",
"w.	c #A98862",
"x.	c #65931A",
"y.	c #608D18",
"z.	c #9D8555",
"A.	c #A38356",
"B.	c #CCA37D",
"C.	c #DBAB7D",
"D.	c #D59B73",
"E.	c #E0AB88",
"F.	c #D69273",
"G.	c #C39B75",
"H.	c #8C7444",
"I.	c #AC9264",
"J.	c #D4A883",
"K.	c #DBAC83",
"L.	c #D28D6D",
"M.	c #C69371",
"N.	c #D2AD89",
"O.	c #78683B",
"P.	c #B69369",
"Q.	c #DBB28B",
"R.	c #DAA27B",
"S.	c #CA9375",
"T.	c #D7B895",
"U.	c #CCAA84",
"V.	c #97804B",
"W.	c #BDA278",
"X.	c #CD8C6C",
"Y.	c #D1BA8F",
"Z.	c #DAB285",
"`.	c #DEA383",
" +	c #DD9D82",
".+	c #D9947B",
"++	c #D48D73",
"@+	c #D69278",
"#+	c #D28D79",
"$+	c #CD8C73",
"%+	c #D2B48D",
"&+	c #D49A7B",
"*+	c #C4856A",
"=+	c #BC7C62",
"-+	c #986A48",
";+	c #9C6444",
">+	c #AE7259",
",+	c #C47E63",
"'+	c #CC856B",
")+	c #A36453",
"!+	c #9E6751",
"~+	c #BB9972",
"{+	c #553521",
"]+	c #995C49",
"^+	c #B46C5A",
"/+	c #BB745B",
"(+	c #A46A4C",
"_+	c #84553B",
":+	c #DDC19B",
"<+	c #422512",
"[+	c #482616",
"}+	c #542C1A",
"|+	c #72452C",
"1+	c #935C43",
"2+	c #AB654C",
"3+	c #B26E53",
"4+	c #B97356",
"5+	c #653B26",
"6+	c #3F1F11",
"7+	c #C2A67F",
"8+	c #7A5B3C",
"9+	c #4C2B15",
"0+	c #62381F",
"a+	c #844D33",
"b+	c #A35E47",
"c+	c #A46444",
"d+	c #6B3C24",
"e+	c #774632",
"f+	c #7C4E3B",
"g+	c #9A7753",
"h+	c #B48E63",
"i+	c #99673C",
"j+	c #835335",
"k+	c #8C543B",
"l+	c #5B331E",
"m+	c #8A5436",
"n+	c #A96D47",
"o+	c #633C23",
"p+	c #AC7C4C",
"q+	c #B06B4A",
"r+	c #95583C",
"s+	c #DABA96",
"t+	c #957647",
"u+	c #D3A977",
"v+	c #BD8252",
"w+	c #AA6C4C",
"x+	c #D28572",
"y+	c #93543D",
"z+	c #874C39",
"A+	c #C68C5D",
"B+	c #A97648",
"C+	c #D1846C",
"D+	c #AC6D52",
"E+	c #B76C64",
"F+	c #B5765C",
"G+	c #C99567",
"H+	c #C77C68",
"I+	c #C48B6A",
"J+	c #CC987B",
"K+	c #C1725F",
"L+	c #C39B6C",
"M+	c #B66A58",
"N+	c #CD8472",
"O+	c #CEA777",
"P+	c #AB6956",
"Q+	c #C6915B",
"R+	c #B97B4D",
"S+	c #9B5D44",
"T+	c #7B5C40",
"U+	c #B58663",
"V+	c #C38A54",
"W+	c #B47B4B",
"X+	c #A46A45",
"Y+	c #B47B59",
"Z+	c #BC844E",
"`+	c #A5644B",
" @	c #B4804D",
".@	c #A57B57",
"+@	c #BE915D",
"@@	c #AC7445",
"#@	c #9C644C",
"$@	c #B17846",
"%@	c #A56E3E",
"&@	c #A37342",
"*@	c #6A6134",
"=@	c #44391D",
"-@	c #3D3719",
";@	c #4C4722",
">@	c #45411C",
",@	c #2A240D",
"'@	c #343214",
")@	c #2C2910",
"!@	c #875B33",
"~@	c #25220C",
"{@	c #221D0A",
"]@	c #1C1A09",
"^@	c #1A1605",
"/@	c #141205",
"(@	c #775229",
"_@	c #1C1906",
":@	c #292509",
"<@	c #110E03",
"[@	c #CC945C",
"}@	c #81552C",
"|@	c #65411D",
"1@	c #744B2A",
"2@	c #2C2606",
"3@	c #0D0B03",
"4@	c #5D3A18",
"5@	c #45260D",
"6@	c #392009",
"7@	c #351C07",
"8@	c #5B5528",
"9@	c #5A3821",
"0@	c #B1744D",
"a@	c #5F8814",
"b@	c #62901B",
"c@	c #6D9C1E",
"  . + @ # $ % & * = - ; + @ # $ % & * = - ; + @ # $ % & * = - ; + @ # $ % & * = - ; + @ # $ % & * = - ; + @ # $ % & * = - ; + @ # $ % & * = - ; + @ # $ % & * > ",
", ' * = ) ! * ~ { = ] ' * = ) ! * ~ { = ] ' * = ) ! * ~ { = ] ' * = ) ! * ~ { = ] ' * = ) ! * ~ { = ] ' * = ) ! * ~ { = ] ' * = ) ! * ~ { = ] ' * = ) ! * ~ { ^ ",
"/ ( _ : < [ }   | 1 2 ( _ : < [ }   | 1 2 ( _ : < [ }   | 1 2 ( _ : < 3 4 3 3 3 3 3 _ : < [ }   | 1 2 ( _ : < [ }   | 1 2 ( _ : < [ }   | 1 2 ( _ : < [ }   5 > ",
"6 7 8 9 0 0 a b c d e 7 8 9 0 0 a b c d e 7 8 9 0 0 a b c d e 7 f 4 f g h g g g g 4 3 4 f 0 a b c d e 7 8 9 0 0 a b c d e 7 8 9 0 0 a b c d e 7 8 9 0 0 a b c i ",
"j k l m j j n < o j p ~ l m j j n < o j p ~ l m j j n < o j h h q h r s t u v s w x q g g h y < o j p ~ l m j j n < o j p ~ l m j j n < o j p ~ l m j j n < o p ",
"z | d b A B C D ! E E | d b A B C D ! E E | d b A B C D ! u F F F F G H H I J F K w w w x x L y ! E E | d b A B C D ! E E | d b A B C D ! E E | d b A B C D ! E ",
"M N O O E B P Q M 1 M N O O E B P Q M 1 M N O O E B P R S T U V V W X Y Z `  ...G I +.@.J H G R t 1 M N O O E B P Q M 1 M N O O E B P Q M 1 M N O O E B P Q M M ",
"# i #.n $.#.%.[ &.*.] &.#.n $.#.%.[ &.*.] &.#.n $.#.R =.-.;.>.>.,.,.,.,.,.'.).!.~.).;.;.{.].^.V /.G ] &.#.n $.#.%.[ &.*.] &.#.n $.#.%.[ &.*.] &.#.n $.#.%.[ &.(.",
"_.*.: ! :.<.o { [.} }.|.: ! :.<.o { [.} }.|.: ! :.<.1.2.>.3.>.>.,.,.,.,.,.3.3.3.3.3.'.'.4.5.5.6.X V 7.|.: ! :.<.o { [.} }.|.: ! :.<.o { [.} }.|.: ! :.<.o { [.|.",
"8.9.9 @ l B 0.a.b.O c.9.9 @ l B 0.a.b.O c.9.9 @ l d.e.f.>.>.,.,.,.,.,.,.3.3.3.'.3.3.3.'.g.{.5.!.X h.i.j.9 @ l B 0.a.b.O c.9.9 @ l B 0.a.b.O c.9.9 @ l B 0.a.b.> ",
"  . k.}.P $ [.l.m.=   ; k.}.P $ [.l.m.=   ; k.}.P n.h.o.3.,.,.p.q.p.r.,.3.s.,.s.3.3.3.'.t.{.u.6.X v.w.S k.}.P $ [.l.m.=   ; k.}.P $ [.l.m.=   ; k.}.P $ [.l.x.> ",
"] y.* = ) ! o ~ { = ] ' * = ) ! o ~ { = ] ' * = z.A.B.C.D.p.p.q.E.q.q.r.,.s.3.3.r.F.s.'.;.;.{.6.~.G.G.H.G = ) ! o ~ { = ] ' * = ) ! o ~ { = ] ' * = ) ! o ~ { ^ ",
"/ ( _ : < [ }   | 1 2 ( _ : < [ }   | 1 2 ( _ : A.I.J.K.D.p.q.q.q.q.q.r.s.,.F.F.F.3.s.3.L.;.t.{.Y M.N.I.O.: < [ }   | 1 2 ( _ : < [ }   | 1 2 ( _ : < [ }   5 > ",
"6 7 8 9 0 0 a b c d e 7 8 9 0 0 a b c d e 7 8 9 z.P.Q.Q.R.p.q.R.R.q.r.s.s.3.L.s.F.s.s.L.L.;.t.{.X S.T.U.V.9 0 0 a b c d e 7 8 9 0 0 a b c d e 7 8 9 0 0 a b c i ",
"j k l m j j n < o j p ~ l m j j n < o j p ~ l V.z.W.Q.K.o.D.q.q.R.q.r.s.L.L.L.s.F.r.s.L.X.X.t.X ~.M.Y.Y.z.H.j j n < o j p ~ l m j j n < o j p ~ l m j j n < o p ",
"z | d b A B C D ! E E | d b A B C D ! E E | d V.A.G.Z.K.R.q.q.q.`. +.+s.s.++L.s.s.r.@+#+$+$+).~.~.M.N.%+I.n.A B C D ! E E | d b A B C D ! E E | d b A B C D ! E ",
"M N O O E B P Q M 1 M N O O E B P Q M 1 M N O V.e.B.o.o.R.p.D.F.&+@+s.r.@+@+#+#+r.#+#+@+$+*+X =+X S.N.%+I.n.E B P Q M 1 M N O O E B P Q M 1 M N O O E B P Q M M ",
"# i #.n $.#.%.[ &.*.] &.#.n $.#.%.[ &.*.] &.#.n.I.K.R.o.).e.V -+/.;+>+,+'+++++$+'+*+=+)+!+/.+./.U ~+N.T.P.n.$.#.%.[ &.*.] &.#.n $.#.%.[ &.*.] &.#.n $.#.%.[ &.(.",
"_.*.: ! :.<.o { [.} }.|.: ! :.<.o { [.} }.|.: 1.~+Q.o.e.1.J F w L {+J ]+^+,+,+~./+(+_+F x r x v F +.U.:+W.n.:.<.o { [.} }.|.: ! :.<.o { [.} }.|.: ! :.<.o { [.|.",
"8.9.9 @ l B 0.a.b.O c.9.9 @ l B 0.a.b.O c.9.9 d.~+Q.h.1.7.{+s L <+[+}+|+1+2+3+4+2+_+5+[+6+<+K K v F z.T.7+H.l B 0.a.b.O c.9.9 @ l B 0.a.b.O c.9.9 @ l B 0.a.b.> ",
"  . k.}.P $ [.l.m.=   ; k.}.P $ [.l.m.=   ; k.O.P.Q.-.8+J H |+|+5+K 9+0+a+b+` 4+c+a+d+}+F e+f+d+5+J g+T.W.H.P $ [.l.m.=   ; k.}.P $ [.l.m.=   ; k.}.P $ [.l.x.> ",
"] y.* = ) ! o ~ { = ] ' * = ) ! o ~ { = ] ' * d.w.Q.h+i+j+j+k+I G F }+l+m+3+'+~.n+a+o+o+l+5+..@.@.@.g+T.W.H.) ! o ~ { = ] ' * = ) ! o ~ { = ] ' * = ) ! o ~ { ^ ",
"/ ( _ : < [ }   | 1 2 ( _ : < [ }   | 1 2 ( e.d.e.T.f.p+i+I F L v R o+a+q+5.F.'+q+r+d+}+[+q x {+J T -.s+W.n.w.[ }   | 1 2 ( _ : < [ }   | 1 2 ( _ : < [ }   5 > ",
"6 7 8 9 0 0 a b c d e 7 8 9 0 0 a b c d e 7 ).t+A.Q.u+v+i+=.=._+@.1+1+w+5.;.s.x+4+2+y+..z+z+f+J J -+2.:+W.g+>+0 a b c d e 7 8 9 0 0 a b c d e 7 8 9 0 0 a b c i ",
"j k l m j j n < o j p ~ l m j j n < o j p ~ /+h+e.K.C.A+].B+T y+1+]+` 5.{.L.@+C+/+4+D+]+_+z+k+]+)+` M.:+7+h.E+j n < o j p ~ l m j j n < o j p ~ l m j j n < o p ",
"z | d b A B C D ! E E | d b A B C D ! E E | ~.).h+Z.C.o.;.!.w+D+/+,+C+C+L..+@+C+5./+,+,+,+2+(+D+F+X B.:+U.G.*+B C D ! E E | d b A B C D ! E E | d b A B C D ! E ",
"M N O O E B P Q M 1 M N O O E B P Q M 1 M N ++G+2.K.K.R.D..+.+@+++++L.L.r.q.s.C+,+,+,+H+x+x+x+'+'+I+J+:+%+M.$+B P Q M 1 M N O O E B P Q M 1 M N O O E B P Q M M ",
"# i #.n $.#.%.[ &.*.] &.#.n $.#.%.[ &.*.] &.@+X.~+K.Z.K.`.`. + +.+x+H+'.q. +s.C+H+5.K+H+s.#+#+#+$+M. +s+%+h.#+'+%.[ &.*.] &.#.n $.#.%.[ &.*.] &.#.n $.#.%.[ &.(.",
"_.*.: ! :.<.o { [.} }.|.: ! :.<.o { [.} }.|.L.;.L+u+C.C.E.E.q..+x+H+4+5.p. +.+x+t./+4+M+H+H+#+#+S. +U.T.%+S.'+N+o { [.} }.|.: ! :.<.o { [.} }.|.: ! :.<.o { [.|.",
"8.9.9 @ l B 0.a.b.O c.9.9 @ l B 0.a.b.O c.9.t.5.v.O+C.R.K.q.s.H+,+b+2+3.q..+@+#+'+=+K+b+b+M+H+H+*+J+ +N.U.*+H+B 0.a.b.O c.9.9 @ l B 0.a.b.O c.9.9 @ l B 0.a.b.> ",
"  . k.}.P $ [.l.m.=   ; k.}.P $ [.l.m.=   ; r.;.G+f.u+,.p.;.H+K+2+y+2+,+/+M+/+M+^+^+M+b+b+]+P+/+=+X J+U.U.H+N+$ [.l.m.=   ; k.}.P $ [.l.m.=   ; k.}.P $ [.l.x.> ",
"] y.* = ) ! o ~ { = ] ' * = ) ! o ~ { = ] ' * D.).L+f.>.'.{.K+q+y+y+b+y+d+d+a+z+d+e+]+)+b+@.y+b+M+F+I+U.U.S.N.! o ~ { = ] ' * = ) ! o ~ { = ] ' * = ) ! o ~ { ^ ",
"/ ( _ : < [ }   | 1 2 ( _ : < [ }   | 1 2 ( _ D.{.2.f.Q+4.R+q+r+a+y+b+S+|+9+[+l+5+T+]+]+]+@.d+]+2+` U+G.h.S.< [ }   | 1 2 ( _ : < [ }   | 1 2 ( _ : < [ }   5 > ",
"6 7 8 9 0 0 a b c d e 7 8 9 0 0 a b c d e 7 8 D.u.-.f.V+V+W+c+a+a+c+c+2+X+@.z+@.]+!+)+)+)+@.e+j+w+` Y+h.2.J+0 0 a b c d e 7 8 9 0 0 a b c d e 7 8 9 0 0 a b c i ",
"j k l m j j n < o j p ~ l m j j n < o j p ~ l m Z 2.f.Z+Z+W+c+m+m+r+S+c+`+D+P+)+!+]+]+@.@.T+..k+q+Y+W 2.h.m j j n < o j p ~ l m j j n < o j p ~ l m j j n < o p ",
"z | d b A B C D ! E E | d b A B C D ! E E | d b A B f.Z+ @Z+!.r+|+l+d+m+X+V >+.@w.=+W i+5+v j+i+].^..@2.d b A B C D ! E E | d b A B C D ! E E | d b A B C D ! E ",
"M N O O E B P Q M 1 M N O O E B P Q M 1 M N O O E B +@Z+ @Z+{.!.D+z+k+-.f.u+Z.C.Q.U.f.U+@.@.(+Z `  .W h.O O E B P Q M 1 M N O O E B P Q M 1 M N O O E B P Q M M ",
"# i #.n $.#.%.[ &.*.] &.#.n $.#.%.[ &.*.] &.#.n $.#.+@ @@@W+A+;.;.,+6.=+=+*+*+*+X =+>+#@)+` ].].^.-+e.h.#.n $.#.%.[ &.*.] &.#.n $.#.%.[ &.*.] &.#.n $.#.%.[ &.(.",
"_.*.: ! :.<.o { [.} }.|.: ! :.<.o { [.} }.|.: ! :.<.-.$@@@$@u.;.L.L.;.,+/+M+^+E+E+E+P+E+F+6.Y ].V V w.|.: ! :.<.o { [.} }.|.: ! :.<.o { [.} }.|.: ! :.<.o { [.|.",
"8.9.9 @ l B 0.a.b.O c.9.9 @ l B 0.a.b.O c.9.9 @ l B 0.B+%@@@!.g.3.F.X.6.D+P+)+)+P+P+` F+=+Y Y W V U .@9.9 @ l B 0.a.b.O c.9.9 @ l B 0.a.b.O c.9.9 @ l B 0.a.b.> ",
"  . k.}.P $ [.l.m.=   ; k.}.P $ [.l.m.=   ; k.}.P $ [.&@t+$@W+A+>.F.3.t.!.`+1+@.#@>+F+=+=+~.W (+!+U .@; k.}.P $ [.l.m.=   ; k.}.P $ [.l.m.=   ; k.}.P $ [.l.x.> ",
"] y.* = ) ! o ~ { = ] ' * = ) ! o ~ { = ] ' * = ) ! o ~ t+$@W+v+>.D.3.L.t.6.P+P+F+=+*+~.t.6.^.V  .g+g+T+O.O.*@*@o ~ { = ] ' * = ) ! o ~ { = ] ' * = ) ! o ~ { ^ ",
"/ ( _ : < [ }   | 1 2 ( _ : < [ }   | 1 2 ( _ : < [ }   -.%@$@-.G+D.3.F.@+'+'+*+*+*+;.;.~.W g+V  .g+z.=@-@;@;@=@>@=@| 1 2 ( _ : < [ }   | 1 2 ( _ : < [ }   5 > ",
"6 7 8 9 0 0 a b c d e 7 8 9 0 0 a b c d e 7 8 9 0 0 a b f. @i+t+ @Q+G+3.F.$+L.'+S.X.~.6..@U -+ .-+.@w.w ,@'@'@,@)@)@'@d e 7 8 9 0 0 a b c d e 7 8 9 0 0 a b c i ",
"j k l m j j n < o j p ~ l m j j n < o j p ~ l m j j n < f.Q+i+!@1.i+ @W 6.X 6.4+6.*+Y+V /.+.i.i.-+Y+U+=@~@)@)@{@]@~@~@'@p ~ l m j j n < o j p ~ l m j j n < o p ",
"z | d b A B C D ! E E | d b A B C D ! E E | 4 ^@/@^@^@,@A.>. @!@(@(@!@!@;+D+(+;+;+#@1+8+G 7.I i.V Y =+=@]@~@)@~@]@/@_@~@;@| d b A B C D ! E E | d b A B C D ! E ",
"M N O O E B P Q M 1 M N O O E B P Q M 1 M :@~@^@<@/@]@~@n.[@V+%@}@|@t t F 1@H o+d+o+u L w F _+-+Y+6.>+w /@{@]@{@/@<@/@]@-@N O O E B P Q M 1 M N O O E B P Q M M ",
"# i #.n $.#.%.[ &.*.] &.#.n $.#.%.[ &.*.2@4 ^@/@3@^@/@<@i.>.u.Z+i+}@4@5@6@6@6@7@g g g q u I -+^.6.6.Z K /@]@]@~@/@3@/@_@)@8@#.n $.#.%.[ &.*.] &.#.n $.#.%.[ &.(.",
"_.*.: ! :.<.o { [.} }.|.: ! :.<.o { [.2@_@_@/@3@/@/@3@3@8+[@V+u.%@i+(@0+5@6@7@7@7@7@<+F j+-+Z !.X !.w+9@/@]@]@]@/@3@/@_@~@;@: ! :.<.o { [.} }.|.: ! :.<.o { [.|.",
"8.9.9 @ l B 0.a.b.O c.9.9 @ l B 0.a.b.2@_@/@/@3@/@3@3@/@1.[@4.u.$@R+%@}@|@9+5@5@5@9+H =.(+` Y+6.6.!.(+t /@]@]@]@/@3@/@_@~@-@9 @ l B 0.a.b.O c.9.9 @ l B 0.a.b.> ",
"  . k.}.P $ [.l.m.=   ; k.}.P $ [.l.=@2@^@^@/@/@3@/@3 ^@I [@4.u.u.u.[@Z+i+1@0+o+H j+;+^.Y+Y+6.6.!.` ;+L ]@]@]@]@/@3@_@_@  ; k.}.P $ [.l.m.=   ; k.}.P $ [.l.x.> ",
"] y.* = ) ! o ~ { = ] ' * = ) ! o ~ { 2@3 ^@^@/@<@_@^@<@I [@[@u.Z+u.g.V+W+;+S+;+#@(+^.^.Y+F+4+6.Y+w+j+h ^@_@]@_@<@/@/@= ] ' * = ) ! o ~ { = ] ' * = ) ! o ~ { ^ ",
"/ ( _ : < [ }   | 1 2 ( _ : < [ }   | 1 {@_@^@_@^@^@^@f T Q+4.u.5.Z+v+W+W+` ].` ` ` ^.w+^.^.` ` ` c+0+3 _@_@_@_@/@3@| 1 2 ( _ : < [ }   | 1 2 ( _ : < [ }   5 > ",
"6 7 8 9 0 0 a b c d e 7 8 9 0 0 a b c d e _@^@^@_@_@^@=@ @Z+V+u.u.!.R+@@X+Z 6.].Y+w+(+(+D+w+^.^.^.I h _@_@_@_@/@a b c d e 7 8 9 0 0 a b c d e 7 8 9 0 0 a b c i ",
"j k l m j j n < o j p ~ l m j j n < o j p ~ l ^@_@_@^@t t+Z+Z+Z+u.u.!.$@n+X+w+0@^.(+(+(+(+^.^.w+1+u ^@_@_@_@_@j n < o j p ~ l m j j n < o j p ~ l m j j n < o p ",
"z | d b A B C D ! E E | d b A B C D ! E E | d b A _@^@y !@$@R+Z+v+v+!.].@@c+i+r+r+;+ .(+(+(+(+;+5+4 ^@_@_@b A B C D ! E E | d b A B C D ! E E | d b A B C D ! E ",
"M N O O E B P Q M 1 M N O O E B P Q M 1 M N O O E B P 6@(@%@@@W+W+R+!.!.0@n+i+y+k+T ;+`+(+(+T |+h _@M N O O E B P Q M 1 M N O O E B P Q M 1 M N O O E B P Q M M ",
"# i #.n $.#.%.[ &.*.] &.#.n $.#.%.[ &.*.] &.#.n $.#.%.[ &.*.] @@@@$@W+W+!.0@n+c+;+(+(+(+;+;+j+[ &.*.] &.#.n $.#.%.[ &.*.] &.#.n $.#.%.[ &.*.] &.#.n $.#.%.[ &.(.",
"_.*.: ! :.<.o { [.} }.|.: ! :.<.o { [.} }.|.: ! :.<.o { [.} }.|.: ! :.<.].!.q+w+w+w+: ! :.<.o { [.} }.|.: ! :.<.o { [.} }.|.: ! :.<.o { [.} }.|.: ! :.<.o { [.|.",
"8.9.9 @ l B 0.a.b.O c.9.9 @ l B 0.a.b.O c.9.9 @ l B 0.a.b.O c.9.9 @ l B 0.a.b.O c.9.9 @ l B 0.a.b.O c.9.9 @ l B 0.a.b.O c.9.9 @ l B 0.a.b.O c.9.9 @ l B 0.a.b.> ",
"  . k.}.P $ [.l.m.=   ; k.}.P $ [.l.m.=   ; k.}.P $ [.l.m.=   ; k.}.P $ [.l.m.=   ; k.}.P $ [.l.m.=   ; k.}.P $ [.l.m.=   ; k.}.P $ [.l.m.=   ; k.}.P $ [.l.x.> ",
"] y.* = ) ! o ~ { = ] ' * = ) ! o ~ { = ] ' * = ) ! o ~ { = ] ' * = ) ! o ~ { = ] ' * = ) ! o ~ { = ] ' * = ) ! o ~ { = ] ' * = ) ! o ~ { = ] ' * = ) ! o ~ { ^ ",
"/ ( _ : < [ }   | 1 2 ( _ : < [ }   | 1 2 ( _ : < [ }   | 1 2 ( _ : < [ }   | 1 2 ( _ : < [ }   | 1 2 ( _ : < [ }   | 1 2 ( _ : < [ }   | 1 2 ( _ : < [ }   5 > ",
"6 7 8 9 0 0 a b c d e 7 8 9 0 0 a b c d e 7 8 9 0 0 a b c d e 7 8 9 0 0 a b c d e 7 8 9 0 0 a b c d e 7 8 9 0 0 a b c d e 7 8 9 0 0 a b c d e 7 8 9 0 0 a b c i ",
"j k l m j j n < o j p ~ l m j j n < o j p ~ l m j j n < o j p ~ l m j j n < o j p ~ l m j j n < o j p ~ l m j j n < o j p ~ l m j j n < o j p ~ l m j j n < o p ",
"z | d b A B C D ! E E | d b A B C D ! E E | d b A B C D ! E E | d b A B C D ! E E | d b A B C D ! E E | d b A B C D ! E E | d b A B C D ! E E | d b A B C D ! E ",
"M N O O E B P Q M 1 M N O O E B P Q M 1 M N O O E B P Q M 1 M N O O E B P Q M 1 M N O O E B P Q M 1 M N O O E B P Q M 1 M N O O E B P Q M 1 M N O O E B P Q M M ",
"# i #.n $.#.%.[ &.*.] &.#.n $.#.%.[ &.*.] &.#.n $.#.%.[ &.*.] &.#.n $.#.%.[ &.*.] &.#.n $.#.%.[ &.*.] &.#.n $.#.%.[ &.*.] &.#.n $.#.%.[ &.*.] &.#.n $.#.%.[ &.(.",
"_.*.: ! :.<.o { [.} }.|.: ! :.<.o { [.} }.|.: ! :.<.o { [.} }.|.: ! :.<.o { [.} }.|.: ! :.<.o { [.} }.|.: ! :.<.o { [.} }.|.: ! :.<.o { [.} }.|.: ! :.<.o { [.|.",
"8.9.9 @ l B 0.a.b.O c.9.9 @ l B 0.a.b.O c.9.9 @ l B 0.a.b.O c.9.9 @ l B 0.a.b.O c.9.9 @ l B 0.a.b.O c.9.9 @ l B 0.a.b.O c.9.9 @ l B 0.a.b.O c.9.9 @ l B 0.a.b.> ",
"  . k.}.P $ [.l.m.=   ; k.}.P $ [.l.m.=   ; k.}.P $ [.l.m.=   ; k.}.P $ [.l.m.=   ; k.}.P $ [.l.m.=   ; k.}.P $ [.l.m.=   ; k.}.P $ [.l.m.=   ; k.}.P $ [.l.x.> ",
"] y.* = ) ! o ~ { = ] ' * = ) ! o ~ { = ] ' * = ) ! o ~ { = ] ' * = ) ! o ~ { = ] ' * = ) ! o ~ { = ] ' * = ) ! o ~ { = ] ' * = ) ! o ~ { = ] ' * = ) ! o ~ { ^ ",
"/ ( _ : < [ }   | 1 2 ( _ : < [ }   | 1 2 ( _ : < [ }   | 1 2 ( _ : < [ }   | 1 2 ( _ : < [ }   | 1 2 ( _ : < [ }   | 1 2 ( _ : < [ }   | 1 2 ( _ : < [ }   5 > ",
"6 7 8 9 0 0 a b c d e 7 8 9 0 0 a b c d e 7 8 9 0 0 a b c d e 7 8 9 0 0 a b c d e 7 8 9 0 0 a b c d e 7 8 9 0 0 a b c d e 7 8 9 0 0 a b c d e 7 8 9 0 0 a b c i ",
"j k l m j j n < o j p ~ l m j j n < o j p ~ l m j j n < o j p ~ l m j j n < o j p ~ l m j j n < o j p ~ l m j j n < o j p ~ l m j j n < o j p ~ l m j j n < o p ",
"z | d b A B C D ! E E | d b A B C D ! E E | d b A B C D ! E E | d b A B C D ! E E | d b A B C D ! E E | d b A B C D ! E E | d b A B C D ! E E | d b A B C D ! E ",
"M N O O E B P Q M 1 M N O O E B P Q M 1 M N O O E B P Q M 1 M N O O E B P Q M 1 M N O O E B P Q M 1 M N O O E B P Q M 1 M N O O E B P Q M 1 M N O O E B P Q M M ",
"# i #.n $.#.%.[ &.*.] &.#.n $.#.%.[ &.*.] &.#.n $.#.%.[ &.*.] &.#.n $.#.%.[ &.*.] &.#.n $.#.%.[ &.*.] &.#.n $.#.%.[ &.*.] &.#.n $.#.%.[ &.*.] &.#.n $.#.%.[ &.(.",
"_.|.: ! :.<.o { b.} a@|.: ! :.<.o { b.} a@|.: ! :.<.o { b.} a@|.: ! :.<.o { b.} a@|.: ! :.<.o { b.} a@|.: ! :.<.o { b.} a@|.: ! :.<.o { b.} a@|.: ! :.<.o { b.|.",
"8.8 p @ E > $ b@c@O c.8 p @ E > $ b@c@O c.8 p @ E > $ b@c@O c.8 p @ E > $ b@c@O c.8 p @ E > $ b@c@O c.8 p @ E > $ b@c@O c.8 p @ E > $ b@c@O c.8 p @ E > $ b@c@> "};
