/* XPM */
static char *gregory_ligman_brick_03_resized[] = {
/* columns rows colors chars-per-pixel */
"80 80 60 1 ",
"  c #050202",
". c #0C0404",
"X c #130506",
"o c #1B0607",
"O c #170708",
"+ c #1B0708",
"@ c #1E0809",
"# c #210707",
"$ c #230807",
"% c #220708",
"& c #240A0B",
"* c #2C0C0E",
"= c #330E0E",
"- c #3B0D0E",
"; c #340F10",
": c #3C1111",
"> c #430E0E",
", c #480F0F",
"< c #450F10",
"1 c #461011",
"2 c #4B1314",
"3 c #4F1618",
"4 c #551314",
"5 c #5B1516",
"6 c #521618",
"7 c #5B1719",
"8 c #561819",
"9 c #5A191A",
"0 c #641616",
"q c #691717",
"w c #671718",
"e c #691718",
"r c #631A1B",
"t c #6B1A1A",
"y c #761B1B",
"u c #7A1C1C",
"i c #75201F",
"p c #741F20",
"a c #7D1F20",
"s c #772020",
"d c #7B2122",
"f c #821E1E",
"g c #83201F",
"h c #89201F",
"j c #831F20",
"k c #852122",
"l c #8C2323",
"z c #932525",
"x c #9B2626",
"c c #9B2827",
"v c #972728",
"b c #972828",
"n c #9C2828",
"m c #A12727",
"M c #A32827",
"N c #A32728",
"B c #A62929",
"V c #AA2A2A",
"C c #B22C2C",
"Z c #BB2E2E",
/* pixels */
".$$$%%%%%%$$$$.$#%%$$$$$$$OX&$$$$$$$$$$$#.&#$$$$$$$$$.%$%%$$$$$$%%$XO&#%%$$$%%$$",
"$BNBNNNNNBNBBlOzVMBNNNNmNV,2CxNNNNNNNNNVr$VBMMNBNNNNx%lVNBNmNNNNBBN&qCmNBNNNNNBf",
"#mlajffjjfkult.jzukgjjgkfz*,Vgfkjjffjfav2oBlffkfjfjlkXfvujfkjjjjdklX0Bugfkjfkdlr",
"#xfyuyuyyuyykyXzlyyuyuyyyl=>Byyyuyuuuyyl3#BuyyyyuuyufOfzyuuyyyuyysl@0xyuyyuyuykr",
"#mjuuuuuuuuuks.llyuuuiuuyz=,Vyuuuauuyuyz3#MuuuuuyuufkXlzyuuuuuuuuulOrNyuuyuuuylr",
"$xzlllzlllllvyXhblzlzllllv=,Blzlllllzllv6$mlllzllzlvk+jblllzlllzlzl@0nlzlzllzlzr",
" *$&&&&**&&&&% %%&&&&**&&&X.*&&&&&**&&&&O &&*&&&*&&&& %&&*&&**&&%&* O&$&&$**&&&&",
"2,2,213o*312122121214$O412221121<2.<2,,222211212X=2,121211,,*O32,,2,222,22-.2122",
"BVBVBVB&tZMBBBBVVVBBC:>ZBBBBBVVBVl@vCBVVBBVBVBVNOyZMVBVBVBBV3-ZBVVVVBVBBBCt#CVBV",
"yyyyydk@0cyuyuyyyyyyl*-ByuyyyyyyjpXjlyyyyyyyyyukX0vyyyyyyyyl:=Buyyyyyyyuyh8oxuyy",
"uuuuyul@0myuuyuuyuuuz=-ByyuuuuuyfpXjlyuyuuuuuyukXtxyuyyuuuyl--Byyuyyuuyuyh8oxfyu",
"ffffgkl@0Buffffgfffuv=-VfgffffguluozxujjffffffklOtBuggfgkffv--Cfffffffffiz8oBhff",
"dsdssdp%4kdiiidddasdd=-kidididdsar+ydpapdssdsdupO5gidsdddsdd-;kddddpdiiiii4#fiid",
"XXX.X.X..XX.XXXX.X.XX. XX.XXXX.X.O.X.XXXXXXXX.XX XXXXXX..XXX. XX.XXXXXXXOXX XOXX",
"ogugffufuffffyXyfffuffffgg>-hfugjujujfuj4%kfffffffuff%tffffuffigfff$6fffffggifgt",
"$VnxxxxvxxxvNiXzBvxxvxzxvB;1CvxxxxxxvxxB6$VcvvzxvxxclOlVzxxxzxxxxxcOtCzxzvxzxxcp",
"#xuyuyyyyyyyftXhhyyyyyyyyl=>Byyyyyyyyyyl3#BuyyyyyyyudXfzyyyyyyyyyylO0xtuyyyyyygr",
"#mfyyyyyuuyygi.hgyuuyuuyul=>Byuuyyuuyyyl3#MuyyyyyyyukXhzyyuuyyyuyylO0cyuyyyyyygr",
"$VzlllzhlllhviXzxhhlllhhhc=,Clhlhlllhhhx3#VzhzllllhzkOlmflllhlhllzvOqVllzhhlllxr",
"O5667667766482.38888888888*$986688967685=O96646447876X2746767788664X-9668889766>",
"oOOXXXOXXXOOOOOXOOOOoX.OooooOoOXoO.OoOXoooOOOoOo.XOXOOOOOOOOX.OXOOOoOOOXOOo OOOo",
"mmmMMMm*0VmmmmMMxmmMB<-CxmxmmmmcMlohBMmmMxmmmcmx@tVMmMMMmMxB4-VcmMmmmmmxmMt#Mmmm",
"ffgggllo0Bfgffggffggz=-VggggffggliXhxigfgffggglkXqNuffggffgz-=Vgfghfffkkfz8omhgg",
"uyyyyulo0myyuyyuuuiyl=-ByyuyyuuygiOhhyuuyuuyuuilXtxyyuuyuuyz:-Buyuyyuyuyyh8oxfyu",
"uuuuuul@rNyuiuuuuuuuz=-VyiuuuuuuhiXlzyyyuuuuuuilXtxyuiuyuuuz:-Buuuuuuuuuyl7Oxkuu",
"lllllll&0Nlllllzhzllv;-Blllllhllvi@hxllzllllllzkOtnlzllllhlv:-Bllllllllllv7$xzll",
"=******.@*****=******OX=**==*****&.&&***==**=*** #***;=*****OX*****=;*****% ****",
".2<2<,2,1111<<.>,<<<<,<<<,*&3<,,,,112,,2=X,,1111,2<<2X-,,,11,211,<2X=21111,21111",
"$CVVVVVVVVVBClOxCBBVVVVVBV2<ZVBVVVVVVVVC9*CVBVVBVVBVc#zCBVVVVVVBVVV&tZBVVVVBVVVd",
"#xfyuyyuuyuukt.hlyuuyuyuul*>Myyuuyyuyyyl2#MiyuuuuuyfgXgzyuyyyuyuuukO0xyuyuuyyykr",
"#xfyuuuyuuuygy.hlyuuuuuyuz=>Buuuyuyyyyyl2#BuuuuuuyyuiOgzyyuuuuuuuulO0xyuuuuuyykr",
"#Mhfufffiffuli.zzufufuffix=>Viffffffffyv4#BgfufufffhgOhxufffufguigl+0Bufuffukubr",
"%ldkkdddddkakrOukdkdddkddk;<zddkkdddkddk2$kkddkddddkp+ykdkdkddkdakd@7ladkdkddkk9",
" X....XXO..... .X....XX.... .....XO....X. ..X...OX... ......XX..... .......O...X",
"yyyyyyu*2ayyypyysyyyi-*gyyypyuyyyt+tuypyyuyypyyuo3apyyyypyya<*kpyyyypyypya9Ouyyy",
"xbxnbnb&eCvxxnxxxbxxB:-ZbxxxxxxzNkXzBxxnxxxxxxnbotCxxxxxnxxB1;CxxxxxxxxxzBr+Vnxx",
"yyyyyuk@0xyyyyyyyyyyl*-NyyyyyyyyfpoflyyyyyyyyyukXextyyyyyyyl:-Nyyyyyyyyyyj8oxuyy",
"yuyyyul@0nyyuyyyyyyyz*-VyyyyuyyyfyOflyyyyyyyyyulXexyuyuuyyyz:=Nuuuyuyuuuuj7omuyu",
"llllllz%0Vjllljlllllx;>VllllllljvaXznlllllllljllOtBjjljllllb:-Cljllljjjljn7@Mzll",
"9677898@-977779777677*&r8677977772X6767799799978X<r87r798799*$0899997r9979:+0676",
".@OOoooo+++oo+.++OOoooooo@oX++OO+$OO++o++.@o++o@oo+@@X@+OOoo@ooooo+Xo+oooo#OooO@",
"$NmmmmmmNNnmNjolNxmmmmmxxM,<VxNNnnmmNNxB0&NmNNxmmmnNx$jNmmMMmmmxmnx&0VxNxmmMmmmd",
"%mlkljjjjjljzp.zxfkljjjjlv*>Vkjjjjjjjjjb2$BjjjkjjjjljXjnfjjjjjjjjllOwNjjjjljjjzr",
"%xfyyyuuuyyyjyXjlyyyuuuuyl=>Nuuuuyuuyuyl3$NjyuuuuuyuaOjzyyuuuuuupalOwxyyuuyuyylr",
"@Njuuuuyuuuyjy.zlyuuuuuuul;,Vyyyuuuuuuyl3oNuuuuuuuuudOjbyuuuuuuuaulO0nyuuuuuuylr",
"$NzlzlzllzllxpXjxlllzllllx;2Vlzzzzllzlln6$NzlllzlllvkojBjzlzzlzllzl@eNlzzlllzlvr",
".=*****;;**;** **;*;*;;;=*OO;*****;=***;@.=*;;**;;;**.**;***;;*****.@;****;;****",
"------>O&----;-----=<@+--;--------X=--------;---X&--------;<$O------------=.----",
"BVVVVVV*tZBVVVVVVVVVC<>ZVVVVVVVBCl#xCVVVVVVVVVVN@yZNVVVVVBVC3-ZVVVVVVBVVBCt$VVVV",
"uuyyuuk@0nyuyyuyyuuyl*-ByyuyuuuykyXhlyuyyuyuuuikXexyuyyuyuul;-Byyyuuuuuyyl8Oxfuu",
"uuuuuul@0xyuuyuyyyuyl=-VyuyuyyuyfyXflyyyuyyyuyulXexyyuuyuyyl-=Buyyuyuyyyyl7Oxfyy",
"fjujukl@0Buffffffffub;-VffigfffulsXlxuffffffffglXeNufffjjfux:-Vgffffffffuz5OMhff",
"aadddka$4kdkddddaaddk*-likdddddddr+ykdddddddaddp+5laaddddddk-=ldaddddddail3ofddd",
".XXXX.OX.XXXXXXXXoXXXX.XXXXXXXXXXO.XXXXXXXXXXXXX XXoO.XXX.XXX.XXXOXOXXXXXXXXXXXO",
"&lljljljlllfluOalfzffljzhz<-vglhljllflll5%zlhlhlzjjjj&ylllhlhllhjjl$8zjzlfzfjfzy",
"$Nxzzzzzzzzvny.zmzzzzzzzzn=,CzzzzzzzzzzN6#VzzzzzzzxxlOlBlzzzzzzzzxv+eVlvzzzzxzxt",
"#muyyyyyyyyyfp.llyyyyyyyyl=>Nyyyyyyyyyyl3#muyyyyyyyfkOfzyyyyyyyyyukOrxtyyyyyyykr",
"#xayuyyyyyyyfy.lkyyyyyyyyl;<Nyyuyyyuuuyl3#muyyyuyuyikXfzyyyuuuuyyulO0xyyyuyuyykr",
"$MzlzlllzlllvsXzxllllllllb;<Clllzllllljn6$BzllllllllkXjBhllllllllll+tVlllzllllvt",
"X4322323322221 >3233333223&$623222622233*X32323233231X1322323323233O=3223223233:",
"o$o#oo$.X$o@@$$@oo#ooX.o@@##$@o$o#.#$@@o%%@@#o@$ X#o@#oo#oo#X.#o@o$$@$#oO$o #oo#",
"BNBNBBN=eCNBBBNNBBBBV1>ZNBBNBNNNBzozVBBNBBBBNNVx$yCNBBNVBBBV6-CBBBNNNNBNNVt$VBBB",
"uffudkl+0Nuajufuugkuz*-VjufuujfujaXjzufffujufuklXqnuukfuuffz-=Vfujuffuffuz6@mkua",
"uuuuuuk%0xyuuuuuuyuul;-ByuuuuuuyfpOjlyuuyuuuuuukXtxyuuuuuuyl:-Byuuuuuuyyyl7Oxfuu",
"uuauual@0Nyauuaauuayz*-VuuuuuauulpXlzyayaauuauulXtnyuauuuuuz:=Vuuuauuuuuul7OMgyu",
"llllllk&0nllllklllllz;<nlllklllllp+jzllllklllkzk+rnkllllkllb:-nlllllllllkv7@xlll",
"*&@&&&&.O&@%@@*&&&@&&X.*@&&*@@&&&& %&&&&&*@&&&&$ +&&&&&&&&&$O.&&&&&&&@&&%&@ &&&@",
"X7644448444484X24446444447=&744644444444-X56444454444O2844444445647+;54644444464",
"$CVBBVBBVBVBVloxCNBBVBBBVV<<ZBVBVNVVVBNC7*ZBBBVVBVVVx@zCBBBVBVVBBBB@tZBBVVBVVBVi",
"#xfyyyuyyyyyft.lkyyyyuyyyl*>Byyyyyyyyyyl2#muyyuyyyuudOjlyyyyyyyyyakOwxypyyyyyylr",
"#xjyuuuyuuuyjy.jluuuuuuuyl;>Nyuuuuuuuyyl3#Nuyyyuuuuujojzyyuuuyyuyul+0xyyuuuuuykr",
"$Bjffjjjffgfls.zzujjfffffb=<Cjjjfffffffb3#Nlffffffulkojnffffgffffkl+eBujfffffuzr",
"$fappapppapaarOtdssddsyddd=-kpapappapspd1$jpdpsspdpdt+tddppdusdsapp@4jppppppdpd7",
" ......X...... ......X..... ......X...... ......X...X .......X..... ......XO....",
"jfjjfjj*4lajjjjjjjkuk-=luffjjjjjju@ujjjjajjjjjjj@4lufjffjjjj2*lfjjjjjjjjjj7+ffju",
"zzzzzvb&0VzzzzzzzzvzN;-CvvzzzzzzxaozBzzzzbzzzzbzXyVzzzxzzzvN--CvzzzvzzzzzB7oBxvv",
"yyyyyuk@0ntyyyyyyyyyl;-ByyyyyyyyfpXjjtyyyyyyyyukXtvtyyyyyyyl:=Myyyyyyyyyyj7Oxuyy",
"yuyuyul@0Nyuyuuuyyyyz*-ByuyyuyyyjpXjzyuuyuyuyyulXtxyyyyyyuyl:-Vyyyuyuyuuyl7XMfyy",
"llkljll@0Bkllllkklljx;-Vjllllljjzp+jnjlllljlllllXqNkllllllkx--Vkjllljllljx8+xlll",
"77999r9&<97977797r997**r9979997r76@8909979979997o2r779797799;*r7r77979799r1+r777"
};
